<?xml version="1.0" standalone="no"?>
<!DOCTYPE svg PUBLIC "-//W3C//DTD SVG 1.1//EN" "http://www.w3.org/Graphics/SVG/1.1/DTD/svg11.dtd" >
<svg xmlns="http://www.w3.org/2000/svg">
<metadata></metadata>
<defs>
<font id="sabotagemedium" horiz-adv-x="864" >
<font-face units-per-em="2048" ascent="1638" descent="-410" />
<missing-glyph horiz-adv-x="628" />
<glyph horiz-adv-x="2048" />
<glyph horiz-adv-x="2048" />
<glyph unicode="&#xd;" horiz-adv-x="628" />
<glyph unicode=" " horiz-adv-x="628" d="M397 106v11q-31 4 -64.5 5t-62.5 -9q29 -16 62.5 -14.5t64.5 7.5zM745 -41l-6 104l-41 52l-225 8l-10 -10l49 -47q10 0 23.5 1t15.5 -22q-16 -12 -32.5 -10t-33 6t-33 5t-30.5 -15q-68 2 -89.5 4t-19.5 4t16.5 4t16.5 4t-19.5 5t-88.5 7q-12 4 -31 4q-16 0 -29 -10 q-23 0 -39 19.5t-24 48.5q-88 -2 -115 -2t-21.5 1t26 0t25.5 -2t-19.5 -3t-110.5 -9q2 -35 -1 -55t-3 -35q0 -12 4 -21t18 -18q8 2 16.5 -4t14.5 -11t13 -8t15 5q-4 4 -2 11t7 12q33 -10 71.5 -7.5t73.5 -7.5q25 12 49.5 9t50 -14t50 -26.5t49.5 -27.5l247 41zM303 -4h-6v14 q2 -4 6 -14z" />
<glyph unicode="!" horiz-adv-x="442" d="M383 1282l-92 6q-8 -25 -23.5 -34t-35 -13t-40 -6t-36.5 -10v-248l14 -115q2 -14 -3 -18t-13 -4q-6 0 -13.5 3t-13.5 5q-10 -33 -9 -62.5t6 -58.5t6 -58.5t-9 -62.5q4 -27 22.5 -30t40.5 2q0 -96 11.5 -190.5t17.5 -186.5h43q20 14 26.5 33.5t6.5 39.5q0 23 -4 45.5 t0 45.5q-4 18 0 35.5t8 34t5 32.5t-7 33l22 356l49 -22q10 70 8.5 143.5t-1.5 146.5q23 33 21.5 76t-7.5 82zM645 4q-4 8 -6 18.5t-6 16.5t-11.5 7t-19.5 -9q-45 2 -79 7t-64.5 7t-61 -3t-71.5 -23q-20 12 -47 16t-54.5 6t-53.5 8t-44 25q-2 -16 -14 -29q-8 -2 -14.5 -4 t-12.5 -4q-16 2 -31 2h-26q-14 -4 -22.5 -11t-18.5 -7q-2 0 -4 1t-7 1l-10 5t-18 5l-17 20q-10 -6 -10 -22q-20 -4 -39.5 -5t-38.5 9q0 23 -12 27q-6 -23 -20.5 -38.5t-8.5 -31.5q14 -29 27.5 -26t30.5 3q-16 8 -17 27q10 6 21.5 8t21.5 6q-4 -10 0 -20q14 -14 31 4 q16 -4 29.5 -9t27.5 1q10 -2 17 -5l6 -3q-10 -6 -14 -18.5t6 -16.5q10 4 20 9t19 9q27 -4 32 10.5t11 24.5q4 6 12 6q10 0 14 -6q-12 -25 -5 -52.5t15.5 -54t4.5 -49t-41 -34.5q10 -10 20 -19.5t21 -9.5q43 16 91 18t81 -26l14 14q-4 20 1 40.5t12 41t11.5 42t2.5 46.5 q12 -6 25.5 0t23.5 18q10 -10 16 -20t0 -25q16 6 34.5 3t40 -7t44 -5t45.5 9q27 -2 42 3.5t24.5 15.5t14.5 23.5t9 29.5zM-37 -39q2 8 -2 10t-10 0t-11.5 -6t-5.5 -10q6 0 9.5 -7t13.5 -7q10 10 9 13zM-100 -53q0 10 -2 19t-13 16q-10 -10 -9 -23.5t18 -19.5zM14 -188 q-6 4 -6 16q0 10 -16 10q-2 -2 -3 -10t0 -15.5t5 -13.5t12 -2zM575 -33q-18 18 -28 -8l-35 29q0 -20 -11.5 -27.5t-27.5 -9.5q4 8 1 17t1 14q23 4 50 11t50 -26zM461 -49h-25q-10 0 -16 -4q-16 10 -8 23.5t14 29.5q10 -10 17.5 -24.5t17.5 -24.5zM424 2l-41 -4v4q25 14 41 0 z" />
<glyph unicode="&#x22;" horiz-adv-x="847" d="M709 1407l-23 23q-29 -4 -59.5 -2t-59.5 2t-56.5 -4.5t-49.5 -18.5l14 -518l17 -68q-23 -37 -18 -47t24.5 -11t44.5 -1t39 -17q10 6 24 7q14 0 29.5 2t29 9t21.5 28q-6 76 -1 151.5t12.5 151t12.5 153.5t-1 160zM371 1421q-23 14 -34 9t-17.5 -19t-8.5 -31.5t-8 -25.5 l-14 16q8 33 -5.5 45t-37 13.5t-50 -2t-42.5 3.5q-23 -41 -20 -91.5t3 -97.5q14 -61 15.5 -122.5t0.5 -123t3 -122t26 -119.5q41 0 73 -4.5t79 -4.5q18 16 24.5 41t6.5 52q0 29 -2.5 57.5t-0.5 52.5l-36 -14q-23 45 -20 100.5t20 93.5q14 -8 18 -21t5 -26.5t3 -25t10 -17.5 q16 14 17 29q0 14 -6 29.5t-13.5 31t-3.5 31.5q16 25 22.5 57.5t5.5 68.5t-6 70.5t-7 65.5zM920 -162v12q0 10 -3.5 16.5t-13.5 2.5q-10 -10 -2.5 -22.5t19.5 -8.5zM1053 106q-74 -6 -119 -7t-75 0t-53.5 3t-55 5.5t-78.5 4.5t-123 -1l-23 -19q-66 10 -113.5 13.5t-93.5 3.5 q-43 0 -91 1t-111 7q-31 -10 -49.5 -8t-34 5t-30.5 4t-42 -7q-45 8 -59.5 -8.5t-13.5 -44t9.5 -57.5t8.5 -46l143 4q-2 0 -23.5 -1t-45.5 -1q-25 0 -32 -1t19 -1q25 0 103 2l14 4l2 -10l6 6q2 2 2 8l39 10l12 -18h68h106v-6h13q2 6 0 6h176h12l17 18l6 -6l22 -2 q-18 -12 -19 -39.5t-9 -46.5q23 0 48 -9t52 -9l12 41q10 14 23 14q14 0 24 -14q4 -16 -7 -21.5t-15 -19.5q10 -10 18 -8t15.5 9t14.5 15t15 12q12 0 18.5 -6t12.5 -12t12 -8t17 4q10 8 28.5 12t35 9.5t24.5 14.5t0 27q-8 8 -16.5 17.5t-18.5 13.5h35q20 -10 35.5 -8t35.5 6 l54 2q25 12 35 27.5t13 35t0 40t-5 40.5zM449 -78v10h-7zM401 -78q10 4 4 16.5t-14 12.5l-31 -35q10 0 21.5 -2t19.5 8zM385 -131v12q0 4 -8 4q-6 0 -10 -4q0 -4 4 -10t14 -2zM344 -96q-18 4 -30.5 16t-28.5 12q10 -12 5 -31.5t-24 -19.5q4 -14 10.5 -13t13.5 4t15 5t14 -8z M-129 -55q4 10 0 23.5t-16 13.5l-7 -43q4 0 11.5 1t11.5 5zM-176 -14q-12 12 -15.5 30.5t-25.5 22.5q-12 -4 -11 -20.5t11 -20.5t19.5 -15t21.5 3zM985 51l-12 -41q-23 10 -48.5 13.5t-39.5 33.5l12 13q4 -23 14.5 -24t23.5 3t26.5 8t23.5 -6zM879 4l-11 6q4 4 5 2t6 -2v-6z M809 63q-10 -14 -17.5 -28.5t-29.5 -24.5q4 23 8 38t8 32zM850 -37l-14 -2q6 6 14 2zM731 45q0 -4 -3 -6t-7 -6l-12 12h22zM690 63h-12l6 17q10 4 8 -4.5t-2 -12.5zM819 -39q-16 -2 -29.5 -3t-27.5 -1l53 12zM627 57q-6 -10 -5 -21t3 -20.5t-1 -14.5t-22 -3q-14 14 -26.5 4 t-26.5 -10l-29 65q16 27 49 27q35 0 58 -27zM674 -43q-20 -20 -42 -13t-38 21l43 -2zM473 27q-14 -12 -27 -13q-12 0 -26 -4v17q14 0 25.5 -2t15.5 14v24q14 0 18 -13t-6 -23zM307 70q0 -10 -6 -12.5t-10 -6.5h-6q-10 10 2 18.5t20 0.5zM225 10l-12 -53q-2 14 -15.5 21.5 t-26.5 12.5t-22.5 14t-5.5 28q12 10 21.5 4t19.5 -14q6 4 6 8q0 6 -1 11t-2 11t3 10q4 -4 10.5 -6t6.5 -12q-12 -14 -4 -24.5t22 -10.5zM94 -35l-10 -4l-2 14q6 0 12 -10v0z" />
<glyph unicode="#" horiz-adv-x="1116" d="M1112 84q4 20 -12.5 28.5t-28.5 4.5q4 -2 6 -10.5t5 -16.5t8.5 -14t15.5 -6zM1040 117h-22v-21zM1178 37q-74 4 -155 5t-185 7q-29 -10 -56.5 -6t-46.5 20q8 16 9 41t4.5 47.5t13.5 38t39 13.5q4 4 -1 13t-5 20l-7 -7q-4 -6 -14 -6q-8 0 -8 6q-10 14 -7 28.5t13 25.5 q6 -8 12 -9q8 0 15.5 2.5t14.5 3.5t11 -6q0 -20 16.5 -19t30.5 1q6 25 22.5 29t34 5t34 6t22.5 32l-6 8q0 43 -22.5 52t-54.5 8t-63.5 -2t-50.5 20q-8 72 6.5 129t24.5 123q14 12 34.5 16t43.5 4t45.5 -1t42.5 1q18 2 23.5 13.5t6.5 25.5t2 29.5t9 25.5q-2 8 -9 11.5 t-16 3.5q-8 0 -15 2t-7 8q4 10 12 13t19 7q0 4 -3 9l-3 6q-27 12 -42.5 1.5t-27.5 -25.5t-28.5 -25.5t-45.5 2.5q-16 25 -16 49q0 27 5 54.5t10 56t1 59.5q4 8 6 21.5t7.5 23.5t13.5 16t26 -2q23 25 19 61.5t0 71.5q-35 25 -81 20t-91 1q-18 -10 -23.5 -25.5t-4.5 -33t3 -36 t0 -32.5q16 -10 21.5 -23.5t6.5 -29t0 -31t3 -29.5q6 -35 -8.5 -47t-30.5 -19.5t-29.5 -19.5t-3.5 -47q-14 -10 -32.5 -15.5t-14.5 -31.5q-18 -14 -42.5 -12t-47.5 6l12 32q-18 -4 -29.5 3.5t-17.5 20.5t-7 30.5t1 34.5q-27 -6 -31 16t0 43q6 10 7.5 27.5t4.5 34t12 26.5 t32 4q12 12 16 27.5t3 33t-3 36t0 36.5l-12 21q-23 -4 -47.5 -3t-48.5 1q-25 0 -47.5 -3t-41.5 -16l-4 -399q-18 -14 -49 -12t-53 6q4 31 -8.5 39t-32.5 6t-44 -6t-40 2q2 -18 -5 -37t-12.5 -36t-4 -29.5t21.5 -18.5q23 -25 47.5 -30t48.5 -5q27 0 53.5 1t53.5 -11 q4 -35 5 -79t-18 -75q-4 -14 -5 -32.5t-3 -37t-8 -34t-18 -21.5q-18 23 -37 19t-37 -12.5t-34.5 -7.5t-29.5 34q-18 10 -45.5 12t-38.5 -18q-4 -20 6.5 -27.5t24.5 -7.5q10 -10 12.5 -21.5t-1 -21.5t-7.5 -21.5t-4 -21.5q2 -12 9.5 -14t15.5 0t16 2t12 -6q18 12 34 7 t31 -12.5t29.5 -8.5t30.5 20q12 -16 13.5 -34.5t-2.5 -38t-8.5 -40t-2.5 -41.5q-14 -4 -28.5 -7t-18.5 -19q2 -10 8.5 -12.5t12.5 -4.5t10 -4t4 -12q-16 -12 -34.5 -15.5t-39 -2.5t-41 4.5t-39.5 0.5q-45 -4 -83.5 2.5t-67.5 9.5t-45 -3t-16 -35q14 -23 15 -37t-1 -25.5 t-1 -18.5t13 -15q23 -6 74 -9.5t116.5 -4.5t137.5 -1t136.5 -1t115.5 -3t75 -8q82 6 151 5t135.5 -4t133.5 -3q70 0 152 10q20 -6 32.5 10.5t16.5 38t0 42t-18 24.5zM-84 -150q10 10 1 19.5t-19 13.5v-33q0 -4 8 -4q6 0 10 4zM1163 -10q-2 -12 -8 -13.5t-14 2t-16.5 6.5 t-14.5 -1q10 16 25.5 19t27.5 -13zM700 580q-12 -20 -12 -45t1 -49.5t-3 -47t-22 -37.5h-232q-16 27 -15 55.5t8 58.5t14 61.5t5 64.5l19 39h237q18 -10 17.5 -20.5t-6.5 -22.5t-11.5 -25.5t0.5 -31.5zM1038 -16l2 -8q2 -9 -8 -13h-10l4 27q4 4 10 1t2 -7zM969 -61h-51 q-20 0 -39 26q6 6 18 6t26.5 -5t27 -13t18.5 -14zM850 -35q-10 -20 -21 -20q-10 0 -22 6t-23.5 14t-23.5 6q12 14 22.5 12.5t20.5 -8t21.5 -12.5t25.5 2zM659 262q-14 -49 -18 -103.5t-18 -109.5q-49 10 -113 15.5t-113 -15.5q-18 -4 -29.5 8.5t-7.5 32.5q14 10 15.5 28.5 t2.5 37t7 31t31 10.5q8 4 9 9t1 9l-29 14q6 37 30 47.5t53.5 9.5t60 -4t53.5 7q6 -8 17.5 -7t21.5 1t18 -3.5t8 -17.5zM741 -55q0 -4 -3 -10.5t-7 -10.5q-4 0 -11 4t-13.5 10.5t-8.5 13.5t2 13h27q14 0 14 -20z" />
<glyph unicode="$" horiz-adv-x="1019" d="M1210 -23l-399 15q-14 0 -30.5 -7.5t-26.5 13.5q14 10 19 14t7 5t7.5 3.5t19.5 6.5q12 -16 28.5 -14.5t34 9t36 15.5t34.5 4q8 -20 18.5 -18t21.5 8t22.5 9t17.5 -13q8 8 6 16t-7 16.5t-13.5 15.5t-12.5 13q4 10 12.5 12t18.5 2q20 -12 20 -32q16 -8 32 -7.5t29 7 t27.5 15.5t28.5 17q-84 10 -155.5 6t-155.5 1q-16 12 -17.5 28.5t3 36t10.5 39.5t4 37q0 98 -46 176t-134 115q-39 16 -80 23t-70 42q0 106 -4 211t10 209q18 8 31.5 5t27 -11t26 -15.5t26.5 -5.5q20 -10 42.5 -30.5t22.5 -40.5l-38 -6q-10 -6 -11 -15q0 -6 4.5 -12 t10.5 -12t8 -13q39 -20 94 -15t100 9l7 19q6 20 -7.5 37.5t-38.5 7.5q-25 16 -32.5 34.5t-18.5 43.5l45 12q-29 63 -91 95t-130 42q-4 -6 -5 -15.5t-3 -18.5t-6 -15t-17 -4q-29 -2 -41 10t-15 32.5t0 44t3 44.5l-39 51q-37 14 -50 3t-17 -33.5t-8.5 -48t-20.5 -38.5 q-43 -14 -85 -31.5t-77 -45.5q33 -27 30 -48.5t-21.5 -41t-39 -38t-20.5 -40.5q-20 -10 -37.5 -8.5t-28.5 -16.5q-6 -12 -4 -20.5t9.5 -13.5t17.5 -9t16 -10q-4 -47 12.5 -88t20.5 -86q14 -39 41 -67t60.5 -48t70.5 -34.5t74 -24.5q18 -16 19 -33t-5 -33t-11 -33.5t3 -36.5 q18 -49 13 -111.5t-1 -121.5q-12 -16 -31.5 -19.5t-42 -2.5t-47 4.5t-47.5 -0.5q-31 0 -42 24.5t-18 48t-21.5 35.5t-53.5 -12q-10 12 -18 8t-16.5 -13.5t-17.5 -18.5t-19 -9q6 -10 14 -5t18 5q16 -4 20.5 -23.5t0.5 -33.5l-221 -13q8 -4 12 -12t9 -15t10.5 -12.5t15.5 0.5 q2 31 12 30t22.5 -9t24.5 -12t17 22q14 -12 27 -9t26.5 7t26 1t24.5 -23q-20 -10 -10 -24.5t10 -29.5q-10 -14 -22.5 -20t-22.5 -16q29 -10 61.5 -8.5t65.5 2.5t63.5 -6t55.5 -36q-8 -10 -19.5 -11t-22 0t-19.5 0t-11 -7q25 -20 60.5 -27.5t74.5 -11.5q10 4 21.5 19.5 t29.5 1.5q6 -18 4 -41t-2 -45q0 -23 4.5 -42.5t20.5 -27.5q33 -8 43 6t9 36.5t-4 49.5t3 43q-4 14 1 21.5t14.5 10.5t21.5 4t23 3l12 -45q31 -4 57.5 7t53 25.5t53 22.5t61.5 -4q45 2 79 4t63.5 5t62.5 8.5t80 13.5q12 6 28 6h33q16 0 29.5 3t17.5 17zM268 186q-10 0 -16 -5 t-2 -9h6q10 0 10 4zM442 942q-2 -14 -11 -23.5t-17 -17.5t-12.5 -16t4.5 -21l30 -20q0 -59 4 -122t-16 -110q-25 6 -52.5 16.5t-52 27t-42 39t-21.5 53.5l6 96q20 4 43 14t23 45q-2 12 -13.5 16.5t-20.5 7.5t-11 10t12 24q29 25 62.5 44t72.5 13zM733 133l-51 -31 q10 0 10 -12q0 -10 -4 -14q-29 -39 -69.5 -50.5t-83.5 -0.5q-12 14 -7.5 24t16 18.5t25 16.5t17.5 18l-60 19l-6 317q16 14 35 15q20 0 40.5 -7.5t41 -17.5t39.5 -16l57 -72q16 -53 18 -105.5t-18 -101.5zM442 70q2 -20 -5 -31.5t-20.5 -16t-27.5 -2t-22 10.5l-27 12 q20 20 40.5 38.5t49.5 12.5zM328 55q-10 -4 -17.5 3.5t-3.5 17.5h21v-21z" />
<glyph unicode="%" horiz-adv-x="1400" d="M1622 96h-289q-18 4 -25.5 17.5t-8.5 29t0 33t1 29.5q-23 23 -35 50.5t-22 57t-21.5 58t-31.5 53.5q-47 47 -100.5 73.5t-124.5 10.5q-68 -16 -117 -72.5t-70 -113.5q-16 -10 -27.5 -15.5t-7.5 -25.5q-25 -16 -25.5 -34t7.5 -38.5t15.5 -42t-3.5 -43.5 q-12 -18 -32.5 -22.5t-42.5 -4.5h-44q-20 0 -38 -8l67 -35l-47 -33q18 2 38.5 4.5t40 0.5t35 -10.5t23.5 -22.5q-12 -23 -33.5 -27t-46 -2l-49 4t-43.5 -8q37 -16 72 -13t65 13q37 -16 61.5 -50t55.5 -61q14 0 9 18.5t6 29.5q20 6 47.5 -15.5t54.5 -32.5q12 -10 33.5 -9 t40 0t32 -9t11.5 -37q57 -10 105 15.5t81 66.5q2 18 20.5 32.5t35 29t20.5 26.5t-23 29q10 31 29.5 40t44.5 7t52.5 -6t51.5 0q10 27 32 31t45.5 3t44 1.5t30.5 27.5zM647 905q-4 82 -23.5 155t-70.5 134q-29 33 -66.5 44t-80.5 11q-41 0 -85.5 -3t-84.5 1 q-23 -20 -51.5 -40.5t-55.5 -45t-46.5 -53.5t-25.5 -66q0 -18 -6 -43.5t-8 -50t6 -43t37 -20.5q10 -43 16.5 -89t18.5 -89t36.5 -81t71.5 -65q82 -47 179 -33q41 6 71.5 32t52 61.5t37 75.5t25.5 77q8 14 7 37t0 44.5t9 35.5t37 14zM1108 1151l-6 76q-41 6 -85 8t-81 -8 q4 -88 -18.5 -159t-69.5 -122l-8 82l-68 -129l47 -14q-66 -156 -139.5 -307.5t-161.5 -296.5l-35 -15l15 -12q-16 -10 -34 -14t-28 -15q4 -8 13.5 -9t17.5 -3t13 -6t3 -17q-8 -12 -15 -30.5t-17.5 -33.5t-25.5 -25.5t-38 -4.5l29 -43q-16 -8 -20.5 -18t-5.5 -22.5t-5 -22.5 t-18 -19q-12 2 -23.5 -4t-21 -12t-18.5 -7t-19 11h-230q-47 27 -102 35t-96 -12q-4 -39 10 -52.5t43 -17.5q37 -12 53.5 -19.5t22.5 -10.5l6 -3q0 -2 4 1t19.5 6t52.5 10q12 27 12 34q0 8 4 9q4 0 19.5 -2.5t58.5 8.5q47 4 92 -5.5t92 -9.5q-2 -18 -10 -24t-19.5 -8 t-23.5 -2t-23 -7q-16 -16 -13 -40.5t7 -41.5q18 -2 38 -4t37 1t31.5 11.5t22.5 26.5l23 -35q25 0 31 24t22 44q0 20 -15.5 22.5t-25.5 12.5q0 6 5 11l9 9q31 -16 59.5 -1.5t51.5 30.5q-6 4 -20.5 7t-14.5 14l35 40l-64 21q-2 25 6.5 30t21.5 4t26.5 -2t21.5 15l-47 21 l55 116q6 12 17.5 18.5t21 10.5t12.5 10t-10 23q25 82 61 160.5t77 154.5t83 150.5t80 152.5l50 -14q47 57 76.5 125.5t66.5 134.5zM332 96h-486q-10 0 -11 -8t3 -12q16 -6 38 -8t38 8q14 -16 33.5 -17.5t38 3t37 8.5t34.5 -2q31 2 70 0t76 -2q39 0 72.5 6t56.5 24zM106 33 q-10 12 -27.5 14t-34.5 -3t-33.5 -12t-26.5 -12q31 -10 63 -0.5t59 13.5zM-250 41q-6 10 -11 24.5t11 30.5q-31 0 -65.5 1t-51.5 -9q4 -23 18.5 -30t33.5 -7h34q19 0 31 -10zM1292 143h-6v35h6v-35zM1272 0l-4 -4t-8 -4l6 20q4 0 3 -6t3 -6zM1155 274q-33 -6 -42 -25.5 t-8 -45t4 -53t-7 -48.5q-47 -4 -101 -4q-51 0 -92 -10q4 -25 25 -25q20 0 37.5 4.5t20.5 3.5t-27 -30q-10 8 -23.5 9t-26.5 1q-12 0 -24 1t-23 9q10 20 13.5 29.5t-13.5 26.5q0 43 -2 87t3 85t21.5 75.5t51.5 59.5q27 -2 56.5 1t57 0t51 -16.5t36.5 -46.5q0 -27 11 -45 t1 -43zM483 692q-20 -51 -61 -82h-64q-31 0 -60.5 8.5t-53 26t-35.5 53.5q6 29 1 58.5t-6 58.5t7 53.5t39 42.5q0 47 17.5 92.5t64.5 65.5q20 6 37.5 -1t30 -21.5t21.5 -31t15 -28.5q-10 -27 5.5 -45t15.5 -43q27 -8 37 -33.5t9 -57.5t-7.5 -64t-12.5 -52zM1067 12 q-6 -25 -25.5 -37t-35.5 -16q10 -6 16 -12t10 -17q-16 -16 -45 -13t-51 7q-2 12 -13.5 23.5t-21.5 23t-13 22.5t13 27q14 2 30.5 -3t32 -10t31 -4t31.5 17z" />
<glyph unicode="&#x26;" horiz-adv-x="1085" d="M1022 555q-4 4 -12.5 3t-12.5 3l19 -18q0 4 3 6t3 6zM948 555v12q-14 10 -40.5 11.5t-26.5 -17.5q14 -10 33.5 -13t33.5 7zM1339 -4q-2 10 -6 10q-2 0 -8 -3t-14 -3t-17 10q-29 -8 -37 4.5t3 8.5q8 6 7 13t-4 15t-5.5 15.5t8.5 13.5q18 8 27.5 -5.5t12.5 -28.5t3 -17 l6 -2t12 8t4 39q-2 31 -17 35l-14 4l-352 2l-12 18l61 150q2 6 6.5 18t4.5 25q0 14 -6.5 24t-22.5 12q-10 23 -1 34.5t23.5 20.5t25.5 21.5t7 34.5q-4 20 -17 28.5t-29.5 11.5t-34 5t-29.5 12q-20 2 -29.5 -7t-15 -23.5t-10.5 -27.5t-19 -17q-16 -12 -16 -27q0 -14 3 -28.5 t2 -27t-20 -16.5q-6 -12 -4 -21t7 -17.5t12.5 -17.5t9.5 -17q-2 -10 -8.5 -13.5t-14.5 -4.5t-17 -2t-18 -7l27 -43q-10 -4 -20.5 -5t-24.5 -1q-74 66 -129 156t-111 180l7 30q74 37 131 108t90 146q29 0 36 14.5t6 35t-5.5 44t2.5 42.5q-6 51 -29 103t-78 71l-12 -43l-80 24 l-12 49q-76 10 -146.5 -2t-126.5 -59q-53 -53 -70.5 -123t1.5 -143q31 0 51 -31q10 -47 25.5 -92t48.5 -82q12 -37 -2.5 -56.5t-38 -31.5t-50 -24.5t-40.5 -37.5q-23 -14 -37.5 -39.5t-27.5 -49t-31.5 -38t-51.5 -8.5q-2 -12 2 -16t11.5 -7t14.5 -7.5t9 -12.5q4 -10 1 -18 t-7 -19q-33 -2 -41 -19.5t-7 -41t3 -48t-11 -40.5l-223 14l-7 -3q-7 -3 -11 -11l4 -47q2 -12 0 -33t-5 -41t-5 -39.5t0 -32.5l67 -8q20 10 32.5 14.5t23 6.5t23.5 3t40 3q49 27 86 17.5t71 -33t66.5 -51t73.5 -38.5q18 -6 45 -14t52.5 -10t47 6t27.5 37q47 10 96 22.5 t97 26.5l6 -31l92 31q53 -70 135 -84t158 10q18 6 21 19.5t4 29t5.5 29.5t24.5 20q23 0 35 3.5t33 27.5q6 2 19 0t28.5 -6t32 -7t28.5 -3q10 -10 31.5 7t21.5 40zM645 969q0 -39 1 -79t-5 -77t-21.5 -68.5t-48.5 -54.5q-16 -2 -28.5 -14t-24.5 -23.5t-26.5 -17.5t-32.5 6 q-29 41 -47.5 90t-14.5 96q27 -4 32 5.5t2 24.5t-6 32.5t9 30.5q8 12 20.5 28.5t26 28.5t30.5 17t36 -7q4 -4 12 -7t19 1q10 10 3.5 24.5t8.5 18.5q14 -2 21 -9t12.5 -16.5t10.5 -17.5t11 -12zM881 399q4 -4 -2.5 -11t-10.5 -7h-6l6 31q4 0 10.5 -1.5t2.5 -11.5zM676 121 h-377q12 23 0 37t-27.5 27.5t-24.5 27.5t7 37q-12 16 -12 33q0 16 6 32.5t14 33t12 32.5q18 20 47 53t60 52.5t58.5 12.5t43.5 -69l95 -135q-4 -10 -16.5 -15.5t-21 -11.5t-9.5 -14t16 -23q4 -2 11 -8t13.5 -10t11.5 -3t7 15l6 19q29 -23 52.5 -54.5t27.5 -68.5zM651 23 q0 -25 -17.5 -22t-31.5 3h-12q0 23 22 23q25 0 39 -4zM547 10q-43 -10 -87 -4t-81 35l6 12q12 -16 26.5 -17t30 1t30.5 3t30 -11l45 -6v-13zM489 356q-6 2 -9 11.5t-6 17.5t-6 9t-9 -13q-4 -14 8 -19.5t22 -5.5z" />
<glyph unicode="'" horiz-adv-x="647" d="M432 1362l-24 24q-31 -4 -64 -2t-65 2q-33 0 -63 -5t-54 -19l16 -612l33 -99q20 0 47 -3t54.5 -4t52 3t43.5 21zM831 -61q-16 10 -23 23t-12 27.5t-8.5 27t-11.5 20.5l-1040 -8q-18 -4 -27.5 -1t-9.5 -14q0 -10 12.5 -14t22.5 -5t12 -1q6 6 17.5 8t25.5 2t26.5 -2 t20.5 -8q-2 -12 -11 -17.5t-22 -5.5q-12 0 -23 3t-20 6l-10 7t-33 -3q-12 -4 -13 -11.5t3 -13.5t9 -12t10 -8q6 -4 36.5 -2t74.5 7t94.5 10t95.5 5q2 2 26.5 3t55 2t56 0t28.5 -5q25 0 28.5 -6t3.5 -10t5.5 -3t31.5 13q4 -6 9 -14.5t5 -14.5q-6 -18 -12 -19t-14 3t-15.5 10 t-15.5 0q-12 -10 -32.5 -12t-39 -5t-31 -10.5t-7.5 -27.5q39 -8 80.5 -7t82.5 7t83 16t81 19q-6 10 -16 10h-23q-10 0 -19 4t-11 20l41 27l-21 29q16 10 43 16t47 -10q16 12 31.5 9t31 -9t31 -9t31.5 9q27 -12 37 -12t17.5 3t16.5 2t34 -20q10 -16 5 -26.5t-16.5 -17.5 t-21.5 -12t-10 -13q25 -10 43 -8.5t36.5 10t38 16.5t43.5 8z" />
<glyph unicode="(" horiz-adv-x="778" d="M850 -109q0 18 1 37t1 37q0 16 -4 30.5t-17 20.5q-29 14 -43 15q-14 0 -26 -4t-29.5 -6.5t-48.5 10.5q-6 -6 -27.5 -9.5t-45 -4.5t-46.5 -1h-28q-18 0 -26.5 8.5t-11.5 20.5t-5 24.5t-7 22.5q-16 25 -23 53.5t-15.5 57t-21.5 54.5t-42 44q-4 20 -6 37.5t-12 34.5 q2 49 -1.5 102t-3.5 105q0 53 9.5 102t38.5 90q-10 10 -14.5 20.5t-4.5 30.5l88 254h8q14 -4 15 -16q0 -12 4 -23q4 0 11 1t7 5q4 39 25.5 72t43 65.5t35 67.5t5.5 76l-146 6q-16 -18 -20 -44.5t0 -49.5q-61 -117 -119.5 -232.5t-77.5 -250.5q-6 -12 -8 -27.5t-4 -29 t-7 -24.5t-20 -16l-12 64q-10 -4 -12 -12.5t-6 -12.5v-381l18 -32v6q2 2 6 8t9.5 12t11.5 8t12 -2q10 -59 28.5 -114.5t8.5 -108.5q-33 25 -37 19.5t2 -21.5t12.5 -37.5t-8.5 -29.5q-53 -2 -68.5 -3.5t-25.5 -1.5h-25q-16 0 -67 -2l-33 31q0 16 11.5 11t21.5 -5 q41 80 -19 51q-12 12 -27.5 10.5t-29.5 -6t-28.5 -3.5t-22.5 20q4 2 -9.5 3t-29.5 1t-28.5 -2t-4.5 -4q-25 -25 -34 -41t-7 -29.5t11.5 -29t19.5 -39.5q29 -12 44 -20.5t33.5 -11.5t47.5 -4t84 -1h231q10 -10 19.5 -21.5t5.5 -29.5q39 -53 69.5 -111.5t83.5 -91.5l7 55 q10 6 15 0t9 -6q10 -10 31.5 -11t25.5 17l-81 160l18 18q6 -18 34.5 -23t63.5 -5t69 1t50 -8q18 -18 23.5 -42.5t4.5 -51t-2 -52.5t7 -50q12 0 15 6t4 14.5t1 18.5q0 8 4 12q29 6 36 24.5t7 41.5t2.5 44t18.5 35zM995 -322q-29 0 -56.5 16.5t-51.5 35.5l-13 -58 q10 -10 17.5 -27.5t28.5 -17.5q8 8 20 11.5t23.5 8.5t20.5 11t11 20z" />
<glyph unicode=")" horiz-adv-x="894" d="M971 35q-23 37 -37 37t-37 -4q-12 4 -17.5 18t-23.5 10q-16 -16 -24.5 -20t-16.5 -4h-18q-8 0 -27 -4q-18 8 -32.5 7t-30 -4t-31.5 -3q-14 0 -33 12q6 43 19.5 83t24.5 82t17.5 86t0.5 93l6 174q-12 14 -13 37q0 23 -1 42t-11 32.5t-43 9.5q-14 41 -19.5 81t-15.5 77 l35 12q-23 104 -72 196.5t-108 184.5q-37 23 -86 18.5t-90 -8.5q-4 -39 8 -70.5t30.5 -60.5t36 -58.5t23.5 -62.5q2 -12 9 -20.5t14.5 -16.5t11.5 -16t0 -21q2 -12 6 -26.5t11 -24.5t17.5 -14t26.5 0q14 -23 27.5 -50.5t13.5 -58.5q4 -10 6 -24.5t-1 -26.5t-11 -19.5 t-22 -2.5l6 -326q-10 -39 -15.5 -80t-14.5 -81t-23.5 -78t-38.5 -68q-53 -4 -99.5 -5t-99.5 -1q-12 -4 -18.5 2t-11.5 12t-9 6t-10 -14q-10 6 -23.5 3t-26 -6t-23.5 -1t-17 20q-18 10 -29.5 2t-24.5 -12q-72 -6 -110.5 -4t-61.5 2t-39 -9.5t-41 -39.5q-10 -39 2.5 -55.5 t61.5 -24.5q25 4 46.5 -2t42 -10.5t39.5 2t40 34.5q20 -12 27.5 -27.5t9.5 -31.5t4 -33.5t14 -34.5q14 10 31.5 23.5t21.5 32.5q10 -4 17.5 -13.5t7.5 -23.5l-25 -6l50 -37q10 -8 29.5 -18.5t29.5 8.5q-16 18 -13 31.5t13 25.5t23.5 24.5t19.5 26.5q-25 12 -22.5 19.5 t13.5 12.5t25.5 12t14.5 22q23 0 38 -27t29 -49q-6 -23 -23.5 -42.5t-31.5 -41t-19.5 -45t13.5 -51.5l96 -6q18 12 28.5 36.5t14.5 46.5q18 4 19 -2q0 -8 -4.5 -20t-5.5 -25.5t16 -19.5q41 51 68.5 103.5t64.5 103.5l18 6q18 -18 39 -21.5t42.5 1t42 13.5t38.5 13 q39 -2 72 -2q35 0 62.5 6t45 23.5t21.5 48.5zM-51 -117q-10 14 -21.5 16.5t-21.5 2.5q-18 -14 -8 -27.5t20 -28.5q-10 -12 -6 -22t9 -19.5t8 -18.5t-5 -24h13q10 33 4 60.5t8 60.5zM-4 -322q4 10 2 24.5t-21 10.5v-59h13q6 6 6 24zM-63 -420q0 4 2 14.5t-9 10.5l-6 -25 q0 -4 6 -4q7 0 7 4z" />
<glyph unicode="*" horiz-adv-x="849" d="M772 883q20 25 21 63q0 41 -21 62q-66 4 -125 8t-104 39q-6 14 -8.5 27.5t14.5 23.5q20 23 55 33t65.5 21t47 30.5t-3.5 60.5q6 16 20 17q16 0 33 4q0 39 -33 59q-45 4 -82 -10t-57 -49q6 -4 15 -3t20 1q10 0 17 -3t7 -16q-18 -12 -38.5 -28.5t-40 -31.5t-41 -24.5 t-44.5 -7.5q-20 20 -17 47t3 54q25 6 37 25.5t16 45t4 51.5q0 29 3 54q-16 12 -39 16t-47 4q-25 0 -50.5 -1t-48.5 1q-10 -12 -12 -27.5t-1 -33t2 -33.5t-1 -31q0 -29 17.5 -48t41.5 -23q0 -27 2 -53.5t-8 -47.5q-29 -2 -52.5 7.5t-45 24.5t-42 33.5t-38.5 35.5q2 6 9 7 t16 1h16q10 0 18 4q-20 25 -51 47t-76 12q-25 4 -33 -13.5t-12 -33.5q4 -14 17 -14q12 0 22 -4q10 -8 9 -16.5t-6 -17.5t-7 -19.5t4 -20.5l193 -92l6 -27q-18 -37 -53 -43t-75 -4t-77 0t-59 -31q-12 -29 -8 -50t14 -40.5t22.5 -37t18.5 -38.5q39 -20 67.5 -11t54 27.5t50 38 t57.5 19.5v-20q-20 -41 -18 -89.5t12 -88.5q45 -4 95 -7.5t96 7.5l-7 198q23 2 43.5 -10t42 -28.5t46 -30t53.5 -11.5q31 2 40 24t19 36zM700 45l-26 6q-4 -10 9 -13t17 7zM670 45q-10 4 -25.5 1t-19.5 -13q4 -6 9 -15.5t15 -5.5q6 4 15.5 10.5t5.5 22.5zM1225 -14 q-41 0 -70 8t-70 18q-4 10 -12 13.5t-26 13.5q-10 10 -23.5 2t-24.5 -8q-53 10 -115.5 11t-121.5 1q-14 0 -19.5 -6t-5.5 -16q0 -8 3 -18.5t3 -18.5h-503l-21 14q25 4 50.5 16.5t54.5 -4.5q8 18 16 19.5t17.5 -2.5t19.5 -7.5t20 3.5q29 -14 58.5 -10.5t58.5 13t57.5 17.5 t55.5 0l-33 14q-35 -4 -73 0t-75.5 8.5t-75.5 7.5t-73 -3l-176 -27q-35 12 -74 14t-78 2q-41 0 -80 2.5t-73 14.5q-14 6 -25.5 2t-23 -9t-21.5 -7.5t-22 8.5l-33 -45q18 -12 21 -27.5t11.5 -28t33 -20.5t85.5 -10q37 -29 74 0q12 0 16.5 -7.5t6.5 -16.5t6 -16t16 -7 q0 27 14.5 36t33 10t39 0t32.5 7q55 -4 119.5 -7t117.5 13q10 0 19.5 -6t16.5 -11.5t15.5 -7.5t14.5 4q33 6 35 8.5t-2 2.5q-2 0 0 -1t33 -1q18 6 27 5t18.5 -2t19.5 -1t31 10q55 -10 142 -22.5t178 -17.5t171 1t121 31q2 0 16.5 1t32 9t19.5 31zM1006 0q0 -10 -7.5 -9 t-11.5 1q-6 2 -4 7t6 7t9.5 1t7.5 -7zM907 -8q-4 -4 -14 -3t-6 17zM180 -8h-112q10 16 17 28.5t28 12.5q20 -6 40.5 -13.5t26.5 -27.5zM-98 6q-4 -20 -22.5 -19t-29.5 5l-14 14q10 10 33 12t33 -12z" />
<glyph unicode="+" horiz-adv-x="1265" d="M1659 33q-20 16 -34.5 7t-25.5 -20l21 -6q10 0 24.5 2.5t14.5 16.5zM1638 -117q6 6 5 16.5t-11 10.5q-4 -10 -16 -16.5t4 -16.5q4 0 9 -2t9 8zM1548 -109q-16 4 -25.5 -9t5.5 -17l15 10t5 16zM1034 702q-4 45 2 93.5t-14 89.5h-293q-18 -2 -26.5 6t-9.5 21.5t-1 27.5 q0 16 -2 29q-35 10 -41 33.5t-4 52t5 57.5t-11 51q-39 0 -77 4t-66 29l-13 -27q6 -6 33 -6q14 -39 12 -83t-12 -79q-29 0 -35 -14t-4 -34.5t1 -40t-21 -27.5h-312l-18 -21q0 -23 -3 -48t-4 -50t4 -47.5t21 -36.5h312l20 -18v-293l19 -13q49 4 102 -1t92 14v293l21 18h311z M1464 61q-23 -2 -63 -2q-39 0 -82 -1t-79 -4t-48 -13q-23 18 -42.5 16t-39.5 -8t-39.5 -9t-42.5 13q-12 -10 -23.5 -7t-21.5 7t-21.5 7t-23.5 -7q-4 -16 -1 -22t13 -11q-29 -14 -67.5 -10t-73.5 4q-10 20 -33 21q-23 0 -33 -21q-10 33 -27.5 37t-38 -1t-43 -9t-40.5 12 q-12 -10 -29 -10q-14 0 -30.5 3l-33 6t-30.5 1l-53 -26q-55 2 -107 2q-49 0 -105 -1t-121 -3t-146 -5q-18 6 -26.5 0t-8.5 -16q0 -8 8 -17.5t22 -9.5q16 -2 28.5 0.5t23 4.5t24 1t31.5 -8q41 20 79 5t77 -25q18 -6 35.5 -4t36 5t34.5 2t31 -15q166 10 353 9t368 3 q12 -14 29.5 -12t36 4t34.5 -3t29 -34q18 -6 32.5 -4t30 6t29.5 8t33 2q33 0 38 1t9 1t19.5 1t68.5 1q20 4 32.5 19.5t15.5 35t-4.5 41t-23.5 39.5z" />
<glyph unicode="," horiz-adv-x="616" d="M709 41q-4 10 -15.5 7t-11.5 -13q0 -12 14 -12q10 0 9.5 7t3.5 11zM813 6l-131 4l-37 6l12 7q0 4 5.5 12t-5.5 12q-10 0 -22 2t-17 -8l19 -31q-35 -2 -34 -3t9 -1t10.5 1t-28.5 3q-10 4 -12 9.5t-2 9.5v12t-7 12q-16 8 -17 4t2 -13t7 -19.5t-4 -14.5q-35 -2 -46 -3 t-19 -1t-19.5 1t-42.5 3q0 27 12.5 35t31 9t40 0t37.5 5v11q-23 0 -48.5 2t-41.5 16v262l-12 12h-205l-27 -22l6 -221q33 -2 35 -12.5t-7 -23.5t-20.5 -27.5t-1.5 -26.5q-14 -10 -34 -11q-18 0 -29 11l6 30l-45 4q-12 0 -15 -6t-4 -14t-4.5 -14t-15.5 -6q-66 0 -83 1t-13 5 t18.5 12t12.5 20q-23 0 -35 2.5t-23.5 4.5t-23 5t-31.5 5q-20 0 -28.5 -13.5t-9.5 -32t0 -38t-1 -33.5l113 -18q41 -8 47 -2t6 14t7 12t48 -4l25 -31l16 -8t7 0t8.5 6t17.5 9q18 -4 19 -21.5t6 -32.5q16 -16 34.5 -17t38 4l39 10t37.5 3l57 78q14 -2 27.5 1l27 6t27 4 t27.5 -5q20 6 16 6q-2 0 -10 -3t-12 -3t12 6q55 -6 84 -8t51 -2h51q29 0 82 -4q25 0 30 11.5t2 21.5t-3 12zM92 63q-4 8 -12 9.5t-14.5 -1.5t-8.5 -10.5t2 -13.5q10 4 21.5 6t11.5 10z" />
<glyph unicode="-" d="M719 616q6 43 7 101.5t-21 101.5h-515q-23 -43 -20.5 -101.5t14.5 -101.5h535zM930 -115q27 -6 34 19.5t4 58.5t-14.5 62.5t-23.5 31.5l-1002 15q-10 -2 -23.5 -19.5t-19.5 -37t0 -38t37 -20.5q37 -25 56.5 -24t35 12.5t36 24t56.5 12.5q12 6 26.5 2t30 -8.5t30 -5.5 t26.5 12q20 -12 45 -10.5t49.5 7t48.5 5.5q25 0 50 -19q20 18 41.5 14t43 -17t41 -31.5t37.5 -28.5q14 -8 43 -6t64 8t73 13t72.5 8t62.5 -7t40 -33zM-520 86q-10 0 -26.5 -2t-16.5 -18q8 -8 28 -9q6 6 13.5 15.5t1.5 13.5z" />
<glyph unicode="." horiz-adv-x="763" d="M915 -72q23 -8 29 0.5t3 30t-13 53t-23 70.5l-307 -4v225l-31 21h-313l-41 -41v-209l-375 -4l4 -47q2 -29 18.5 -47.5t42 -28.5t56.5 -13.5t62 -3.5q14 -4 27.5 -2t28.5 5.5t30 3.5q16 0 34 -9q25 18 28 24.5t3 8.5l6 -1t35 3v-45l21 -20h333l31 20v47l35 -6 q20 -45 52 -47t70 8t77.5 19t76.5 -11z" />
<glyph unicode="/" horiz-adv-x="843" d="M926 -66q6 61 7 86t-5 33t-19.5 6t-31.5 7q-35 2 -56.5 -1.5t-40 -6.5t-37 0t-49.5 20q-57 0 -115.5 -2t-111.5 -2t-97 2t-75 10q16 33 23.5 67.5t33.5 61.5l43 -43q39 82 77 168t60 178q-41 20 -40 45q0 27 15 54.5t33.5 56t12.5 59.5q0 25 12.5 38t29.5 21.5t36.5 15.5 t36.5 17q25 74 56.5 144.5t62 142.5t55 146.5t35.5 154.5q-49 6 -110.5 9t-104.5 -23q-53 -152 -118 -294t-112 -294l49 -20q-8 -76 -63 -144q4 -33 -12.5 -59.5t-38.5 -48.5q-2 -43 -16.5 -83t-32 -79t-34 -79t-24.5 -83q-23 -12 -29 -38.5t-12 -50.5t-19.5 -39t-47.5 -7 q-27 -14 -56.5 -15.5t-59.5 4t-60.5 11.5t-61.5 6q-27 -10 -37 -10q-12 0 -17 -6.5t-10.5 -25.5t-19.5 -69q4 -47 13.5 -65.5t47.5 4.5q8 -8 16.5 -7t15.5 3t15.5 3t16.5 -7q-10 -33 -12 -42t0 -15.5t6 -18.5t6 -49l186 -8q20 18 14.5 32.5t-24 25.5t-43.5 21.5t-43 19.5 t-23.5 19.5t13.5 22.5q20 -23 34.5 -17.5t27 18.5t25.5 24.5t36 3.5q33 -23 64.5 -24t62 6t61.5 14.5t64 1.5q27 -10 63.5 -28.5t72.5 -38t65.5 -40t41.5 -37.5q23 4 42.5 22.5t29.5 35.5q10 -4 19.5 -14.5t9.5 -20.5l-29 -8l51 -52q8 -2 18.5 -7t20.5 -8t18.5 -2t14.5 11 q-18 20 -15 36.5t16 30t30.5 27t25.5 29.5l-28 43q4 10 21.5 9t27.5 5zM358 -160q-10 16 -25.5 15.5t-31.5 -0.5q-16 -10 -2 -29t25 -29q-14 -16 -11.5 -29.5t10 -25.5t10.5 -24.5t-9 -28.5h14q8 18 9 36.5t1 36.5t1 36.5t9 41.5zM416 -412q0 16 -3 34t-26 18v-80h14 q6 6 10.5 12t4.5 16zM344 -526q-4 10 0 23.5t-6 13.5l-8 -37q0 -4 4 -4q6 0 10 4zM84 -184q6 -4 2 -12.5t-8 -8.5h-15q1 21 21 21z" />
<glyph unicode="0" horiz-adv-x="1087" d="M1227 -29q-53 8 -88 10.5t-67 1.5t-68.5 -2t-94.5 3q-12 10 -9 18t12.5 15.5t18.5 16.5t9 21q-6 16 -2 33.5t11 35t10.5 33t-5.5 27.5l-20 -6q-12 10 -14 20.5t1 21.5t8 21.5t5 20.5q37 0 65 21l-51 30q-6 57 -4 119t2 123t-6 119.5t-25 111.5q0 10 5.5 13.5t12.5 4.5 t15 1t13 2q4 43 -9.5 80t-23.5 76q-14 49 -44 89t-70 71.5t-88 53t-97 31.5q-18 4 -31.5 -9t-13.5 -30q-18 -14 -48 -12t-49 12q-6 29 -21 33t-35.5 -3t-42 -16t-38.5 -7q-102 -59 -156.5 -164t-68.5 -211q37 -14 42 -38t-1 -51.5t-16.5 -56t-6.5 -55.5l-32 25 q-4 -18 -6.5 -44t12.5 -46q10 0 16 1t10 11q14 -47 11.5 -107.5t1.5 -117.5q14 -8 16 -18.5t0 -23t-5 -25.5t3 -26q0 -14 9 -19t19.5 -9t17.5 -9.5t5 -19.5q-14 -6 -24.5 -21.5t-19.5 -28.5t-21.5 -20.5t-30.5 4.5q-25 10 -54.5 9.5t-50.5 -15.5q-45 0 -76.5 -16t-72.5 -35 q-47 -20 -41 -67q10 -16 9 -25.5t-3 -13.5t0 -4l14 2q41 6 62 6q20 0 38.5 -5t41 -11.5t65.5 -10.5q29 8 58 8q31 0 59.5 -4t58 -8t58.5 -2q33 6 70.5 5t75.5 -2t75 -1q39 0 76 10q39 -6 82 -8t86 -2h84q43 0 80 -2q18 6 58 8t83 2t82 2t55 11l16 3q15 4 13 31zM817 639 q-6 -43 0 -95t7 -102.5t-12 -92.5t-58 -66q4 -8 12 -9.5t15 -2.5t14.5 -3t9.5 -12q-4 -12 -9 -25.5t-11.5 -23.5t-17.5 -13.5t-28 3.5q-14 -18 -23 -45t-21.5 -48.5t-32 -34t-52.5 -1.5q-29 -14 -55.5 -1t-54.5 13q-10 2 -19.5 0t-19.5 -5t-19.5 -4t-19.5 3q0 16 14 16t19 4 q-25 0 -42.5 18.5t-41.5 14.5q14 29 2.5 42t-29.5 22.5t-33.5 20.5t-11.5 38q-10 63 -17.5 129.5t-0.5 136.5q20 -4 29 5t12.5 24.5t2.5 34t1 32.5q-27 12 -34 32t-4 43.5t8 47t3 45.5q8 12 17.5 11.5t18.5 -3t18 0t18 18.5l39 129q12 12 31.5 24.5t36 25.5t24.5 30.5 t-2 42.5q29 16 54.5 -0.5t29.5 -44.5q37 -16 60.5 -43t39.5 -58.5t30.5 -64.5t30.5 -62q35 6 45.5 -10t11.5 -40.5t1 -53.5q0 -27 14 -43zM766 -68q0 -10 -11.5 -9t-21.5 1q0 10 14.5 11t18.5 -3zM623 35q-2 -14 -11.5 -21.5t-19.5 -11.5t-21.5 -8t-19.5 -10q-6 0 -15.5 1 t-15.5 4t-9 8t1 13q20 -10 31.5 -1t21.5 20.5t22.5 16.5t35.5 -11zM182 -16h-18l-8 26q10 4 16 -3t10 -11v-12zM53 -10q4 -10 -6 -8t-20 2l6 18z" />
<glyph unicode="1" horiz-adv-x="745" d="M1161 55q0 4 -7 7.5t-11 -1.5q-10 -4 -7 -14t13 -10t11 4t1 14zM465 686q-4 8 -22.5 10t-14.5 19q10 10 18.5 15t18.5 9q8 14 4 24.5t-13.5 19t-18.5 17.5t-9 23q4 12 5 25.5t3 27t7.5 23.5t21.5 14q0 14 -10.5 24.5t-14.5 23.5v251l25 37l-6 13q-16 0 -36 2t-40 2 t-38.5 -5.5t-29.5 -17.5q10 -10 24.5 -11t10.5 -20q-29 -27 -57.5 -57.5t-58 -60t-60.5 -55t-63 -42.5q-10 -4 -13.5 -14t-6.5 -19.5t-9 -11.5t-19 9q-10 -4 -8 -10.5t6.5 -12.5t8.5 -14.5t0 -16.5q51 -35 106 -6q0 18 7 36.5t30 23.5q10 -10 13 -24.5t-1 -29.5q8 23 17 23 q10 0 20 -9.5t21.5 -20.5t25.5 -11q0 -12 3 -31.5t2 -36t-10 -29t-32 -12.5q-10 -23 1.5 -39t29.5 -20l-31 -41q31 -6 36 -30.5t3 -50.5t3 -48.5t36 -26.5q6 14 19.5 17.5t25.5 3.5t23.5 2t15.5 18q-4 35 2 63.5t29 57.5zM471 326q0 12 -5 15t-13 3h-15q-6 0 -10 6 q-2 10 5 14.5t14.5 6.5t13.5 3t4 5l-25 24q6 18 1 33t-13 29t-10 26.5t10 26.5q-31 4 -56.5 -14.5t-56.5 -28.5q-4 -12 -5 -29.5t-4 -32t-11 -24.5t-29 -10q10 -10 24.5 -7t18.5 -12l-18 -34l24 -19q-20 0 -30.5 -11t-13.5 -26.5t0 -33t8 -31.5l55 -6q12 14 29.5 15t33.5 1 q18 0 36 2t32 19q0 14 3 34.5t-15 30.5zM948 31h-24t-4 -2l-4 -1q-5 -1 -27 -1q-20 0 -66.5 1t-130.5 3v18q-16 18 -32.5 46t-2.5 57h-36q0 -4 4 -7.5t9 -6.5t7 -7t-2 -10q-29 23 -65.5 29t-77.5 2q-31 25 -65 27.5t-68.5 -3.5t-69.5 -15t-68 -9q-18 -10 -33.5 -8.5t-28.5 4 t-27.5 1t-31.5 -15.5q18 -6 37 -5t36.5 4t33.5 3t33 -8q10 -16 21 -13t24.5 11t28 16.5t32.5 3.5q8 -31 30.5 -38t47.5 -7t48.5 -2t35.5 -24q-16 -18 -38.5 -23.5t-49.5 -5.5q-25 0 -48.5 1t-41.5 -3q-35 -2 -98.5 -3t-133.5 -1q-68 0 -130 -1t-95 -3q0 -6 -1 -19.5 t-1 -25.5t3 -20.5t13 -8.5q12 2 25.5 0t26 -4t24.5 -2t27 6q14 -4 33 -4h41q23 0 43 -1t39 -7q35 18 70.5 5t66.5 -24q18 -4 35.5 -2t35 5.5t31.5 3.5q16 0 31 -13q82 4 114.5 10.5t56 11.5t60.5 10t129 7l82 -20q18 0 37 -1t33 6t19 25.5t-3 57.5zM94 133h-12l-6 -6z M303 973q-18 -14 -39.5 -11t-44.5 -1q2 18 10.5 26t19.5 9t23.5 -1t24.5 -4q12 -12 6 -18zM573 121q0 -12 -5 -24.5t-19 -22.5q-14 -4 -18.5 8t-0.5 22q-4 16 12.5 18.5t30.5 -1.5z" />
<glyph unicode="2" horiz-adv-x="1048" d="M938 797l-29 24q-4 35 -9 67t-9 62q-12 4 -17.5 14.5t-7.5 22.5t-5 23.5t-11 17.5q8 10 14 6t12.5 -10t13.5 -10t19 8q0 12 -5 27.5t-19 25.5q-23 -4 -42.5 1t-38 15.5t-33.5 23.5t-28 26q4 8 13.5 9t17.5 1q10 0 18.5 2t10.5 10q-78 41 -158 52.5t-168 7.5l-24 -19 l24 -35q-59 -18 -112.5 -62t-100.5 -79q10 -18 4 -32.5t-16 -30t-16.5 -29.5t4.5 -33q14 4 29.5 9.5t29.5 -9.5q-6 -18 -21.5 -21t-30 -4t-25.5 -8.5t-11 -31.5q4 4 11 1t11 11q14 4 34 5t20 -17q-4 -10 -12.5 -13.5t-18.5 -2.5t-20.5 2t-18.5 -3q16 -14 35.5 -21t46.5 3 q6 4 6 10q0 8 -1 15.5t0 13.5t13 8q4 49 19.5 93t50.5 79l100 6q0 8 -6 19.5t6 15.5q14 10 27.5 1t26.5 -13q20 27 42.5 28.5t47 -7.5t48 -23.5t46.5 -20.5q2 -10 8 -10h15q8 0 13 -3t5 -18q-6 -8 -3 -24.5t5 -31.5t-1 -26.5t-24 -11.5q-6 -12 -4 -19t10.5 -10.5t18.5 -5.5 t16 -6q2 -14 -6 -21t-17 -13.5t-17.5 -14.5t-6.5 -22q4 -31 21.5 -36t39 -1t45 8t42.5 -6q14 4 33.5 9t19.5 32zM926 690v35q-18 14 -37 13t-38.5 -6t-38.5 -11t-40 -2q-23 -43 -40 -86t-48 -78l6 -6q27 12 58.5 26.5t54.5 32.5q-4 -4 -9.5 0t-9.5 4q-4 4 -4 15q0 10 4 10 q8 6 15.5 4t12.5 -7t10 -12.5t9 -9.5q18 14 24.5 36t29.5 30q14 4 25.5 -1t15.5 13zM1223 18q2 2 3 13.5t1 23.5t-1 21.5t-3 9.5q-14 14 -27.5 7t-26.5 -7q-29 14 -65.5 13t-73.5 -2t-69.5 4t-57.5 32q-104 -4 -201.5 -6t-201.5 6q-12 8 -10 15.5t8 13.5t12 13t2 18 q18 8 34.5 23t35 30.5t39 26t45.5 10.5q-4 14 -13.5 18t-20.5 2t-22.5 -3t-19.5 5q41 53 92 106.5t96 100.5q6 0 10.5 -5t7.5 -10t7 -6.5t10 5.5q-18 25 -12 33t21.5 13t31.5 9t18 20q-12 4 -18 -6t-16 -10q-23 18 -42.5 13t-38 -16t-38 -21.5t-41.5 -6.5l-238 -225 q-16 18 -43.5 10t-31.5 -20l12 -6q10 -14 8 -24.5t-11 -20t-19.5 -18.5t-14.5 -21q-12 -8 -19.5 -5t-10.5 10t-5 15t-6 10l-166 -131q-23 8 -53.5 11.5t-64 5.5t-64.5 3t-51 3q-25 -10 -39 -10t-25.5 2t-24 1t-34.5 -12q-2 -10 -7.5 -32.5t-5.5 -46.5q0 -25 6.5 -42.5 t24.5 -17.5q16 -2 24.5 -11t14.5 -18.5t15.5 -14.5t29.5 1l125 -4q47 8 96.5 21.5t98.5 -5.5l59 -41q14 -6 26.5 -3t23.5 8.5t22.5 9.5t27.5 -2q18 -14 36 -13.5t35 5t34.5 7.5t36.5 -5q8 14 4 31.5t14 27.5l426 12l6 33q18 8 30.5 7t25 -6t23.5 -8t28 1q2 20 10 22t19.5 -3 t23.5 -9t25 2q8 10 19 9t22.5 -4t24 -4t22.5 9zM-20 293q-10 12 -26.5 16t-35.5 4q-18 0 -34.5 -3t-28.5 -5q12 -10 29.5 -14t35.5 -4t34 2t26 4zM537 1188q-4 -4 -11.5 2t-7.5 14q18 0 19 -10v-6zM844 702q0 -18 -16.5 -17t-24.5 -7q-4 14 11.5 29t29.5 -5zM246 139 q0 -10 -13 -10l-6 16q4 0 9.5 -3t9.5 -3zM164 -2q-33 0 -69 -7t-62 7q6 2 5 5t-5 7t-8.5 7t-4.5 6q18 27 51 33.5t56 29.5q18 4 25.5 -10.5t11.5 -24.5v-53zM-49 39q-4 -4 -3 -10t-3 -6q-14 16 -35 17t-31 23q16 10 42 7.5t30 -31.5z" />
<glyph unicode="3" horiz-adv-x="1177" d="M963 842q-10 -12 -13.5 -27.5t6.5 -26.5q4 10 14.5 28t-7.5 26zM1300 326l-18 6q-35 -18 -76 -29.5t-73 -26.5q41 -8 80.5 5.5t80.5 31.5zM1274 137q-14 6 -24.5 8t-18.5 5.5t-15.5 9.5t-15.5 22v-37h-31q-18 -4 -31.5 12.5t-4.5 30.5l-48 -47l-141 -6l-12 12 q33 47 69.5 60.5t77.5 13.5t86 -4t95 6q-12 16 -30 20.5t-39.5 3.5t-42 -2t-38.5 3q-10 -2 -17.5 2t-15.5 8t-15 3t-13 -13q-18 6 -26.5 4t-15 -5t-15.5 -5t-29 8q0 12 7 24.5t17 22.5l19 -12q4 29 7 67.5t-1 77.5t-20.5 74t-53.5 57q-4 -10 -1 -19.5t7 -19.5t5 -18t-11 -15 l-113 101q10 23 27.5 39t13.5 39q-14 4 -22 -4.5t-19 -18.5q-10 -4 -23.5 0t-13.5 19q72 35 108 107.5t36 143.5q-8 86 -54.5 148.5t-113.5 107.5q-4 14 3 31t-13 31q-12 2 -14.5 -2t-3.5 -11.5t-3 -14.5t-10 -9q-41 0 -83 11.5t-73 43.5l-12 -30q-18 -29 -26.5 -24 t-17.5 18.5t-21.5 24.5t-36.5 -7q-35 -10 -68 -27.5t-61.5 -42t-50 -55.5t-29.5 -68q-2 -16 -9.5 -31.5t-12.5 -30.5t-5 -32q0 -16 14 -31q41 -18 81 -33.5t81 3.5q2 29 16.5 55.5t33 50t39 47t36.5 45.5l25 -6q14 4 21 17.5t22 23.5q49 14 92 -5t76 -54q29 -23 39 -53.5 t12 -64.5t0 -70.5t2 -69.5l-25 -31l-34 31q-10 -23 -30 -37t-39.5 -27.5t-31.5 -30t-8 -42.5q-35 -4 -78 -7.5t-78 7.5q-4 -12 -9 -25.5t-6 -26t3 -25t18 -20.5q14 12 26.5 6t23 -13t19.5 -8t22 21q10 -2 8 -8t-5 -12t-4 -11t13 -5q27 23 44 16.5t33.5 -24t34 -35 t44.5 -17.5q8 0 10 13.5t6 21.5q12 6 18 2t11.5 -14.5t10.5 -22.5t15 -18q16 -45 17.5 -98.5t1.5 -100.5q-23 -6 -24 -16.5t3 -22.5t6 -24.5t-16 -20.5q-29 -23 -65.5 -32t-74.5 -13t-77 -10t-72 -23q-12 -8 -21.5 -4t-16.5 13.5t-12 19.5t-9 14q-6 -12 -17 -12q-8 0 -17 4 t-19.5 11.5t-18.5 9.5q-27 18 -26 29.5t13.5 20.5t26 19t11.5 27l-56 10q-8 2 -11 10.5t-4 16.5t-5 13t-14 3q-23 -18 -47.5 -25.5t-43.5 25.5q-14 -4 -25 -11t-11 -26q-8 -12 -16.5 -13t-15.5 5t-14.5 14.5t-13.5 12.5q-14 -14 -28.5 -24.5t-36.5 -6.5q-12 16 -28.5 22.5 t-35 7.5t-37 0t-32.5 1q-16 0 -24.5 -8.5t-11.5 -18.5t0 -20.5t11 -12.5l80 -37q12 4 12 11q0 6 -4 11t-6 11t10 10q53 18 88 -18q33 14 62.5 24.5t70.5 -6.5l54 -108q-14 -4 -28.5 2t-19.5 -8q4 -14 13.5 -23.5t-0.5 -23.5q-33 -4 -57.5 14t-57.5 33q-10 -10 -12 -17.5 t-13 -11.5q-23 23 -61.5 27t-69.5 -11l-6 -6q8 -12 22.5 -15t30 -2t32 3t30.5 -2q0 -18 -9.5 -26.5t-22.5 -12.5t-27.5 -7t-24.5 -9q-25 0 -29 -1t-2 -1l-2 2t-22 8q-16 -4 -24.5 -7t-13.5 -9.5t-9.5 -14.5t-10.5 -22q6 -37 19.5 -40t42.5 3l1132 10l31 -25q12 16 27 17 q16 0 32.5 -4t32.5 -4t33 16q31 14 42 36.5t12 47t-5 50t-10 48.5zM477 698h-18l-6 -18zM82 344q-10 14 -24.5 6t-18.5 -16l6 -12q10 4 23.5 7t13.5 15zM172 166q-4 4 -7 13t-18 9q-4 -14 -3 -27.5t16 -13.5q4 0 8 7.5t4 11.5zM-2 135v6q0 4 -1 11.5t-11 7.5l-6 -13 q0 -4 7 -10t11 -2zM-45 98q-10 14 -22.5 12.5t-12.5 -12.5q-4 -8 2 -14t15 -2q4 0 11 4t7 12z" />
<glyph unicode="4" horiz-adv-x="1048" d="M1210 258q-18 14 -40.5 29.5t-51.5 1.5q0 -10 2 -14.5t-2 -4.5q-14 -4 -23.5 -1t-19.5 7q-74 -14 -157 -14q-84 0 -162 14q0 25 17.5 32t41 5t50 -4t44.5 4q0 14 5.5 25.5t10.5 24t7 25.5t-4 30q-31 10 -49 -19q-29 0 -65 -3t-58 16q4 31 0 66.5t-4 68.5q0 35 8 62.5 t39 41.5v613q-23 18 -63 15t-72 -3q0 -29 -14.5 -35t-33 -7t-36 -5t-21.5 -27q-2 4 -3 13.5t-2 19.5t-6 18.5t-13 10.5q-78 -147 -156 -293t-156 -289l-6 -43l37 -12q-23 -66 -61.5 -129.5t-67.5 -128.5q-4 -29 3 -51.5t-3 -41.5q59 -20 111 0q0 10 8 23.5t22 13.5 q4 -4 10 -4h15q8 0 13 -3t5 -11q-4 -10 -12 -3t-18 3q-4 -4 -7.5 -12.5t0.5 -12.5q37 0 69 -4t60 -8q10 -23 2 -48.5t-26 -25.5q23 -14 49.5 -17t54 -2t56.5 1t53 -6q49 -98 -12 -160q-25 0 -43.5 6t-40.5 6q0 16 -6.5 27.5t-10.5 32.5q-14 29 -49 30.5t-63 -12.5 q-14 -6 -19.5 -14t-9.5 -13.5t-14 -5.5q-8 0 -29 6q0 16 -11.5 29.5t-29.5 18.5q-27 2 -62.5 5t-72.5 2t-69 -6.5t-52 -19.5q16 -14 32.5 -16t35 1t37 7t36.5 2l-47 -61q-39 2 -83 3t-103 -3q-16 -18 -20.5 -36t24.5 -46q20 -10 52 -14.5t63 -4.5q33 0 59.5 2t38.5 4 q98 4 177 -6t169 -10q-4 -12 -11 -24.5t-16 -24.5q14 -29 40 -33t55 -4q25 25 51 49.5t47 52.5q25 -4 46 -12t45 -11t47.5 1t49.5 24q-8 4 -14 19.5t-10 38.5h41q-6 14 2 26.5t-11 22.5l-43 -12q-6 31 -9 64.5t-5 63t-2 52.5t4 33l211 -4q27 8 53 8q29 0 54.5 -3t52 -6.5 t55.5 1.5zM1300 -57q-27 2 -32.5 19.5t-8 33.5t-6.5 26.5t-24 -4.5q-18 -6 -29.5 -10t-18.5 -6t-15.5 -1t-20.5 1q2 -4 2 -6t2 -6q-29 8 -56.5 4t-58.5 4l-16 -2l-47 -2q-18 8 -31 0l-18 -2l24 -33l19 18q33 -4 64.5 -3t57.5 -11q16 8 32 9t32 -3q0 -2 1 -4t1 -6zM940 92 q4 4 -2 5t-10 1v-18h6q4 0 7 4t-1 8zM885 86l-22.5 9t-24.5 5t-21.5 -5t-11.5 -21q12 4 24.5 0t22.5 -7.5t19.5 -1t13.5 20.5zM922 -8l-54 43l-16 -45zM-78 98q-6 0 -17 2t-20 2q-10 0 -17 -4t-7 -18q0 -10 8 -16.5t22 -2.5q10 4 20.5 13.5t10.5 23.5zM-164 104 q-4 14 -19.5 5t-4.5 -23q4 0 16 2t8 16zM639 418l-18 -19l-306 -6q-6 6 -17 7t-22 1q-10 0 -20 2.5t-14 14.5q29 55 55.5 106t54.5 103q37 -6 57.5 9t33 39.5t19.5 52.5t19 46q45 55 59.5 118.5t24.5 133.5q0 14 3 31.5t9.5 33t18.5 23.5t31 4q10 -111 10 -221 q0 -111 -4 -221q-4 10 -21.5 8t-21.5 -20q0 -10 4 -17.5t14 -7.5l25 6zM627 270q-23 2 -49.5 -1t-51 -4t-46 6.5t-36.5 29.5q88 20 177 0q4 -4 5 -12.5t1 -18.5zM684 -14h-22q4 20 4 28zM444 55q-2 4 -8 11.5t-9 14.5t-2 12t13 5q14 -10 8 -21.5t-2 -21.5z" />
<glyph unicode="5" horiz-adv-x="1222" d="M1522 127q-12 -4 -23.5 -3t-21 2t-19.5 1t-18 -6q8 -12 18 -12t19.5 3t18.5 4t20 -7q0 4 3 6t3 12zM1483 -20q-2 37 -10.5 65.5t-38.5 24.5q-27 10 -54.5 11t-55.5 0t-54.5 -4t-50.5 1v-21q12 -2 24 3.5t24.5 8.5t22.5 1t17 -19l-7 -12q-14 -4 -34.5 -11.5t-34.5 11.5 q-18 -12 -28.5 -5t-18.5 18t-17.5 20.5t-23.5 5.5l24 -27q-4 -4 -9 -8t-15 -4q-23 18 -40.5 25.5t-17.5 31.5q-14 -20 -37.5 -14t-43.5 2q-14 -4 -26.5 9t1.5 28q10 80 9 171t-34 163l43 18q-14 39 -31.5 72t-56.5 61q-41 45 -97 64.5t-119.5 21.5t-125 -8t-110.5 -27 q-12 27 -13.5 57.5t3 62.5t11.5 63.5t11 62.5l485 6q23 37 20 88.5t-7 94.5q-176 4 -352.5 7t-346.5 -7q4 -141 -11 -276.5t-15 -272.5v-70q18 2 25 -6t10.5 -21.5t6.5 -26.5t15 -22q25 -16 41 -12t28.5 17.5t23.5 30t26 28.5q39 -12 67.5 -3t56 21.5t56.5 20.5t66 -6 q33 -25 75 -25q45 0 82 -14q35 -66 44 -144t7 -159q-2 -33 -17 -47.5t-36.5 -18.5t-46.5 -4q-23 0 -39 -4q8 -12 22.5 -14.5t28 -1.5t26.5 0t24 -11q4 -14 -2.5 -20t-10.5 -11l-309 7q-10 18 -25.5 8t-29.5 -15q-20 4 -39 3.5t-19 21.5q25 8 49.5 9t47.5 1q25 0 48 1t44 14 q14 -14 26.5 -12.5t24.5 9t26.5 12.5t30.5 -1q-33 4 -75 4h-89q-43 0 -84.5 2t-72.5 12l37 13h-170q-12 -10 -22.5 -7.5t-22 7t-23.5 6.5t-27 -6q-12 12 -26.5 9t-28.5 -7.5t-26.5 -3t-18.5 19.5q4 4 13.5 7t23.5 -1l-49 27q-43 6 -61.5 8t-26.5 2q-10 0 -16.5 -2t-26.5 -4 q-4 -27 -8.5 -65t-4.5 -72q0 -35 8.5 -60.5t26.5 -27.5q16 -14 25.5 -16.5t17.5 -0.5t19.5 5t34.5 -1q20 6 30 6t19.5 -3t20.5 -5t36 2q6 -2 9 -8l6 -12t7.5 -10.5t14.5 -1.5l20 26q18 10 32.5 -2t29.5 -18q4 20 22 20h35q23 -20 48.5 -35.5t39.5 -34.5l-37 -6 q-10 -14 -15 -33.5t15 -23.5q14 4 29.5 1t32 -9t34 -11.5t35.5 -5.5q12 -6 25.5 -7t28 -2t26 -5t21.5 -18q16 -14 25.5 -2t13.5 22q20 10 43 0l-6 -33q4 -18 15 -24t25.5 -7t30.5 -1t31 -4q23 -2 33 11t14 32.5t7 40t14 34.5q29 10 52 38t46.5 50.5t50.5 29.5t59 -23l19 38 q59 2 102 2t83 -1t81 -1q43 0 100 2q8 10 18.5 14.5t19 7.5t13.5 8.5t5 15.5zM-150 -465q0 18 -14 19h-29q-4 -4 -10 -9.5t-11 -10.5t-5 -11t8 -12q6 4 17.5 3t21.5 -1q8 0 15 4t7 18zM1434 51h-21h21zM1382 51l-24 -18l-6 18h30zM1036 51q0 -6 -12 -6q-10 4 -1 12t13 -6z M657 -92q-14 0 -30.5 -2t-34.5 -2q-16 0 -31.5 3t-28.5 13q6 16 17.5 15t26 -5t31 -7t32.5 9q4 -4 13 -7t5 -17zM248 33q-10 0 -21.5 -2t-23.5 -2t-22.5 4t-14.5 18q4 4 16.5 6t26.5 1t25.5 -7t13.5 -18z" />
<glyph unicode="6" horiz-adv-x="1067" d="M1251 80l-280 10l-33 8q0 84 -11.5 161t-45.5 147q0 14 14 14t25 4q4 29 -18.5 58.5t-47.5 60.5q-41 39 -95 61.5t-113.5 29.5t-119 0t-110.5 -26q-20 -16 -18.5 -37.5t5.5 -42.5l-10 -10t-16 -2q-14 4 -13 19.5t1 25.5l-33 -6q0 45 14 96t25 101q35 59 91 107t124 48 q41 0 70.5 -20.5t51 -51t38 -65.5t30.5 -65q49 -4 93 16t89 37q10 37 5 70.5t-18 65.5t-32.5 61.5t-38.5 56.5q-45 43 -99 63.5t-114.5 27.5t-121 2t-117.5 -13q-98 -37 -156.5 -102.5t-92.5 -145.5t-51.5 -169t-31.5 -173q18 -6 22.5 -17.5t4.5 -25.5q0 -12 2 -24.5 t16 -22.5q-4 -84 9.5 -156t23.5 -145q-8 -16 -23.5 -19.5t-31.5 -3.5q-14 0 -27.5 -3t-15.5 -19q10 -14 14 -31q-35 2 -57 2h-39q-18 0 -40 -1t-59 -1l50 -55q4 0 24.5 -3.5t56 -4.5t64.5 5q-4 -14 -6 -28.5t-2 -26.5l53 39l72 -86q29 0 62.5 -12.5t47.5 -46.5 q-2 -10 -10 -11.5t-17.5 -0.5t-16.5 0t-7 -7q68 -78 169 -99.5t210 -10.5q20 2 24.5 13t4.5 26q0 12 3 22t25 10q10 0 13.5 -5t5.5 -13t3 -15.5t5 -13.5q33 2 57.5 19.5t48 38t48 40t55.5 27.5q-4 4 -4 14q0 8 10 13q35 -6 74 -1t78.5 14t76.5 17.5t66 12.5q23 35 19.5 79 t-1.5 95zM-100 6l-39 12v-18q10 -4 22.5 -1t16.5 7zM-127 -72q16 12 0 25l-18 -25h18zM801 98l-490 -8q-10 18 -14 42t-4 48q0 25 4 49.5t8 44.5q10 39 31.5 79t66.5 65l144 12q27 -16 62.5 -14t69.5 4t60.5 -8.5t36.5 -53.5q25 -59 28 -125.5t-3 -134.5zM305 406 q0 -10 -14.5 -14.5t-18.5 -0.5q-10 10 -7 18.5t14 8.5q4 0 13 -1t13 -11zM606 -39q-10 -25 -30.5 -38t-34.5 -27q-25 4 -47.5 13t-12.5 38q0 10 7.5 12t17.5 4t19.5 4t15.5 13q20 0 34.5 -2.5t30.5 -16.5zM645 -143q-29 -20 -73 -17.5t-85 2.5l-24 21q6 12 16 13t22.5 -2 t24 -9t21.5 -8q20 10 46.5 7t51.5 -7z" />
<glyph unicode="7" horiz-adv-x="1044" d="M1102 94l-45 39q-27 2 -39 7t-22.5 7.5t-22.5 1t-39 -9.5q-16 -23 -42 -24.5t-48 -5.5q-43 -18 -83 -17.5t-75 16t-68.5 40t-64.5 51.5q20 150 74.5 283.5t113.5 269.5q12 53 48 98t70 91t51.5 97.5t-9.5 116.5q-199 6 -398.5 8t-391.5 -8q0 -47 -2.5 -94t8.5 -92 l508 -13v-18q-63 -86 -110.5 -180t-84.5 -192.5t-66.5 -200t-54.5 -205.5q-6 -27 -28.5 -31t-49 -2t-51 -2t-37.5 -31h-217q-6 -18 -11 -44.5t-1 -52.5t18.5 -45.5t44.5 -23.5q45 -12 75 -15t57.5 -1t61.5 3t87 -1q25 2 30 -8t5 -25q0 -16 1 -32.5t15 -24.5l207 8l12 70 q39 0 78 5t82 -5q18 -4 33.5 -2t31 5t30 4t28.5 -7l279 8z" />
<glyph unicode="8" horiz-adv-x="1280" d="M420 1157q-10 -4 -24.5 -5t-14.5 -22q-4 -10 2 -8t10 2q10 4 20.5 10.5t6.5 22.5zM1565 -100q14 23 10 38t-15.5 28.5t-23.5 26.5t-14 30q-45 10 -85 22t-85 16q-29 -23 -59.5 -23.5t-60.5 8.5t-58.5 23.5t-55.5 24.5q-6 10 -12 27.5t14 17.5q18 -12 37 -11t38 6t40.5 9 t46.5 -4q8 14 23.5 15.5t30 0.5t26.5 -1t16 12q-14 0 -24.5 -1t-20.5 -5q-23 16 -48 21t-53 4t-56.5 -3t-55.5 2q-35 6 -44 25.5t-10 44.5t-3 50.5t-21 41.5q-20 0 -37.5 -9t-27.5 9q-16 35 -42 58.5t-55.5 42t-59 36t-56.5 39.5q0 18 13.5 31.5t32.5 25t40.5 23.5t36.5 29 q18 12 30.5 32.5t24.5 41t28.5 33t45.5 10.5q4 59 8 126.5t-14 120.5q-23 37 -52.5 72t-65.5 61.5t-77 41t-84 12.5q-10 -4 -13 -16.5t-7 -22.5q-72 10 -142.5 -3.5t-130.5 -41.5q-14 -14 -29.5 -16.5t-29.5 1.5t-27.5 11.5t-21.5 9.5q4 -29 -13.5 -44.5t-33.5 -39.5l-13 20 q-43 -59 -61.5 -132.5t10.5 -145.5q29 -10 46.5 -29.5t30.5 -42t26.5 -45t37.5 -39.5q8 -6 11.5 -16t6.5 -19.5t9 -13.5t21 4q18 0 33.5 -17.5t4.5 -41.5q-6 -14 -19 -17.5t-27.5 -0.5t-30 7.5t-27.5 4.5q-23 0 -30 -11.5t-9 -28t-3 -32.5t-9 -25q-12 -10 -21.5 -5 t-16.5 12.5t-14.5 8.5t-13.5 -16q-6 -12 -3 -17t8.5 -7t11.5 -3t10 -5q6 -23 -1 -31t-20.5 -12.5t-29 -7.5t-21.5 -15q-10 -29 -20 -52.5t-6 -58.5q-4 -18 -28 -22t-52.5 -3t-55 2t-36.5 -11q-12 2 -25.5 -4.5t-25 -27t-16.5 -58t1 -97.5q14 -2 26.5 -10t25 -16.5 t29.5 -13.5t42 -1q45 -8 67.5 -14t31.5 -10t13.5 -5t15.5 1t33.5 6t69.5 12l21 -18q4 -37 25.5 -55.5t49 -29t57.5 -16.5t54 -16q12 0 14.5 8t2.5 19q0 8 2 16t14 8q41 -14 77 -43t46 -74q14 -6 21.5 0.5t11.5 15.5t11 16t21 1q29 -16 58 -16q31 0 58.5 10t55 28.5 t54.5 39.5l96 75q20 -20 31.5 -50t1.5 -54q18 0 42.5 -6t50 -7t49.5 6t40 34q29 -2 54.5 3t49 12t49 14t54.5 9q14 12 32.5 14.5t36 3.5t32 7.5t22.5 26.5zM698 -295q0 10 -7 5t-13 -5q-6 -2 -16.5 -8t-17.5 -13.5t-11 -17.5t0 -18q10 14 32.5 23t32.5 34zM-281 82v12 q-10 4 -24 9.5t-14 -9.5q4 -4 16 -13t22 1zM866 813q0 -63 -41 -114.5t-94 -80.5l-137 -45q-29 14 -63.5 33t-64.5 42.5t-52.5 53t-26.5 66.5v72q0 37 6 69.5t23.5 60t54.5 50.5q29 -18 54.5 -3t49.5 36q27 -2 57 0t57.5 -1t49 -18.5t31.5 -52.5q-8 -31 9.5 -49.5t39 -34.5 t38.5 -34.5t9 -49.5zM1098 -152h-19v19q4 0 11.5 2t7.5 -8v-13zM834 190q-37 -12 -71 -9t-66.5 7.5t-66.5 3t-67 -19.5q-23 -31 -42 -30t-38.5 12.5t-43 21.5t-52.5 -4l-12 12q-2 27 14.5 49.5t31.5 44t21.5 43t-16.5 46.5q35 35 77 53t85 43q59 -10 109.5 -36t97.5 -60 q14 -20 -1.5 -30.5t-29.5 -14.5q23 -29 41.5 -60t28.5 -72zM821 -4q-14 -25 -35.5 -37t-46 -18.5t-50 -10.5t-50.5 -12q-39 0 -82 4t-72 29q14 16 8 32.5t-16 32.5q-35 10 -51 35t-27 49q14 0 34 3t38 3q20 0 35.5 -6t23.5 -26q39 10 78 23.5t64 47.5q16 -23 44.5 -32 t54.5 -20t42 -32.5t8 -64.5z" />
<glyph unicode="9" horiz-adv-x="1191" d="M1303 16q14 45 7 79l-7 34q-104 0 -190.5 -4t-194.5 6l40 166q2 12 4.5 30.5t7.5 35t16 27.5t36 11q16 68 16 146q0 80 -10 151q-10 4 -29.5 5.5t-19.5 23.5q0 14 16.5 12t26.5 9q10 68 -5.5 126t-37.5 115l-47 -14q-10 10 -21.5 18t-7.5 31q-29 61 -73 102t-98 66 t-116.5 33t-126.5 6q-16 -6 -36 -6q-18 0 -37 -3t-34 -13.5t-24 -32.5q-16 -2 -29.5 -14.5t-26.5 -26t-26.5 -24.5t-27.5 -11q-16 4 -19.5 14t-9.5 27q-10 0 -17 -11.5t-18 -15.5q-20 -16 -19 -27.5t10 -22.5t19.5 -25.5t4.5 -34.5q0 -35 -35 -35q-12 2 -15.5 8t-2.5 14 t3.5 16.5t0.5 16.5q-20 -20 -29.5 -50t-13 -62.5t-3.5 -67.5q0 -33 -2 -62l41 -8q-2 -16 2.5 -31.5t5.5 -31t-5.5 -27.5t-30.5 -20q0 -41 8 -84t26.5 -81t48 -69t70.5 -49q31 8 59.5 0t58.5 -21.5t59.5 -24.5t64.5 -9q43 2 84 17t82 29.5t82 20.5t84 -12q-8 -29 -12.5 -61.5 t-10.5 -64.5t-16 -62.5t-31 -53.5h-414q-23 20 -47 28.5t-51 12.5q-41 -29 -90 -37t-102 -8q-51 0 -102.5 2t-98.5 -6l-6 -47l-105 6q-16 -20 -18 -29.5t-2 -17.5t-2 -17.5t-15 -29.5q4 -16 28 -30.5t59.5 -26t81.5 -17.5t96 -4q33 0 71.5 5t75.5 2t69.5 -21.5t53.5 -61.5 q16 -16 38.5 -19t45.5 19q8 -4 8 -8t-2 -10t-4 -12.5t4 -12.5q27 -4 49 -4q23 0 33 25q16 0 17 -15.5t12 -25.5q20 -8 37.5 -2t35 16t35 22.5t37.5 18.5q14 12 25.5 9t20.5 -13t17.5 -20.5t18.5 -10.5q27 6 25 22.5t4 33.5q10 16 21 30.5t34 3.5l-14 -47q33 -4 55 12.5 t40.5 38l37 43t47.5 29.5q68 20 140.5 9t135.5 -15q57 -2 74 16t21 41zM821 713q-45 -6 -66.5 -35t-39 -63.5t-40 -66.5t-69.5 -42q-18 -16 -39 -17q-18 0 -39.5 7.5t-41 16.5t-37.5 13q-33 31 -60 64t-31 74q-8 14 -24.5 20t-31.5 12t-22.5 16.5t3.5 35.5q39 23 52 59.5 t23.5 75.5t25.5 76.5t56 64.5q-4 27 0 53.5t35 42.5q68 0 131.5 -5t110.5 -50q27 -20 46 -46t23 -58q-31 -16 -36 -42t1.5 -55.5t17.5 -60.5t11 -55q2 -8 9.5 -9.5t14.5 -3.5t12 -6t5 -16zM164 76q4 -16 -6.5 -23.5t-20.5 -17.5l-78 20q-2 18 9.5 24.5t27.5 6.5t36 -4t32 -6 z" />
<glyph unicode=":" horiz-adv-x="655" d="M471 688v266l-31 29h-229l-23 -14v-281l23 -14h244zM772 47l-211 -8q-37 -4 -44 12.5t-7 38.5q0 23 -3 44.5t-34 27.5q-37 0 -76 2t-80 2q-39 0 -76.5 -4t-70.5 -17q4 -25 -8 -27.5t-27.5 -1.5t-30 -1t-14.5 -23q14 -8 32.5 -5t39.5 -5q6 -6 6 -19q0 -10 -6 -16 q-25 -6 -39 -6t-24.5 3t-19.5 6t-24 7q-12 12 -56 24.5t-81 10.5q-2 -2 -18.5 -17.5t-29.5 -41t-3 -47.5q51 -8 96 -1t105 -5q35 -2 55 -3.5t34.5 -2.5t29 -3t36.5 -4l27 -114l186 8l4 39q-4 27 9.5 34t33 8t42 2t34.5 13q25 2 29 0t9 -5t18.5 -6t56.5 1l25 5t7.5 2t8.5 1 t28 4q14 4 26.5 16.5t16.5 26.5t2 27.5t-14 17.5z" />
<glyph unicode=";" horiz-adv-x="673" d="M510 870v312l-16 16h-261l-32 -33v-295l24 -16h269zM872 -49q-4 39 -8 64.5t-13 38t-28.5 15.5t-52.5 1l-8 49q-49 6 -70.5 11t-39 8t-42.5 3t-75 -6q-29 27 -67 36t-79 9t-84 -4t-80 0q-6 -31 -9 -43t-9 -15t-17.5 -1t-31.5 2q-29 -25 -68 -21t-81 13.5t-82 15.5 t-70 -12q-14 -4 -19.5 -12.5t-7.5 -21.5t-3 -35.5t-7 -55.5h69h45h39h45l58 -58q14 -4 16 -4t1 2t0 7.5t18 11.5q20 8 36.5 2t29.5 -18.5t24.5 -29t23.5 -28.5q14 -12 25.5 -9t18.5 6t8.5 -5t-1.5 -41q-12 -25 -21 -39t-18.5 -24.5t-20.5 -18.5t-30 -20q-23 -14 -29.5 -27.5 t-11.5 -32.5q-12 -43 4.5 -56.5t47 -14.5t66.5 4.5t61 -0.5q20 2 33.5 16t22.5 31.5t14 37t12 35.5l6 58q8 27 10 38t3 19t8 17.5t28 33.5q20 -4 30.5 4.5t14.5 21.5t7 28.5t13 27.5q18 12 32.5 7t29 -14t29 -19.5t32.5 -6.5q33 12 45.5 16.5t20.5 2.5t19 -6t44 -6 q25 14 34 16t15.5 -1t14 -6t30.5 3zM2 -92q-12 6 -22.5 -6.5t-10.5 -18.5q0 -12 6.5 -14t18.5 -2q6 6 13 17.5t-5 23.5zM-113 -109q-18 6 -30.5 -10t6.5 -22q6 0 18 10t6 22z" />
<glyph unicode="&#x3c;" horiz-adv-x="1114" d="M1012 1057q4 20 -3.5 43.5t-37.5 17.5q-20 -4 -17.5 -17.5t2.5 -23.5q-12 -16 -15 -13t-3 11q0 10 -2 21.5t-12 15.5l-136 -55l-6 -21q4 0 16.5 3t16.5 -3q16 -12 8 -32q-16 -10 -30.5 3t-24.5 23q-6 -4 -5 -11t4 -15.5t4 -15.5t-9 -11q-37 25 -73 21.5t-69.5 -20.5 t-64.5 -40t-61 -35q10 -10 24 -11t14 -18q-33 -25 -70.5 -42t-77.5 -33.5t-80 -35t-75 -42.5l-12 -47l-55 20q-20 -6 -30.5 -17t-15.5 -27.5t-6 -34t-1 -35.5q27 -27 60.5 -42.5t68.5 -5.5q4 29 -7.5 55.5t-21.5 51.5q10 16 27.5 13t33.5 1l506 230l133 12q2 8 3 17.5 t4.5 16.5t9.5 11t18 2l12 -47q25 8 33 26.5t10 42t2 48.5q1 25 11 45zM991 127q0 23 4 53.5t5 60t-6 55.5t-29 40q-8 0 -9 -6v-13q0 -6 -1 -12t-11 -8q-23 -10 -32 -3t-11 22.5t-3 33t-7 27.5q-51 31 -114.5 38t-129.5 3q39 -106 88 -209l156 -74l18 53q14 0 19.5 -8 t6.5 -18t1 -23q0 -10 8 -18q10 -4 23.5 -6t23.5 12zM614 268q0 16 -11 23.5t-15 17.5q-20 -2 -30.5 5.5t-15.5 20.5t-7.5 28.5t-8.5 27.5q8 18 19.5 17.5t24 -4t22.5 -4.5t14 18q-76 55 -162 88t-168 74l-6 -62q20 -35 52 -47t63 -33l-33 -41q55 -51 125.5 -74.5 t136.5 -54.5zM1208 109q-57 4 -107 -7.5t-102 -7.5q-20 -12 -38.5 -10t-39 10t-41 15.5t-42.5 5.5q-20 -25 -49 -30t-59 -4t-58.5 0t-48.5 -20q-37 -4 -81 -10t-89 -9t-86 3t-74 29q-8 -4 -20.5 -5t-24.5 -4.5t-23.5 -10.5t-13.5 -21q20 -55 57 -84q12 -8 23.5 -12.5 t24 -6.5t28.5 -1t43 3q39 4 75 2t71.5 -8t75.5 -15t87 -20q33 -8 42.5 -29.5t9.5 -45.5q0 -27 -1.5 -52.5t11.5 -39.5q12 2 15 10t3 18v19q0 8 8 14q25 2 30 18.5t6 37t5 39t27 26.5q4 -10 7 -25.5t20 -15.5q8 8 8 22q0 12 2 24.5t7 20t24 0.5q4 -20 20 -22t33 2 q4 -10 16 -18.5t24.5 -17.5t23 -19.5t10.5 -24.5q0 -10 18 -14t44 -3t51.5 8t37.5 17q-2 37 -3 42t-1 7l2 9q2 10 8 57q0 25 4 33t8.5 19t4.5 32q-1 21 -13 70zM844 -309l-6 20v-20h6zM946 -498q-6 14 -25.5 10t-15.5 -24q4 -4 7 -11t14 -3q10 6 17 12t3 16zM219 -6l-20 20 q4 29 -20.5 32t-41.5 7q-6 -8 -14 -7t-16.5 4t-16.5 4t-14 -7l82 -20q8 -4 13 -13.5t11 -15.5t15.5 -9t21.5 5zM49 -14q0 10 -11 9t-22 -1q12 -14 20.5 -15.5t9.5 1.5zM1081 -39q0 -4 -2 -12t-12 -15q-16 0 -29.5 6.5t-17.5 20.5q0 12 8 18.5t19.5 5.5t20.5 -7.5t13 -16.5z " />
<glyph unicode="=" horiz-adv-x="1263" d="M1032 416q-4 4 -12 7t-12 -1l-7 -21q4 -4 17.5 -2.5t13.5 17.5zM1032 694q0 12 2 26.5t1 27t-7 22.5t-20 12q-10 16 -6 23.5t11 12.5t14 10.5t5 17.5q0 4 -4 10t-14 2q-6 -10 -14.5 -6t-17.5 9t-19.5 7t-18.5 -10l25 -31l-13 -8q-33 18 -71.5 28.5t-79.5 13.5t-82 3h-76 q-35 -4 -67.5 -3t-66.5 2t-67 1t-65 -6q-35 10 -86 10q-49 0 -78 -10l12 -6q2 -25 -13 -41t-32.5 -33.5t-25.5 -38t8 -51.5q96 0 196.5 -2t194.5 8q6 10 9 20.5t18 10.5l30 -37h318l24 31q10 -4 12.5 -12.5t8.5 -18.5q10 0 25.5 -2t29.5 8zM1032 528q0 16 3 33t-21 12 q-18 4 -30.5 -9t-6.5 -29q-8 0 -10 4t-3 10t-2 11t-6 7l-342 6q-6 2 -11 -3t-9 -10t-8 -5t-8 12l-285 6q-16 0 -10 -13t16 -19q-10 -10 -21.5 -11.5t-23.5 -0.5t-23.5 0t-21.5 -7q-2 -12 -5 -26.5t-1 -28.5t9 -23.5t24 -9.5q-14 -25 -36 -21.5t-40 3.5v-6 q96 -16 206.5 -14.5t211.5 5.5l-13 33q31 20 62 0l-13 -33q53 -10 112.5 -8t117.5 2q14 16 28.5 17.5t28.5 -4t29.5 -9.5t32.5 2q-4 14 -16.5 18.5t-26.5 4.5h-27q-12 0 -19 10l115 19q-4 14 2 23t15.5 17.5t17.5 15.5t8 19zM1235 -301v6q-10 10 -13 23.5t-18 9.5 q-12 -10 -32.5 -11t-37 -3.5t-26.5 -10.5t0 -32q39 0 66.5 14t60.5 4zM1038 -287v13q-10 4 -16 16t-21 2l-6 -18q10 -10 21.5 -16.5t21.5 3.5zM850 -162q0 16 -16 17q-16 0 -17 -17q-4 -4 3 -11t18 -7q4 4 10 9t2 9zM1384 51q-33 -16 -61.5 -12t-54 17.5t-50 29.5t-51.5 23 q-2 -8 -49 -11.5t-108.5 -5.5t-122 -5t-88.5 -11q-18 -4 -34.5 -1t-31 8t-30 6t-31.5 -7q-16 8 -32.5 7t-32 -5t-31 -6t-31.5 4q-66 4 -132.5 -3t-113.5 15q-8 -12 -17.5 -13t-19.5 0t-22 1q-10 0 -23 -6q-10 29 -36.5 31t-47.5 -19q-41 -4 -66.5 -6t-45 -4t-37 -6 t-41.5 -13q-2 -23 -1 -54.5t9 -62t22.5 -53t38.5 -26.5q25 14 25 24t-1 18.5t5 15.5t43 13q16 -4 23.5 -14t12.5 -22.5t10 -24.5t17 -20q18 4 35 17t27 32q20 -8 20 -31l-20 -12q2 -4 17.5 -17.5t32.5 -25t34.5 -15.5t23.5 13q-14 4 -12 22.5t6 28.5q14 4 23.5 18.5t21 26.5 t25.5 18t37 -6q8 -10 18 -17t20.5 -14.5t17.5 -15.5t7 -22q16 -10 22.5 2t16.5 16q-4 14 3 23.5t18.5 16.5t22.5 15t14 21q6 -14 19 -20.5t25.5 -10.5t21.5 -12t9 -27l70 64q27 -14 49.5 -1t44.5 13q41 -14 50.5 -47t12.5 -67t14 -62.5t56 -32.5q14 29 29.5 56.5t34.5 52.5 q4 23 -11.5 35t-25.5 28q-6 4 -13.5 2t-14.5 -4t-12 0t-5 14q23 14 28 22.5t15 26.5q57 0 94 6.5t64.5 9.5t50 -2t49.5 -26q31 8 45 3t26.5 -7t29 8.5t48.5 46.5q10 23 12 24t-10 11zM96 -332q0 10 -3 26.5t-23 10.5v-61h14q4 4 8 9t4 15zM838 434q0 -14 -21 -14 q-18 0 -18 14h39zM1239 23q0 -14 -14.5 -16.5t-24.5 -2.5t-15 13.5t9 17.5q10 0 22.5 -4t22.5 -8zM780 434q0 -14 -22 -14q-23 0 -23 14h45zM780 -8q6 -12 1 -17.5t-13 -8.5t-18.5 -7t-14.5 -12q-23 0 -50.5 9t-49.5 28q0 6 -2 14t8 12q14 4 33.5 9.5t40.5 5.5 q20 0 37.5 -7.5t27.5 -25.5zM375 -66q-20 -10 -33 13q-2 8 6 12t17.5 2t13.5 -8.5t-4 -18.5z" />
<glyph unicode="&#x3e;" horiz-adv-x="1134" d="M1024 606l-342 164l-49 86l-31 -25q-14 4 -7 18.5t7 18.5h-6q-23 4 -46.5 10.5t-37.5 -22.5q-41 4 -76 26.5t-71 41.5q0 31 -17.5 43t-40 17t-48.5 9t-40 21q-10 -23 -4 -44.5t13.5 -41t9.5 -41t-15 -43.5q10 -18 26.5 -23.5t35.5 -1.5q55 -47 117.5 -67.5t127.5 -49.5 l60 25l270 -117q10 -8 27.5 -16t13.5 -31q-49 -41 -108.5 -70.5t-128.5 -39.5q-14 -20 -32 -30.5t-36 -16t-37.5 -10.5t-34.5 -17q-12 -12 -24.5 -8t-24.5 8t-20.5 3t-10.5 -22q-16 0 -31.5 -10t-30.5 -19t-32 -9q-16 0 -35 20q-2 -18 -14 -24.5t-27.5 -9.5t-31 -5 t-23.5 -10q-4 -45 -7 -90t7 -86q12 -10 24.5 -1t16.5 13q25 -12 50.5 -6t51 19.5t51 28.5t50.5 26q16 0 24.5 10t16.5 21.5t17 17.5t28 0q8 12 25.5 19t33 14.5t25.5 19.5t6 37l209 104q20 23 58 33t71 22.5t50 36t-3 74.5zM621 471q-10 10 -23.5 3t-13.5 -21q0 -4 7 -8.5 t11 -4.5q4 10 13.5 15.5t5.5 15.5zM1145 6q10 4 7 12.5t-7 12.5q-37 0 -76 7t-72 11q-129 0 -243.5 -1t-237.5 -11q-14 -12 -31 -12q-14 0 -30.5 3t-31.5 7t-30 2q-25 -16 -51 -17q-25 0 -50.5 3.5t-50 5.5t-48.5 -11q-78 6 -111 9.5t-45 3.5h-21q-6 0 -34 2 q-6 -6 -11.5 -10.5t-7.5 -9.5t2 -11t21 -18l182 -15l18 25q53 -10 109.5 -3t116.5 21q16 -16 35.5 -19t39.5 -3t39 -2t33 -19q12 23 37 28t47 15q14 -10 22.5 -21t26.5 3q16 -12 31.5 -9t30 9t30 10t31.5 -4q16 2 32.5 0t33 -5t32.5 -3t35 8q27 10 51.5 8t48 -6t48 -6 t49.5 10zM383 -121q-14 4 -22.5 -5t-8.5 -19q0 -4 7.5 -5.5t11.5 -1.5q22 11 12 31zM291 -133q-14 0 -23.5 -10.5t4.5 -20.5q4 4 13.5 10.5t5.5 20.5zM-264 -43q-10 4 -29.5 5t-19.5 -17q0 -4 8 -4h10q10 -4 22.5 0t8.5 16zM-172 -256q-10 8 -16.5 21.5t-14.5 24.5t-19 14 t-30 -5q0 -10 -5 -17t-9 -13.5t-6 -14.5t2 -16q12 -4 16 -2t6 8t3 13t5 12q25 -2 24 -11.5t-8 -23t-13.5 -26.5t10.5 -25q8 6 22.5 10t25.5 9t15 14.5t-8 27.5zM811 672l-6 12q6 0 6 -6l2 -1t-2 -5zM565 838l-28 18l22 -6zM358 819q-10 -4 -22 -4q-10 0 -18.5 4t-11.5 13.5 t3 23.5q14 -4 26.5 -9t22.5 -16v-12z" />
<glyph unicode="?" horiz-adv-x="935" d="M111 1059q-2 8 -7 8q-4 0 -7 -4t-4 -9t3 -7h8q4 -4 7.5 2t-0.5 10zM848 690q-2 25 1 53.5t3 55.5t-6 51t-25 43q-16 14 -10 35.5t16 38.5q0 12 -4 26.5t-13 25.5t-22.5 16t-33.5 -3q-16 6 -17.5 13.5t3.5 16.5t10.5 18.5t3.5 19.5q-6 29 -33 37t-47 22l-6 21 q-45 23 -101.5 33t-113.5 10t-113.5 -9.5t-101.5 -25.5q-31 -6 -46.5 -23.5t-22.5 -41t-10 -49t-7 -48.5q-8 -16 -16.5 -15t-17.5 6t-19.5 10t-20.5 -1q-16 -20 -26.5 -40.5t-0.5 -47.5h19q18 -20 14 -45t-11 -50.5t-7 -49.5q0 -23 24 -41q18 12 33.5 9t30 -10.5t28 -11.5 t29.5 6q12 43 28.5 89.5t41 86.5t61.5 68.5t90 36.5q31 4 56.5 -6t48 -27.5t45 -38t45.5 -34.5q10 -20 8 -41t-5 -40.5t-3 -37.5t12 -37q-20 -10 -31.5 -31.5t-7.5 -48.5l33 -6q-10 -31 -22.5 -55.5t-37.5 -44.5q-31 0 -61.5 -1.5t-58 -9.5t-51 -23.5t-37.5 -45.5 q14 -47 -21 -68q-4 -16 -15.5 -35.5t-15.5 -38t2.5 -34t36.5 -19.5l-26 -41q10 -31 -2.5 -53.5t-12.5 -46.5h88q20 -33 31 -33q12 0 22.5 14.5t21.5 34t32 25.5q8 20 5 33.5t-10 24.5t-17.5 21.5t-18.5 26.5q16 16 31.5 21.5t35.5 5.5q31 27 66 53.5t68.5 53t63.5 56 t50 64.5l-47 21q-4 25 16.5 43t30.5 45q8 4 18.5 3t20.5 -2t18.5 2t10.5 15zM43 778q-4 4 -9 8.5t-11 -2.5q-10 -4 -6.5 -15t14.5 -11q10 0 11 8t1 12zM1083 -14q4 12 3 20t-4 18.5t-5 23.5t0 36l-1272 -10l-14 -19q18 -25 21.5 -37t-1 -20t-15.5 -18.5t-23 -32.5 q12 4 25.5 -1t25.5 -8.5t21.5 -1t13.5 22.5q-16 4 -31.5 12.5t-15.5 28.5q6 16 18 22.5t29 10.5l41 -39q10 2 23.5 3t24.5 -3t17 -13.5t0 -27.5q49 -2 80 -3t57.5 -2t57.5 -1h78q20 4 26 -4.5t8 -20.5t4.5 -23.5t14.5 -13.5q33 6 74 1t79.5 -7t68.5 8.5t40 44.5 q35 -2 74 3.5t76.5 10.5t76.5 6t74 -9q23 10 48.5 9t51 -6t53 -11.5t52.5 -6.5zM-80 -35q-6 6 -10 7l-4 1v-20h6q6 -4 7 2t1 10zM-254 -53q-6 10 -16 10q-12 0 -13 -10q6 -6 8.5 -10.5t12.5 -4.5q6 4 6 7zM-301 -53q-6 10 -15.5 11t-19.5 1q-16 -4 -10 -10t10 -17 q10 -4 22.5 0.5t12.5 14.5zM-401 -41q-10 4 -17.5 9t-17.5 5q-8 -20 14 -34q10 6 15.5 8t5.5 12zM342 33q-10 -20 -25.5 -34.5t-35.5 -18.5q-20 4 -41 9t-25 31q0 12 7 16.5t17.5 5.5t21.5 2t20 9q16 4 33.5 0t27.5 -20zM-20 33l-21 -21v21h21z" />
<glyph unicode="@" horiz-adv-x="1480" d="M659 1026q-4 0 -10 -4t4 -14q4 4 10 9t-4 9zM1350 668q4 14 -9.5 24t-27.5 6q0 14 10 15q10 0 20 4q4 78 -21.5 157.5t-70.5 145.5q-53 78 -126.5 120t-161.5 52q-16 2 -41 7t-50 5q-23 0 -41 -9t-22 -34q-53 -4 -99 -21.5t-94 -27.5q-23 0 -15.5 10.5t3.5 20.5t-12 11 t-19 1q-20 -6 -28 -19.5t-11.5 -27.5t-6.5 -28.5t-15 -22.5q-18 0 -16 13t-9 24q-74 -41 -124 -111t-72 -143q-2 -12 4 -15.5t15 -6.5t16.5 -6t7.5 -15q-18 -25 -23.5 -57.5t-11.5 -64.5t-18.5 -61.5t-44.5 -50.5q-10 -33 2 -62.5t16 -66.5l104 12q23 12 25 26.5t1 29t2 27 t28 22.5q0 14 -11 14q-10 0 -20 4q-14 10 -3 18.5t15 18.5l-12 6q-14 23 -9 49.5t15 49.5q2 14 6 31.5t13.5 31.5t23.5 21.5t37 1.5q14 27 35.5 51t41 50t32 55.5t8.5 66.5q6 14 23.5 20.5t31.5 12.5t22.5 16t-4.5 31q0 10 4.5 12t8.5 6q6 -25 21.5 -28t33.5 1.5t38.5 9.5 t37.5 -7q-2 -25 9 -31t28.5 -5t36.5 1q18 0 30 -15q49 -12 91 -39.5t75 -65.5t56.5 -83t35.5 -90q-2 -14 6.5 -21.5t17.5 -12.5t12 -12t-11 -22q0 -23 4 -42t33 -19q14 -18 7 -25.5t-18.5 -11.5t-20.5 -11t1 -26q25 -4 31 -20.5t3 -38t-6 -42t3 -34.5q41 -12 54 4.5t17.5 41 t10.5 47t34 24.5q10 23 1 42t-37 19q-10 16 -3 22.5t17 10.5t20.5 9.5t8.5 19.5zM1098 870q-41 4 -87 6.5t-79 -12.5q-12 12 -33.5 20.5t-44.5 8.5q-20 0 -37.5 -9.5t-19.5 -31.5q-41 -4 -72 -23.5t-56.5 -46t-47 -57.5t-41.5 -57q10 -29 -6.5 -43.5t-30.5 -24.5l6 -6 q-14 -4 -20.5 -19.5t-16.5 -29.5q18 -4 34.5 -24.5t2.5 -43.5h-37q10 -10 6 -18t6 -13q33 -10 77 -12t77 12q16 23 8 35.5t-19.5 22.5t-16.5 21.5t16 31.5q-18 33 -4 66.5t28 62.5q8 16 22.5 32.5t32 29t39 16.5t43.5 -4q-2 -23 8.5 -31t24.5 -11t28.5 -5t18.5 -15 q-4 -18 -19.5 -10t-23.5 4q-10 -25 -1 -33t22.5 -11t27 -9t13.5 -27q-33 -16 -31 -31.5t13.5 -32t20.5 -35.5t-9 -42l-37 18q-14 -14 -8 -25t15 -22.5t13 -21.5t-14 -23q29 -4 61.5 -6t55.5 12q-10 12 -5 22.5t15 20t20.5 18.5t12.5 19l-37 43q4 8 12 11.5t14 3.5h17 q8 0 12 4q10 23 -4 40t-33 21q-10 16 -5 22.5t15.5 9.5t22.5 7t16 17q14 14 3 29.5t-21 19.5q23 12 31 30.5t8 38.5q0 23 -2 46.5t0 43.5zM1030 403v7h-6zM653 373v6q-14 -2 -26.5 5t-24.5 13t-23.5 7.5t-23.5 -13.5q4 -16 16.5 -22.5t26.5 -6.5t28.5 4.5t26.5 6.5z M1733 119q6 23 -5.5 28t-31.5 5t-41 -1t-33 11l-598 -12l-18 -13l92 -61q6 -6 14 -5t14.5 3t10.5 2t4 -13q-23 -16 -50.5 -15t-56 5t-55.5 4t-47 -18l-316 6q-47 18 -108 18t-113 -18q-51 10 -107.5 16.5t-107.5 -4.5q-35 12 -66.5 9t-61 -9t-60.5 -11t-66 5l-24 -74 q29 -14 41 -23t34 -5l365 12q18 0 35.5 -5t34 -9t32.5 -4t33 12q59 -4 126 -11t128 11q23 -12 47.5 -11t48 3t46 1t42.5 -18q74 18 157 23.5t169 5.5q88 0 175 -1t171 3q12 18 14.5 29.5t2.5 23.5t-2.5 27.5t2.5 40.5q4 33 18 38t33.5 1t40.5 -9t37 7zM346 373q-4 0 -9 8 t-15 4v-25q10 -4 17 -0.5t7 13.5zM432 229q-2 4 -10 6.5t-16 2.5t-15.5 -2.5t-7.5 -6.5l12 -12q10 -4 23.5 -3t13.5 15zM670 -14q-14 -14 -29 -15q-14 0 -28.5 5.5t-30 11.5t-31.5 4l12 24q29 4 55.5 -11t51.5 -19zM459 -14h-13h7h6z" />
<glyph unicode="A" horiz-adv-x="1019" d="M1042 164q-29 -6 -56.5 1t-33.5 -9q8 -14 19 -15q10 0 19 4.5t19.5 5.5t18.5 -10q4 4 9 7.5t5 15.5zM1260 -45q-6 23 -9.5 49.5t-9.5 51t-19.5 43t-37.5 26.5q-29 -16 -32 -45t3 -51l-45 30q-29 -4 -39 -3t-24.5 2t-46 2t-105.5 -1q-14 20 -6 26.5t21.5 11.5t24.5 11.5 t5 26.5q-10 33 -23.5 65.5t-52.5 39.5q-4 4 -1 13t9 9q16 41 4 75t-29.5 63.5t-27.5 58t8 63.5l-59 8q6 31 -4 54.5t-20.5 45t-17.5 43t5 50.5q-35 55 -52 117.5t-30.5 126t-28 126t-38.5 121.5q-4 23 12 38.5t33 15.5q10 10 7 24.5t-16 18.5h-266q-12 -4 -17 -18.5 t-5 -24.5q16 -6 33.5 -7t17.5 -24q-43 -199 -119 -387q-39 2 -48 -13.5t-10 -38t-4 -45t-28 -30.5q-10 -23 5.5 -31t25.5 -14q10 -23 -4.5 -52.5t-48.5 -29.5q12 -4 28.5 -9t16.5 -28q-23 -8 -32 -24.5t-12.5 -36t-2 -39t1.5 -33.5q-18 -25 -23.5 -57.5t-5.5 -69.5v-70 t-8 -65q-23 0 -22 -16.5t7 -26.5l-30 -17q-2 -37 -15.5 -39t-31 4.5t-33.5 6.5t-25 -31q-33 23 -69.5 16.5t-71.5 -2.5q-6 6 -14.5 11.5t-15.5 9.5t-10 10t3 14q10 12 22.5 6t22.5 -6q14 12 37 13q23 0 47.5 -1t46 3t33.5 22l-232 9q-18 -14 -34 -15q-16 0 -31.5 4t-32 7.5 t-35.5 -5.5q-74 -63 -94 -98t9.5 -51.5t110.5 -21.5t212 -7q-10 23 -1 34l9 11q16 0 40 1t34 -15l-23 -31q16 -10 38 -7t38 -7q16 -16 13 -31.5t-10 -31t-13 -33t2 -39.5h104q23 8 31 25.5t11 37t7.5 38.5t18.5 34q152 6 295 9t301 -1q16 -16 28.5 -39.5t8.5 -58.5 q2 -29 18.5 -38t38.5 -9q23 0 47.5 2t42.5 0q0 29 -6 60.5t0 59.5q96 4 158.5 6.5t98.5 4.5t51.5 3t18.5 2t-1 2t-6 3zM627 477q0 -29 -22.5 -55.5t-45.5 -48.5q-23 6 -43 -1t-39.5 -12.5t-38 -3.5t-35.5 25q-23 -6 -45 -20.5t-51 -10.5q-23 31 -23.5 62.5t7.5 63.5 t20.5 61.5t18.5 58.5q4 23 16 28t35 9q0 14 9 27.5t17.5 25.5t11.5 24.5t-7 26.5q-12 6 -25.5 10.5t-13.5 20.5q16 8 18 22.5t-1 32t-4 33.5t9 31q16 51 27.5 107.5t40.5 101.5q20 -8 28.5 -27.5t13.5 -43.5t9 -49.5t16 -43.5q2 -25 10.5 -50.5t14.5 -50t7 -48t-9 -46.5 l-8 -6q8 -25 23.5 -49.5t29.5 -51t21.5 -55t-1.5 -61.5q-10 -4 -20 -7t-16 -15q0 -16 13 -15.5t23 0.5h9zM864 291q0 -4 -7 -8t-7 2l14 20q6 0 3 -4t-3 -10zM731 98q0 -16 -9 -23t-22.5 -11.5t-28 -7.5t-22.5 -11q-16 14 -33.5 13t-34 -6t-33 -6t-32.5 13q-51 6 -117.5 4 t-128.5 5q-6 16 -21.5 23t-31.5 -9h-14q-10 16 -3 29.5t17 23.5q23 -20 35 -15t23.5 18.5t22.5 29.5t32 18q47 -10 96 -4t96 10.5t89 -4t75 -47.5l31 23q4 -4 0 -16.5t-17 -12.5l-6 -8q10 -10 20.5 -14.5t16.5 -14.5zM-252 104q0 -10 -13.5 -16t-23.5 -6q-6 0 -11 2t-11 14 q0 23 21.5 17.5t37.5 -11.5z" />
<glyph unicode="B" horiz-adv-x="987" d="M807 854q-25 53 -69 87t-91 54q6 8 17.5 10.5t21.5 2.5q12 0 22.5 1t14.5 11l-18 12l-615 21l-18 -27l45 -39v-461q8 -16 25.5 -22t35.5 -6t38 4t34 6q10 20 4 30.5t-18.5 15.5t-25.5 11t-17 21q6 6 14 6h18t15.5 3t9.5 15v289l20 12q51 0 107.5 2t110 -3t101.5 -21.5 t83 -54.5q18 -27 25.5 -60t7.5 -69q0 -35 -6.5 -70t-12.5 -64q-2 -10 -11 -19t-16.5 -18.5t-11.5 -19.5t6 -18q25 -16 55.5 -8t53.5 26q29 33 46 76t23.5 89t0 91t-24.5 84zM1114 -68l-27 146l-43 57l-141 -4q-18 6 -24.5 20.5t-8.5 32t-6 33.5t-18 29q-4 41 -25.5 52 t-50.5 11t-59.5 -3t-51.5 9v-12q0 -14 9 -14q8 0 18 -4q-2 -16 8.5 -31.5t20.5 -29t12 -28t-16 -28.5l20 -31q-215 -18 -430 0q-18 4 -14 22.5t8 28.5l-33 13q10 25 -4 56.5t-14 64.5q-35 0 -73 6t-62 -19q-14 -4 -12.5 -15t12.5 -15q6 -35 11 -77t-24 -71l-221 -2l-6 -18 q12 -23 13 -43.5t-2 -41t-7 -43t-4 -46.5q12 -12 21.5 -10.5t19.5 4.5t21.5 4.5t25.5 -11.5q6 6 26.5 5t45 -4t49 -9t39.5 -10q0 -14 2 -32.5t2 -37.5q0 -18 -5 -34.5t-20 -22.5q0 -8 5 -13.5t9.5 -9.5t5.5 -8t-7 -8q57 -14 122.5 -18.5t133 -3.5t136 3.5t134.5 -0.5 q23 14 51.5 22.5t63.5 8.5q6 12 17 20.5t20.5 16.5t13.5 19.5t0 27.5q18 -16 27.5 -10t18.5 20.5t23.5 27.5t44.5 11l19 -12h82q18 6 37.5 9t33 8.5t21.5 14.5t6 27zM373 -113q-16 -25 -49 -27.5t-62 1.5q-10 10 -10 26q0 14 10 25q12 -10 27.5 -11t29.5 -1q16 0 30 -2.5 t24 -10.5zM90 -23q-2 -12 -11 -16t-19.5 -5t-22.5 -1q-10 0 -17 -4q-10 10 -12 23.5t-2 27.5q12 -2 25.5 2t26 5t21.5 -5.5t11 -26.5zM-49 -18q0 -18 -14 -19h-25q-4 -4 -8 2t-4 10q0 6 7 13.5t16 10.5t17.5 0t10.5 -17z" />
<glyph unicode="C" horiz-adv-x="1048" d="M1491 115h-324l27 -64l111 8l-21 13q27 0 55.5 -1t56 2t52.5 12.5t43 29.5zM1174 31q-10 -4 -17.5 -2t-17.5 2v-15q6 2 12 2h14t8.5 2.5t0.5 10.5zM1485 -18l-55 28q-16 0 -34 4t-35.5 6.5t-33.5 1t-29 -11.5q-29 -2 -62.5 -7t-66.5 -5q-31 0 -56.5 11t-35.5 42 q-20 8 -23 2t-1 -16t2 -21q0 -10 -13 -12q-10 4 -18 14.5t-8 26.5q4 14 15 22.5t23.5 12.5t27 8t24.5 12q8 -6 8 -16t1 -19.5t7 -12.5t25 7q-16 10 -15 26.5t21 20.5q-51 14 -85 30t-56.5 29t-38 21.5t-29.5 10.5q-43 -14 -72.5 -22.5t-51 -15.5t-38 -15.5t-37.5 -22.5 q-61 2 -123.5 0t-126 -5t-126.5 -3t-127 8q2 29 22.5 40t40 20t28.5 24.5t-9 52.5q-12 27 -11.5 59.5t1.5 65.5t-7 62.5t-39 48.5q-10 14 -8 25t11.5 19.5t22.5 15.5t23 15q-4 10 -3 26.5t0 30t-7 22.5t-24 3q0 55 8 110.5t28.5 106t55.5 93.5t86 71q29 8 63.5 12.5 t67.5 4.5q35 0 67.5 -5.5t57.5 -19.5q68 -35 97.5 -97.5t33.5 -129.5q2 -31 17.5 -40t35 -7t41 9t37.5 11q-23 209 -201 344q6 10 16.5 11t20.5 1q12 0 21.5 2t11.5 13q-39 27 -84 41t-95.5 20t-103.5 7t-104 1q-18 -12 -40 -19t-42.5 -13.5t-36.5 -15.5t-25 -27q4 -6 13 -7 h20t18.5 -2t10.5 -12q-88 -47 -135 -127t-78 -164q-10 -10 -12 -23.5t-4.5 -25.5t-6.5 -23.5t-20 -15.5q0 -25 -13.5 -43t-25.5 -36.5t-18.5 -39t10.5 -47.5q41 -20 38 -37.5t-20.5 -36t-34 -39t-4.5 -46.5q16 -51 17 -113q0 -61 -17 -115q4 -6 12.5 -14t13.5 -17.5t5 -19.5 q0 -8 -10 -16h-215q-59 -6 -80 -22.5t-17.5 -38t20.5 -43t36 -36.5l151 -90q27 -16 66 -16q41 0 74 16q14 -10 32.5 -11t36.5 -1h37q18 0 37 -8l-21 -27q27 -47 73 -69.5t93 -49.5q59 -10 125 -15t130.5 1t125 25.5t109.5 58.5q20 53 26.5 75.5t9.5 34t11 17.5t33 27 q55 -18 88 -22.5t62.5 -0.5t61 12.5t83.5 16.5q18 37 44.5 39t56.5 -6.5t60.5 -14t59.5 14.5zM-111 176q-4 4 -13 2t-15 -2l22 -14q4 4 5 6zM551 92l-1 -4t-5 -8l-21 6q-8 6 -5 10t9.5 6t13.5 0t9 -10zM778 -135q0 -20 -15 -23.5t-26 -3.5l-110 35q37 10 81.5 14.5 t69.5 -22.5zM440 86q0 -16 -11 -12t-15 -2l-15 8q0 16 15.5 13t25.5 -7zM592 -121q0 -8 -7 -14t-17.5 -7t-20.5 2t-17 13q10 10 31 10t31 -4zM233 92q-4 -20 -24 -20h-37h-14q0 16 9 19t21.5 2t24.5 -3t20 2zM102 72h-41q-10 10 -4 19t11 9q10 0 20 -5t14 -9v-14z" />
<glyph unicode="D" horiz-adv-x="1089" d="M1417 23q10 31 8 43t-12 13t-23.5 -2t-25.5 -1l-305 -4q23 -31 55.5 -37t65.5 -12q31 12 66.5 8t67.5 -12.5t59.5 -10t43.5 14.5zM1038 184q-4 10 -18 13.5t-25 7.5q2 57 6.5 123.5t4.5 132.5q0 68 -6.5 132t-24.5 120q20 2 31.5 13t13.5 25.5t-1 31t-9 28.5 q-29 66 -77 126t-108.5 106.5t-130 73t-141.5 24.5v-43q-25 -10 -27 -22.5t4.5 -28t14.5 -31t2 -31.5q10 -4 29.5 -11t19.5 -30q31 -16 47 -43t28.5 -57.5t28 -60t43.5 -50.5l41 29q33 -51 48.5 -110.5t21.5 -122t5 -127t-3 -126.5q-10 -47 -19.5 -97t-37.5 -93 q-131 -4 -260 -7t-246 7l-21 64q-31 6 -36 18t1.5 28.5t14.5 35t0 36.5q-23 106 -22 230.5t8 234.5q23 31 37 60.5t4 66.5l-27 -8q-23 27 -23 70q0 45 23 71q37 23 72.5 7.5t66.5 -42.5q6 -6 16.5 -9t22.5 -3t22.5 4t16.5 15q-2 25 -1 50t1 50q0 27 -4 51.5t-16 44.5h-381 q-16 -4 -17.5 -17.5t4.5 -23.5q33 0 37 -11t-2 -28.5t-11 -36t11 -30.5l-35 35q0 -25 -5 -51.5t-5 -51.5t9 -46t36 -34q-8 -18 -4 -35.5t9 -34t6 -32.5t-11 -31l14 -598q0 -10 -8 -15t-16 -9.5t-11 -9.5t7 -15l-113 -14l64 -35l-50 -29l105 -6q10 25 29.5 30t42.5 5t45 1 t39 13q18 18 34.5 16.5t31.5 -9t31.5 -9.5t35.5 17q10 -27 -1.5 -33t-31 -5t-41.5 1q-20 0 -31 -13q37 -12 70 -16t64.5 -2t65.5 7t73 11q0 4 -1 12.5t-12 8.5l6 6q86 -4 166 -15.5t172 -11.5q10 27 33 31t47.5 3t45 2t28.5 28q-23 4 -48.5 -2t-41.5 14q12 6 18 17.5 t9.5 24.5t9.5 23.5t18 12.5q0 -10 6 -21.5t23 -5.5q12 12 20 41zM279 698h-7v-14q4 0 3.5 4t3.5 10zM1194 -45q-12 0 -11 -2t-2 -3t-17.5 0t-59.5 9q-23 -10 -36 -1t-36 9q-35 -16 -77 -19t-85 -3t-84 1t-69 -7q23 -4 48.5 -11.5t55.5 -3.5q45 -18 104.5 -27.5t112.5 -9.5 q55 0 95.5 6.5t46.5 18.5zM696 -61l-14 2t-35 -2q10 -16 26.5 -10t22.5 10zM596 -258q4 10 -3 19.5t-18 9.5q0 -6 -4 -24.5t17 -18.5q10 4 10 6zM594 -61l-197 6q-12 2 -23.5 -3t-20.5 -10.5t-17 -5.5q-6 0 -14 13l-478 6q-14 -25 11.5 -41.5t72.5 -25.5t106.5 -10t112.5 7 q8 12 12.5 20.5t8.5 12.5t10 8t17 8q45 2 98 -2t106.5 -6t104.5 1.5t90 21.5zM469 -209q-25 12 -48.5 16.5t-47.5 4.5q-25 0 -51.5 -1t-55.5 1q-25 -18 -51 -19q-27 0 -54.5 4t-56.5 4q-27 0 -49 -18q-6 -16 -8 -42t14 -42q96 0 197.5 -1t204.5 9zM-57 80q-10 0 -32 1 t-32 -9q6 -10 16.5 -13.5t20.5 -1.5t18.5 8.5t8.5 14.5zM-193 80q-16 0 -28 -1t-12 -7q10 -16 25 -9t15 17zM813 -61q0 -4 -16.5 -10.5t-26.5 10.5q16 4 23 3zM504 43q-10 -4 -24.5 -3t-10.5 17z" />
<glyph unicode="E" horiz-adv-x="921" d="M862 1044q2 23 5 49.5t4 52t-3 50.5t-14 43l-301 -6q0 -31 -18.5 -40t-44 -8t-55 6t-50.5 -1l-47 49q-63 -4 -124.5 0t-121.5 -6q0 -78 -15.5 -143.5t-25.5 -128.5q18 -16 14 -34t-10 -35.5t-5 -32.5t28 -25l14 -594l125 -7q14 27 15 59t0 64.5t0 65.5t14 61l454 15 q0 8 2.5 20t2.5 25q0 12 -4.5 22t-14.5 17h-432l-23 22v371q27 31 62 62.5t72 47.5q29 -2 65.5 3.5t71.5 6.5t62.5 -9.5t37.5 -41.5h260zM1178 -168q-2 8 -11.5 16.5t-19.5 18.5l-20.5 20.5t-12.5 20.5q-12 -31 -24 -31q-10 0 -22.5 10.5t-26 20.5t-31.5 0 q-16 -2 -20.5 -10.5t-4.5 -18.5q0 -12 1 -22.5t-5 -18.5l78 -14q14 0 30.5 6t32 11t30 4t26.5 -13zM1122 166h-1161q-12 2 -24.5 -3t-19.5 -14.5t-7 -21.5q0 -10 12 -18q31 -6 51.5 -7.5t38.5 -1.5t36 -3t40 -11q31 0 62.5 4t62.5 10q29 -23 39 -28.5t18 -5.5t22.5 2 t51.5 -2q20 2 39.5 11t39 16t41 11.5t48.5 -4.5q29 -12 63.5 -13t69.5 -2t65.5 -8t53.5 -34l-8 -6q-23 -6 -46.5 -3t-46 7t-45 6t-43.5 -4q-29 -8 -59.5 -5t-60 6t-57 0t-48.5 -21l35 -7q6 -6 22.5 -10t6.5 -24q-27 -10 -59.5 -7.5t-59.5 19.5l35 29l-76 14l-412 -4l-12 -82 l70 -10q27 14 37 18t22 3t35.5 -4t77.5 1q12 -20 10 -40.5t-8 -40t-9.5 -41t7.5 -46.5q10 -2 15 2t8 11.5t6 13.5t12 10q27 16 43 -2.5t26 -34.5q29 20 57.5 14t55.5 -13t49.5 -4t40.5 46l84 -6q18 -14 42 -13t48.5 2t46 -3t37.5 -29q18 16 19 39q0 20 -4.5 42.5t-4.5 45.5 t19 41q41 4 83 2t72 22q27 -12 52.5 -10t52 9.5t52.5 14.5t52 5q8 12 32 15t43 14.5t26.5 41t-15.5 99.5zM1016 125q6 -4 0 -6t-6 -8h-6q-6 6 1 10t11 4zM1038 55q-53 -10 -117.5 -8t-127.5 8q10 10 38.5 23.5t38.5 40.5q12 0 19.5 -11.5t12.5 -22.5t13.5 -16.5t24.5 7.5 q0 10 -7 27.5t13 21.5q10 -2 15.5 -17.5t10.5 -28.5t14 -19.5t30 10.5zM645 8q-6 -2 -4 -11t4 -18.5t0 -12.5t-14 7l6 35h8zM442 -6h-14q-6 6 1 12t13 -4v-8z" />
<glyph unicode="F" horiz-adv-x="937" d="M1188 -37q-82 4 -119 11.5t-52.5 17.5t-23.5 24.5t-32 30.5q-61 0 -128 4t-139 4q-39 -6 -65 -6q-25 0 -44.5 -2t-36 -5t-34.5 -15q-25 -2 -31 1t-9 11t-9 23.5t-29 37.5l-104 6l-21 56q20 14 24.5 39.5t3.5 54.5t0 58.5t13 52.5l422 6q0 37 4 76.5t-16 60.5 q-119 4 -239 1t-232 13q-14 45 26 68l21 328l14 34l518 15q6 41 8.5 88t-8.5 88q-197 6 -388 8t-384 -8v-553l41 -14q10 -35 -1 -67t-46 -48q0 -88 5 -180.5t-11 -176.5l-168 9q-49 0 -87 -5.5t-58.5 -21.5t-18.5 -46t37 -79l232 -22q6 6 -2.5 -2.5t-4.5 -10.5 q-37 -10 -32.5 -41.5t24.5 -52.5q10 8 14.5 14.5t10.5 10.5t20.5 6t44.5 2q0 -16 -3 -34.5t-3 -37.5q0 -20 4 -36.5t17 -26.5l219 6q4 14 3 33.5t-1 40.5q0 18 4 35.5t20 27.5q45 0 66.5 1t36.5 1q16 0 37.5 -3t68.5 -13q41 8 53.5 13t19.5 8t22 3q14 0 57 -2 q31 10 54.5 15.5t44 8.5t40 7t41.5 10q41 -10 96.5 -12t102.5 3t74.5 17.5t15.5 30.5zM-59 -131q-10 16 -31 20.5t-37 14.5q-10 -6 -11 -14.5t0 -18.5t1 -18q0 -10 -10 -19q8 2 22 2q12 0 26.5 1t26 7.5t13.5 24.5zM973 -49q-94 -4 -149.5 -8t-90.5 -9.5t-60.5 -10.5 t-61.5 -7t-90 -3t-148 3q16 20 46 21.5t56 -9.5q63 2 87 6.5t25 10.5t-7.5 12t-6.5 11t25 8.5t88 3.5l88 -15q23 2 49.5 5t50.5 3q27 0 53 -5t46 -17zM420 33q-47 -10 -101 -10q-51 0 -98 10q18 18 38 19t39 -2t39.5 -5t41.5 8zM186 25q-16 -16 -41.5 -13.5t-48.5 13.5 q2 14 14.5 19t27 3t27.5 -8t21 -14zM100 66q-2 -12 -10 -17.5t-18 -5.5t-20.5 3t-18.5 5l-21 15q6 4 17.5 6t23.5 2q14 0 26.5 -2t20.5 -6zM154 -78q-4 -16 -20.5 -14t-27.5 8l-14 6q4 16 27 17q25 -1 35 -17zM88 4q-37 0 -84 -5t-88 5q6 14 17.5 19.5t27.5 5.5 q14 0 29.5 -2t27.5 -2q6 -10 12.5 -13.5t13.5 -2.5t14.5 4t15.5 3zM66 -84h-21q4 0 9 5t12 1v-6zM-102 37h-29q10 6 16 10t13 4v-14z" />
<glyph unicode="G" horiz-adv-x="1081" d="M1303 -23q23 23 23.5 46.5t-28.5 33.5l-110 11l-152 -2l-26 12l-13 401q-47 4 -100 4h-102q-49 0 -97.5 2t-87.5 13q-20 -10 -24 -23.5t-2 -28t7 -31t5 -30.5l88 -20q41 10 86 10t86 -10l4 -82t-3 -80t-19.5 -75t-40.5 -62h-314q-29 10 -53 10q-23 0 -53 -10 q-35 8 -50.5 28.5t-21.5 46t-9 54t-13 51.5q41 41 35.5 100.5t-21.5 106.5q-35 12 -42 37.5t-2 56.5t13 62.5t4 56.5q41 25 51.5 64.5t16.5 80.5q25 31 10.5 53.5t-31.5 46.5q16 35 49 59.5t85 14.5q31 35 68.5 42t79.5 -1t85 -21.5t80 -19.5q31 -8 43 -28.5t19.5 -45 t15.5 -50t28 -42.5q8 -8 19.5 -5t25 10t26.5 14.5t30 7.5q10 25 -3.5 57.5t-23.5 61.5q0 20 18.5 18t28.5 2q-6 35 -21.5 62.5t-31.5 50.5q-41 57 -93 86.5t-111.5 42t-125.5 12.5h-131q-49 -10 -100 -30.5t-94 -51.5t-75 -72t-44 -94l39 -18q6 -16 -7.5 -23.5t-19.5 -17.5 q-20 8 -31.5 2t-18.5 -19.5t-10 -31t-5 -31.5q-6 -16 2 -20.5t17 -7.5t17.5 -7t2.5 -18q0 -31 -23 -44.5t-43 -9.5l-6 -79q10 -18 5 -31.5t-11 -25t-8.5 -24t14.5 -26.5q-18 -20 -19 -37q0 -16 9.5 -30.5t21.5 -27.5t18.5 -25.5t1 -26t-31.5 -27.5v-37q0 -16 3 -31.5t12 -28 t30 -16.5q16 -51 37.5 -100t15.5 -100q-49 0 -67.5 -1t-28.5 -1t-22.5 3t-49.5 11q-16 4 -32.5 -3t-33 -15.5t-32.5 -10.5t-35 11q-59 0 -88 -6.5t-63 -24.5q2 -33 11 -49.5t23.5 -22.5t32.5 -6q16 0 39 2q80 -12 131 -13t95 1t96 2q51 0 131 -10q8 -18 4 -20.5t-11.5 -0.5 t-17.5 5t-14 -5q16 -25 36.5 -46.5t49.5 -27.5q23 23 45 22t45.5 -10.5t47.5 -19.5t48 -4q20 -4 22.5 -17.5t-8.5 -29.5h7l9 -2t23 8q-4 6 -8 11t-4 16q16 20 38.5 15t47.5 -1q16 0 19.5 -8t7.5 -19q27 -8 51 -3t45.5 17.5t42 30t41.5 35.5q14 -4 11 -24.5t3 -34.5 q12 -18 31.5 -24.5t42.5 -6.5q25 0 48.5 4t43.5 6l6 119q12 20 20.5 27.5t15.5 8.5t18.5 -1t31.5 -2q18 -4 27.5 -3t17 3t17.5 2t30 -8q35 12 39 12t3 -3t4.5 -2t42.5 19z" />
<glyph unicode="H" horiz-adv-x="1136" d="M1221 -51q0 10 1 23.5t1 27.5t-3 25.5t-14 17.5l-139 2q-33 0 -43 12.5t-14 28.5t-9.5 32.5t-27.5 26.5v502q-23 10 -26 30.5t18 37.5q-16 4 -24.5 21.5t-8.5 31.5l41 8q4 12 0 19.5t-11.5 11.5t-16.5 7t-13 9q-16 31 -1 57.5t42 30.5v353l-15 20h-208l-15 -20 q2 -41 1 -85l-2 -88t2 -86t14 -81q20 -18 27 -44t7 -57q0 -29 -5 -57.5t-11 -50.5l-332 -6l-33 -35q0 23 -11 30t-26.5 8t-29.5 3t-21 14q-29 18 -37 43t-7 53.5t5.5 58t-2.5 54.5q20 25 28.5 53.5t10.5 59t1 62.5t1 63q-8 10 -8 24v29q0 16 -1 30.5t-11 24.5 q-29 -8 -56.5 -6l-55 4t-53.5 -1t-46 -17l8 -326q25 -4 35 -26.5t6 -47.5q4 -51 -5 -90t-9 -80q10 -47 13 -98t-7 -98q-10 -4 -25.5 -2t-15.5 -13v-399q-2 -25 -16.5 -33t-34.5 -8t-41 3t-35 -1q-27 -6 -36 13.5t1 39.5q27 4 55.5 6t59.5 9q6 4 6 12q0 10 -6 14 q-49 0 -63.5 5.5t-23.5 10.5t-26 5q-16 0 -67 -10q-18 8 -26.5 9t-17 -2t-23.5 -5t-48 0l12 -107q18 -12 32.5 -27.5t28 -31t29 -28.5t37.5 -21q47 16 92 19t90 7q12 -2 16.5 -10t4.5 -19q0 -12 -1 -24t1 -23q18 -12 42 -15t49.5 -2t53 3t52.5 2q31 -2 39 16.5t14 38 t18.5 30.5t50.5 -3q33 -12 68 -10t69.5 10t71.5 17.5t76 9.5q25 0 33 -13.5t10 -31t4 -36t15 -28.5l223 6q4 20 -2 43t14 39q20 2 33.5 3t25 -2t25.5 -9t37 -21q4 -2 18 -2t32 3.5t35.5 6.5t29.5 7zM-225 -31q-16 0 -26.5 -12t5.5 -23q6 4 16.5 11.5t4.5 23.5zM729 57 q-92 -10 -193.5 -7t-199.5 7q-12 14 -8 29.5t10 29t8 28t-16 28.5q-12 31 -10 65.5t5 69.5t-1.5 68t-28.5 61q-2 20 5 32.5t18.5 22t23.5 17.5t20 24q14 -33 27.5 -28.5t27 14.5t26 14.5t28.5 -28.5h244l14 -21v-331q-23 -4 -52.5 -2t-60.5 2t-60.5 -4.5t-51.5 -22.5 q2 -16 14 -21.5t27.5 -7.5t32 0t28.5 2q12 12 25.5 11.5t27 -5t26.5 -7.5t30 7q10 0 20 -15.5t-6 -31.5zM424 125q-8 0 -19.5 2t-21.5 2t-16.5 -5t-4.5 -20q0 -31 35 -20q4 6 15.5 15.5t11.5 25.5z" />
<glyph unicode="I" horiz-adv-x="468" d="M621 -53q8 55 -2.5 90t-32 51t-48 20.5t-49.5 -2.5q-16 -8 -31.5 -7t-29.5 6.5t-29.5 10.5t-31.5 5q-29 -10 -48.5 -18.5t-35.5 -16.5q-2 12 -4.5 36.5t-1 49.5t6.5 43t19 21l-24 32l6 256q10 0 24.5 -5t14.5 11v689l-13 20h-205l-12 -20v-570q2 -18 3 -37.5t5 -40 t12.5 -38t24.5 -29.5q2 -39 2 -80q0 -39 -7 -74t-21.5 -64.5t-38.5 -49.5l14 -7q0 -14 2 -32.5t3 -36t-3 -30.5t-16 -19q10 -20 14 -44t6 -49q-66 2 -131 0t-117 -10l21 -20q10 -20 25.5 -11t25.5 25q20 2 43 -2t46.5 -10t45 -10.5t41.5 -2.5q-4 -47 0 -90l12 -12h205 q10 14 12.5 29.5t2.5 32.5h8z" />
<glyph unicode="J" horiz-adv-x="774" d="M991 -37q6 41 -2 57.5t-23.5 20.5t-34 1t-30.5 1q-8 -4 -26.5 -3t-38 6t-34 14.5t-14.5 23.5q-23 -4 -23.5 -9t-4.5 -3t-21.5 13t-70.5 42q-4 47 -11.5 97t-44.5 87q-8 25 -1 43.5t16.5 36t13.5 33.5t-8 35q18 82 25.5 172t7.5 182t-4.5 185.5t-6.5 179.5q-43 6 -92 8 t-92 -8q-10 -133 -17.5 -263.5t-2.5 -257.5l6 -360l-21 -141l-8 8q-10 -25 -23.5 -27t-30 5.5t-32.5 15.5t-33 6q-6 -27 -21.5 -35t-35 -10t-41.5 -2q-20 0 -35 -11l55 -40l-6 -9q-23 -4 -46 -6t-40 15q-10 10 -3 23t18 17q-14 10 -46 18.5t-68 13.5t-72 8.5t-56 5.5 q-10 -35 2 -73t25 -61q2 2 5 -8t6 -22.5t8 -20.5t13 -4q23 -16 36 -44t19.5 -60.5t9.5 -65.5t5 -59q27 -33 70 -46.5t86 -2.5q10 33 37.5 43t60.5 11t65.5 4t55.5 26q14 0 20 -11.5t11.5 -24t12.5 -18.5t25 4q37 8 56.5 43t36 72t39 65.5t63.5 24.5l133 -12q90 6 125 -1 t42 -9t3 9t8 52zM-158 90q4 16 -10 19.5t-25 3.5v-23h35zM289 72q-6 -10 -19.5 -14.5t-23.5 -0.5q0 10 16.5 20.5t26.5 -5.5zM125 78q6 -4 -1 -12.5t-11 -8.5q-16 0 -17.5 18.5t8.5 24.5q10 0 13.5 -8t7.5 -14zM330 -125q0 -23 -25 -22h-39q-4 6 -14 1.5t-6 12.5 q16 16 38.5 14t45.5 -6z" />
<glyph unicode="K" horiz-adv-x="1103" d="M958 1124l-14 9q-31 -4 -63.5 -3.5t-65.5 0.5q-31 0 -61.5 -4t-59.5 -16q2 -10 -5 -21.5t-13 -20.5t-4 -16.5t22 -9.5q-8 -41 -26.5 -75.5t-41 -68.5t-44 -67.5t-33.5 -72.5l98 -27q8 -10 8 -22t-2 -22.5l-4 -21t4 -18.5q6 18 23.5 35.5t33 35t23.5 36t-4 39.5 q-20 16 -14 40.5t28 28.5q29 -6 48.5 4.5t34 26.5t26.5 36.5t29 37.5q6 12 -2.5 19t-16.5 13.5t-11 12.5t9 16q12 20 32.5 24.5t37 8.5t26.5 15t2 48zM1040 274q-10 14 -25.5 2t-15.5 -22l7 -8q10 6 22 9t12 19zM903 399q-6 16 -26.5 20.5t-36.5 14.5l-6 -14 q16 -10 31 -23.5t38 2.5zM1110 158q4 10 1 22.5t-9 18.5q-16 -10 -19.5 -29.5t7.5 -19.5zM1075 135l-20 8l-8 -14q10 -4 19 -1t9 7zM266 1022q-16 -10 -30.5 -28.5t2.5 -35.5q6 -16 5 -32.5t-1 -32.5q0 -14 3 -24.5t15 -12.5q20 31 23 82t-17 84zM819 371v20 q-6 16 -19.5 25.5t-28.5 10.5t-27.5 -6t-14.5 -22zM1192 25q-2 14 -3 23t-8 16.5t-21.5 13.5t-43.5 14l-151 -4l-21 41q6 8 9 21.5t8.5 23.5t13.5 13t24 -9v12q-27 0 -48 8.5t-42 -8.5q-29 16 -34 9.5t-5 -21.5q0 -14 -2 -30.5t-22 -18.5q23 -4 41 -8t28 -27 q-16 -10 -30.5 -8t-30.5 2q-6 12 -17.5 16.5t-22.5 5.5t-20.5 5t-9.5 20l35 15q0 31 -23.5 41t-45.5 14l8 14q12 25 39.5 48.5t62.5 13.5q0 16 5 37.5t-11 31.5q-16 -4 -26.5 0t-14.5 -6q-16 -27 -44 -47.5t-54 -36.5q-16 10 -19.5 28.5t-7.5 35.5q2 2 8 1t11 -1q6 0 8 2 t0 10q-25 0 -41.5 14.5t-28.5 36t-21.5 46t-19.5 42.5q-16 0 -32.5 3t-22.5 24q0 6 8 13t12 7q25 39 14.5 60.5t-35 35t-52 25.5t-37.5 33l14 26q-4 0 -10 2.5t-10 -8.5q0 -4 3 -5l3 -1q-8 -6 -14.5 -14t-13.5 -14.5t-15 -9.5t-19 3q-16 -53 -20 -111.5t-15 -109.5 q10 -10 17.5 -22.5t23.5 -12.5l35 47q18 8 29.5 2t21 -17t18.5 -24.5t21 -21.5l105 -262q6 -16 -7.5 -30.5t-33.5 -4.5q-18 12 -45 12q-25 0 -50.5 -1t-49 5.5t-35.5 30.5q-37 16 -70 1t-70 -21q-35 14 -34 49q27 23 38 49.5t14 55t2 58t1 58.5q-16 0 -32.5 -5t-22.5 5 q-10 -27 -6 -49.5t8 -43t1 -40t-30 -39.5q-16 78 -12 166t-2 172l20 20q16 -16 13 -37.5t-13 -37.5q16 -10 36.5 0t27.5 26q-6 31 -1 70t6 77t-8.5 70.5t-39.5 53.5q-10 -16 -8.5 -36t4 -39.5t-1 -39t-21.5 -31.5q-16 84 -12 182.5t-2 192.5l-21 20q27 16 52.5 11.5 t52.5 -4.5l6 75q-20 10 -40 0t-36 -26q-8 20 -25.5 27.5t-40.5 7.5t-45 -4.5t-41 -4.5q-6 -41 -8 -91t15 -81q4 4 10 12.5t16 8.5q16 -78 13 -170t-13 -176l-12 -6q-10 2 -13.5 7t-2 10t4.5 11t3 13l-6 6q0 -23 -6.5 -51.5t-8.5 -54t5 -48t36 -33.5q10 -68 15.5 -141.5 t-1.5 -140.5q-18 -35 -29 -49.5t-24.5 -18.5t-34 -1t-57.5 5q-12 -23 -12 -35q0 -10 -3 -15t-18.5 -6t-56.5 -3q-20 16 -42 31.5t-48 9.5q-37 -49 -54.5 -60.5t-23.5 -16.5t-2 -18.5t10 -64.5q25 4 33 3t11 -6l6 -10t16.5 -9.5t42 -6.5t84.5 4q12 0 27.5 5.5t30.5 6.5 t27.5 -3t20.5 -23l29 -43q20 2 24.5 -18.5t0 -50t-9.5 -58.5t-3 -41q31 -20 81 -18t85 12q41 -20 51.5 -11t10.5 31q0 23 -2.5 47.5t16.5 34.5h422q27 -10 36 -32.5t19 -49.5q25 -20 56.5 -27t66.5 -7q37 0 74 3t67 3q-6 16 -5 37.5t-15 31.5l-23 -14l-12 14 q-16 27 -15 42.5t9 26.5t19.5 22.5t17.5 29.5l90 23q43 14 63.5 25.5t27.5 22.5t5 27.5t-4 43.5zM1040 12q-6 -12 -13 -13t-15 3t-16.5 8t-16.5 2q8 -4 15 0t15.5 7.5t14.5 3.5q8 -1 16 -11zM1020 -37q-16 0 -30.5 -5t-24.5 5l14 21zM647 -37l-55 6q-14 37 12 64 q23 -6 30 -26.5t13 -43.5zM252 -223l-21 -21q-10 4 -14 17.5t0 23.5q10 0 20.5 -8t14.5 -12z" />
<glyph unicode="L" horiz-adv-x="786" d="M879 -14q29 -6 41 16.5t8 54t-23.5 66.5t-50.5 57h-94q-27 0 -40 1t-24 1h-47q-35 0 -107.5 -1t-207.5 -3l-23 21v219q27 12 30 31.5t1 39t-2 39.5t22 37q8 37 3 68t-12 60.5t-9 58t10 59.5q-10 31 -9 59.5t7 58t10.5 61.5t-0.5 69q-16 37 -39.5 62.5t-23.5 64.5 q-23 -8 -43 -1t-38.5 15t-34 6t-25.5 -28l6 -220q-4 -20 -21.5 -16t-27.5 4q8 -55 7 -112.5t-4 -116t-6 -117.5t3 -121l49 -35l-6 -260l-29 -6l-82 -4l-29 27q-33 4 -61.5 1t-44.5 -30l-2 -276l164 -9q27 2 33 -9t6 -30v-38t10 -35q117 -4 240.5 -2t230.5 2q8 2 16 8t15.5 9 t15.5 2t16 -11q16 20 17.5 24.5t0.5 5.5t-1 5q0 2 12 20l-14 74l-195 10l17 25q43 4 64.5 18.5t57.5 30.5q14 -10 22.5 -15.5t14.5 -6.5t15 -1q8 0 20 4q23 23 53.5 21t53.5 -6q27 0 33 -3t9 -5t9 -3t33 5zM141 305v14l-20 9q-43 -23 -91 -35t-85 -29q47 -10 98 5.5t98 35.5 zM-129 221q-8 12 -14.5 13.5t-13.5 -5t-13 -14.5t-14 -14l20 -8q16 -4 28.5 4t6.5 24zM752 76q0 -16 -23 -17q-20 0 -20 17h43zM688 76q-10 -10 -21.5 -8t-21.5 2q0 16 16.5 14t26.5 -8zM666 63q10 -20 -9 -20q-80 4 -147.5 7t-140.5 7q12 20 33.5 27.5t46.5 7.5t49 -3 t47 -3q33 -16 61 -16q31 -1 60 -7zM252 328l-1 -6q-1 -5 -5 -9h-15v21q4 0 12.5 2t8.5 -8zM166 51l-21 15q4 0 9.5 1t11.5 -10v-6zM94 51q-16 2 -32.5 -2t-32 -7t-29.5 -2t-25 17q27 10 57.5 11.5t61.5 -2.5v-15z" />
<glyph unicode="M" horiz-adv-x="1368" d="M836 711q-4 -16 -14.5 -23.5t-0.5 -23.5h8q20 4 13.5 20.5t-6.5 26.5zM1714 -297q-31 0 -60.5 19.5t-49.5 35.5l-21 -61q10 -10 21.5 -26.5t33.5 -16.5q8 6 19.5 8t24 6t21.5 11.5t11 23.5zM1694 -18q-4 55 -11.5 86.5t-58.5 42.5q-23 -18 -46.5 -14.5t-47 13t-47 14.5 t-45.5 -13q-8 -12 -20.5 -17.5t-26 -3.5t-23.5 7t-12 14l-8 -15q-31 -2 -36 -4t-7 -2l-7 3q-8 3 -41 11l-8 842q-25 0 -34 12.5t-10 32t2 41t1 39.5q2 14 -5 21.5t-17 10.5t-20.5 5t-12.5 10q10 6 24.5 12.5t4.5 16.5q-16 4 -41 4t-29 -4q4 -16 14.5 -20.5t20.5 -14.5 q-27 -16 -60.5 -12t-64.5 4q-27 -16 -37 -44t-4 -59q-37 -25 -46 -60.5t-12 -73.5t-12.5 -72.5t-46.5 -55.5q18 -35 14 -65.5t-16 -61t-26.5 -61.5t-20.5 -62q-8 -10 -18.5 -16t-19.5 -12t-16 -15.5t-7 -23.5q14 -16 11 -26.5t-12.5 -18.5t-17.5 -17.5t-4 -21.5 q-12 -12 -14 -26.5t-1 -28t2 -25.5t-7 -22q-12 -25 -25.5 -27t-27 2t-30 9t-34.5 -5q-61 160 -105.5 334t-101.5 336q-23 115 -76 219q-27 -2 -53.5 -1t-52.5 1q-25 0 -49.5 -4t-44.5 -17q0 -18 4 -42.5t4 -47.5t-10.5 -39t-38.5 -16v-571l26 -43q-23 -18 -28 -46t-3.5 -58 t0 -59.5t-15.5 -49.5q-84 8 -129 10t-65.5 -2t-23.5 -17.5t-3 -38.5q16 -6 74.5 -14t128.5 -12q16 4 16 -8q0 -10 4 -21q-25 -8 -68.5 -9t-80.5 -6t-57.5 -17.5t-0.5 -43.5q33 -6 44.5 -7t17.5 -1t16 -1t43 -5q16 -18 28.5 -15t26 12t27.5 17.5t37 -2.5q23 -10 29 -29.5 t6 -41.5q0 -23 -3 -45.5t1 -40.5q27 -10 52.5 -9.5t51.5 0.5l15 160q20 0 50.5 -5t51.5 11q20 -10 43 -10t46.5 2t45 -1t39.5 -17q0 -23 17.5 -21t23.5 13q20 -16 25.5 -45t12.5 -53.5t24.5 -38t62.5 4.5q18 6 25.5 16.5t10.5 25t4 29.5t7 28q2 31 20.5 39t40.5 8 q23 0 45.5 1t32.5 19q18 -25 33.5 -20.5t32 16t34 16.5t37.5 -18q37 14 52.5 9t20.5 -22t3 -42t-2 -47q0 -25 7.5 -42.5t29.5 -21.5q12 -12 9 -21t-12 -16.5t-18.5 -14.5t-7.5 -17q8 -29 24.5 -35t38 -3t43 7t40.5 -4l35 104q16 27 1.5 53.5t-51.5 22.5q-4 23 5.5 31t25 12 t30.5 9t23 24q20 0 27.5 -4t10.5 -7l3 -3q2 0 9 8q12 -16 15 -38t3 -46q0 -25 -1 -50.5t3 -45.5q12 0 17.5 7t7.5 16t2 22q0 10 2 18q29 8 39 25.5t14 39t7 42t16 36.5q29 12 52 9.5t44.5 -13t43 -24t46.5 -19.5t39 2.5t19 23.5t-1 36t-22 37zM1028 -297v14q0 12 -7 18.5 t-16.5 5.5t-15.5 -7t-2 -17q4 -16 17.5 -17t23.5 3zM905 -207q-6 20 -23.5 11t-17.5 -25q0 -14 13 -15q10 0 19 9.5t9 19.5zM195 -510q0 20 -17 21h-33q-10 -6 -24.5 -19.5t-3.5 -30.5q10 6 23.5 5t25.5 -1t20.5 4.5t8.5 20.5zM1374 0l-160 6q-8 8 -6 16.5t8.5 16.5t13.5 15 t13 16q8 -12 22.5 -11.5t26 4t15.5 -1t-9 -26.5q8 -12 24.5 -11t31 4t22.5 -1t-2 -27zM1071 442q-35 -35 -42 -77.5t-7 -90.5q0 -47 1 -93t-15 -85q-18 2 -42 0t-48.5 -3t-45 5t-30.5 27q0 47 3 99t25 93q10 8 11 17q0 10 -1 21.5t-2 20.5t7 17l35 70q4 -16 4 -31 q0 -14 16 -24q23 14 32 39.5t14 53t13.5 52.5t28.5 41q6 -31 -2 -70t2 -75zM276 856l-34 -35q-10 16 -11 37q0 23 11 39q23 0 26.5 -15.5t7.5 -25.5zM1053 51q-16 -4 -39 -7t-41 11q8 18 18 19.5t20.5 -2.5t21 -12.5t20.5 -8.5zM946 55q-10 -2 -13 -13t-5 -22.5t-8.5 -20.5 t-22.5 -5q-12 8 -25.5 7t-28 -2t-26.5 1t-22 14q-6 10 -1 25.5t21 15.5q31 4 65.5 0t65.5 0zM711 117q0 -20 -18.5 -21.5t-28.5 -5.5q-16 0 -29.5 12.5t-20.5 22.5l9 47q12 -12 30.5 -10t33.5 3t23.5 -7t0.5 -41zM422 117q-31 -4 -72 -5t-67 19q-2 12 -1 27.5t1 29.5 q0 16 -4.5 29.5t-16.5 24.5l-26 -15q-10 59 -6.5 116.5t10 113t8.5 108.5t-12 105l6 20q0 -10 18.5 -15t22.5 15q2 2 5 10.5t7 14.5t9 9t13 -5q27 -53 34 -107.5t30 -107.5q-6 -2 -15.5 -1t-19.5 1q-8 0 -14 -4t-6 -17q8 -47 23.5 -92t31.5 -89t28.5 -90t12.5 -95zM690 41 q-10 -10 -20.5 -8t-20.5 2q0 10 -5 23.5t5 17.5zM492 131q0 -4 -4.5 -11t-4.5 -3h-14v20q6 0 14.5 -1t8.5 -5zM422 14q-8 10 -17.5 9.5t-20.5 -2t-20.5 0t-17.5 13.5q16 10 34.5 5t41.5 -5q4 -4 2 -10.5t-2 -10.5zM317 35q-12 -2 -30.5 -10.5t-32.5 -10.5t-19.5 5.5 t7.5 35.5z" />
<glyph unicode="N" horiz-adv-x="1126" d="M862 475q10 4 -3 14.5t-17 26.5v-41q-6 -10 4 -8t16 8zM1176 94q-18 12 -41 17.5t-64 -0.5q-16 -16 -24 -17q-6 0 -10.5 7.5t-9.5 16.5t-15 15q12 6 18 17.5t11.5 23.5t10.5 21.5t15 13.5q-16 23 -20.5 51.5t-4.5 58.5q0 31 1 62t-5 59v39q0 23 -3 43.5t-11 36.5t-27 25 q8 33 3 70.5t-7 73.5t7.5 66.5t46.5 49.5v252l-21 20q-23 -2 -49.5 -1t-52.5 1q-25 0 -48.5 -4t-41.5 -16v-252l49 -41v-363l-49 -20q-2 -25 -1 -50.5t2 -49t-1.5 -45t-12.5 -39.5q-37 51 -61.5 107t-61.5 112q-12 18 -19 43.5t-18.5 48t-31 38t-54.5 13.5 q-31 51 -67.5 101.5t-42.5 115.5q6 6 15 7t17.5 3t13.5 7.5t3 17.5q-37 66 -66.5 135.5t-76.5 130.5l-267 -6l-8 -172q0 -12 5 -25.5t9.5 -27t4.5 -27.5q0 -12 -11 -22q31 -10 39.5 -34t7.5 -53.5t-6.5 -62.5t0.5 -61q-35 -53 -43 -120t-8 -138q0 -70 3 -140.5t-7 -134.5 l-14 -6q-10 0 -13.5 11.5t-13.5 15.5q-16 10 -30.5 -0.5t-30.5 -20.5q-23 -4 -40.5 -3t-49.5 -9q-29 -18 -36 -42t-1 -44.5t21.5 -34.5t27.5 -16q23 -2 43 -2q18 0 35 -21q18 -10 16 -18t-8 -15.5t-7 -15.5t19 -18q23 4 41.5 20t28.5 33q20 -10 20 -33l-20 -14l37 -43 q18 -18 28.5 -12t21.5 19t24.5 24.5t35.5 2.5q12 10 18.5 14.5t8.5 8.5t0 10t-8 23q-2 8 36.5 18t91 16.5t105.5 9.5t78 -1q27 12 52.5 8t50 -12t48 -13.5t46.5 5.5q6 0 16 -9.5t4 -19.5q-20 -10 -43.5 -12t-46.5 -1t-44.5 2t-35.5 -1q47 -31 96.5 -30t102.5 1 q20 -16 15 -33.5t-9 -34.5h6q10 -4 22.5 -11t12.5 -24q27 -25 67.5 -21.5t75.5 9.5q-4 20 12.5 33.5t22.5 13.5q-6 10 -18.5 20.5t-16.5 20.5q12 12 15.5 24.5t2.5 24t-4.5 23.5t1.5 25q23 12 28.5 15t9 2l10.5 -3t36 0q53 -4 76.5 16.5t28.5 46t-3 50t-16 30.5zM-115 -195 q-4 16 -17 15.5t-30 -0.5q-16 -10 -3 -27.5t24 -28.5q-12 -16 -10.5 -27t7 -23.5t9.5 -25t-6 -26.5h14q6 18 7 35.5t1 36.5v35q0 16 4 36zM-53 -432q0 16 -3 31.5t-24 15.5v-76h12q6 6 10.5 12.5t4.5 16.5zM-121 -543q-4 10 -4 23q0 12 -10 12v-35q-4 -4 4 -4q6 0 10 4z M883 297q-10 -4 -8 -14.5t-13 -6.5q2 6 -2 12.5t-7 12.5t-2 12t11 11q10 6 15.5 -5.5t5.5 -21.5zM596 106q-61 -27 -134 -22.5t-140 14.5q6 12 4 32t-3 39t4 35.5t23 24.5l-20 21l-15 225q10 20 11.5 53t-17.5 50q-25 20 -31 46.5t-5 57.5t4.5 61.5t-3.5 59.5 q25 25 40.5 19.5t26.5 -25t18.5 -43t17.5 -33.5q2 -16 -9.5 -21.5t-21.5 -10.5t-15 -14t11 -30l49 -41q0 10 12.5 23.5t28.5 -2.5q4 -4 2 -10.5t-2 -10.5q-8 -6 -17 -3t-17.5 5t-14.5 -1t-6 -21q23 -39 40 -79t33.5 -81t36 -80t48.5 -74q0 -16 -2.5 -28.5t-18.5 -12.5 q39 -10 57.5 -51t24.5 -72zM152 276q10 -20 -3.5 -32.5t-17.5 -28.5q-10 6 -14 16.5t-1 20.5t11.5 17t24.5 7z" />
<glyph unicode="O" horiz-adv-x="1124" d="M1341 23h-301q0 14 -7 22t-16 13t-18.5 10.5t-11.5 15.5q2 12 9.5 15t15.5 3h16t12 9q2 12 -4 15t-15 5t-16.5 6t-3.5 21q4 12 11.5 14t15.5 0t16 -2t17 6q10 31 -7.5 52.5t-31.5 41.5q4 10 13 13.5t20 7.5q0 12 -6 20q18 20 12 43t-15.5 45.5t-11.5 43t27 36.5 q20 4 12 23.5t-12 36.5q-35 0 -43 18t-7 44t3 51.5t-13 39.5q0 10 9.5 16.5t18.5 11.5t11 13t-12 21q-23 -8 -34 0t-17 22.5t-8 30.5t-8 27l47 12q-20 121 -121 215q-43 39 -94.5 60.5t-106.5 29.5t-114.5 9t-118.5 1q-51 -10 -100.5 -32.5t-91.5 -56.5t-73.5 -76t-50.5 -89 q-10 -41 -28.5 -80t-18.5 -73q37 -8 42 -26.5t-3 -43.5t-16.5 -52.5t4.5 -51.5q-8 -18 -23.5 -25.5t-28 -16t-16.5 -20.5t8 -39q-4 -8 0 -9t11.5 0t15.5 1t12 -6l6 -174q-4 -12 0 -25.5t8.5 -26t2.5 -21.5t-17 -15q16 -10 25.5 -26.5t9.5 -33.5q-6 -8 -13 -10t-13.5 -3 t-10.5 -3t-4 -10q2 -10 10.5 -12.5t16.5 -2.5q10 0 19 -3t14 -15q23 -33 17.5 -41t-23 -7t-38.5 1q-18 0 -22 -14q-53 -8 -72 -9q-18 0 -29.5 4.5t-27.5 10.5t-66 12q-12 -10 -24 -8t-24.5 5t-26 5t-25.5 -8q-27 0 -36 -11.5t-7 -23.5t13.5 -19.5t23.5 1.5q57 -10 96 -11 q39 0 92 11q14 -12 29.5 -13.5t31 0.5t32 4t34.5 -6q31 6 33 6t0 0l5 1l40 8l14 -19q-33 -16 -33.5 -31.5t8.5 -32t17 -33t-6 -30.5q20 -6 38.5 -10t29.5 -25q55 -45 125.5 -69.5t145.5 -30.5t148.5 5t137.5 36q23 4 40 19.5t33.5 32t36 29.5t43.5 13q-16 16 -9 31.5 t19.5 32t23.5 33t5 36.5q47 0 91 5.5t92 0.5q35 -2 57 -2q25 0 42 4.5t32.5 15t33.5 30.5zM881 424q-16 -14 -18.5 -36.5t-2.5 -43.5q-16 -25 -23.5 -57.5t-2.5 -63.5q4 10 10 12.5t16 2.5v-39q0 -20 -5 -39t-17.5 -30t-36.5 -7q-8 -10 -6 -15.5t8 -9.5t13 -7t11 -7 q-10 10 -21 8t-20.5 -9t-16.5 -18.5t-9 -21.5l-15 -20l-434 14q-16 10 -18 26.5t-2 32.5q10 4 22 4t19 11q-4 14 -17.5 20t-28 10t-22.5 13.5t0 29.5q20 -6 39 -7t29 20q4 16 -13 16q-16 0 -22 4q-2 12 -13.5 24.5t-19.5 25t-8 22.5q0 12 20 22q14 0 15 13q0 10 -11.5 12 t-21.5 2h-8q-10 23 -3 26t17 3q12 0 22.5 2t4.5 22q-18 -8 -27.5 -3t-13.5 16.5t-5 26.5t-1 28q6 8 17 12t21.5 10t14.5 16.5t-6 26.5q-33 8 -38 28.5t0 48.5t12 58.5t-1 59.5q39 0 59.5 20.5t35 50t27.5 60.5t38 51q41 31 94 45.5t109 -6.5q49 -25 92 -70t67 -90 q0 -16 2.5 -32.5t18.5 -20.5q18 10 27.5 6t15.5 -14t9 -23.5t7 -23.5q-4 -18 0 -39t7.5 -40.5t-3 -32.5t-30.5 -15q-10 -8 -11 -17q0 -6 3.5 -14t6.5 -16.5t1 -18.5q8 -4 19 -8t19.5 -10t10.5 -15.5t-8 -21.5zM692 -18q6 -20 -12 -35t-35 -25q-49 -25 -104.5 -10.5 t-96.5 43.5q47 20 104.5 19t117.5 -5q4 4 10 6.5t16 6.5zM827 184q-6 10 -4 14.5t-4 4.5l-26 -19h34z" />
<glyph unicode="P" horiz-adv-x="972" d="M1053 -98q-14 6 -25.5 0t-21.5 -6q10 -4 26.5 -7t20.5 13zM1001 180q-10 4 -17 9.5t-17 11.5q-123 -6 -249 -5t-237 -10h6q33 -16 73 -17t81 -1t78 -2t65 -21q20 14 48 18.5t57 4.5q31 0 60 1t52 11zM1118 14q14 31 -3 41.5t-38 14.5q-45 -8 -93 -3t-98 12t-101.5 14 t-102.5 5q-10 -4 -16.5 3.5t-11.5 14.5t-11 7t-16 -19q-12 8 -26.5 4t-29 -7t-25.5 0t-20 24q-16 10 -26.5 3t-20.5 -9l-184 -15q2 20 -7 29.5t-21.5 15t-21.5 12.5t-3 25q18 2 34.5 8.5t32 11.5t30.5 7t32 -6q-31 16 -61.5 25.5t-61.5 9.5q0 14 -4 32.5t-6 38t-1 39 t11 37.5q98 4 183 13.5t183 27.5q53 10 95.5 42t72 77t49 96t25.5 103q-4 20 3 26t18.5 8t23.5 5.5t17 15.5q-12 18 -14.5 39.5t-2.5 44.5t-2 44t-14 40q-27 90 -77 141t-115.5 75.5t-142.5 30t-157 3.5t-160.5 -5.5t-152.5 5.5l-14 -21v-397l47 -35v-508l-21 -39 q2 -14 3 -34.5t0 -39t-6 -30t-17 -4.5l-111 4q-63 0 -96 -20.5t-23 -30.5q4 -20 -8 -25.5t-29 -5.5h-32t-19 -10q12 -6 15.5 -15.5t3.5 -19.5v-25q0 -12 8 -22q12 -2 51 -1t84 2t83 -2t48 -14q-4 0 -6 -5t-6 -1v-26l39 6q12 -18 15 -40t3 -44q0 -25 -1 -48.5t3 -43.5 q14 0 21 8q-10 25 2 44t32.5 36.5t42 36t27.5 40.5q14 2 42 11.5t60.5 13.5t67.5 -2t64 -33q14 -14 12 -27.5t-5 -26.5t-2 -24.5t21 -21.5q20 10 39 24.5t29 36.5q20 -14 20 -41l45 -4l31 15q16 -10 36.5 -22.5t31.5 7.5l-6 15q-14 27 -26.5 47t11.5 30q16 20 15.5 29.5 t-0.5 30.5q10 6 24 5t28.5 -3t26.5 -2q14 0 23 8q-6 18 -15.5 17t-19.5 -4t-19.5 -4t-13.5 18q29 4 59.5 2t61.5 -2q4 -16 -3 -19.5t-17 -7.5q6 -6 16 -16.5t22.5 -20.5t21.5 -16t11 -2l21 18q-27 10 -28 26.5t24 26.5q61 0 98 12.5t92 28.5zM-72 242q-12 12 -31.5 16 t-37.5 4q-20 0 -40 -3t-32 -5q12 -12 31.5 -17.5t42.5 -5.5q20 0 38.5 3.5t28.5 7.5zM365 -178q-6 16 -19.5 18t-28.5 2q-8 -8 -8 -14q0 -8 5 -16.5t11.5 -15.5t10.5 -15q-12 -16 -10 -26.5t8 -20.5t9 -21.5t-7 -25.5h14q14 35 9.5 67.5t5.5 67.5zM424 -408q0 10 -3 28 t-24 11v-67h15l8 12t4 16zM356 -516q-4 4 -3 15.5t-9 11.5v-27q-6 -6 0 -6q8 0 12 6zM-725 31q-35 16 -70.5 8t-72.5 -8q0 -4 1 -9.5t7 -11.5q18 0 38.5 -3t39.5 -3q18 0 33.5 5.5t23.5 21.5zM702 774q10 -55 -1 -104t-48 -90q-80 -57 -181 -64.5t-204 2.5q-18 10 -12 22.5 t15.5 26t10.5 26.5t-26 25q-23 31 -17.5 76t9.5 80l35 14q8 27 8 58v63q0 31 3 61.5t15 55.5q49 2 98.5 0t93.5 -15.5t80.5 -41t59.5 -78.5q18 -10 19.5 -30.5t1.5 -41.5q0 -20 5.5 -33.5t34.5 -11.5zM553 571q-10 10 -22.5 4t-12.5 -10q10 0 20.5 -2t14.5 8z" />
<glyph unicode="Q" horiz-adv-x="1138" d="M537 1096q-10 4 -15.5 -2.5t-11.5 -10.5q6 -6 8 -12t12 -2q4 0 8.5 8.5t-1.5 18.5zM401 1063q-29 -8 -35 5t-6 34q0 23 2.5 46t-8.5 36h-14q-10 -41 -6 -91.5t14 -84.5q4 8 13.5 13t18.5 11t15 13.5t6 17.5zM1528 -25q-10 6 -29.5 5.5t-25.5 -11.5l28 -26q14 0 20.5 1 t7.5 4t0 10t-1 17zM1460 -57v20q-10 0 -22.5 -8t-12.5 -12h35zM1364 -57q-16 16 -37 16q-20 0 -37 -16q16 -6 37 -6t37 6zM1147 92l-39 21q-8 -10 -4 -15.5t11 -7.5t17.5 -1t14.5 3zM1243 -57q-16 4 -33.5 7t-27.5 -7q6 -18 15 -22.5t18.5 -1.5t16.5 10.5t11 13.5zM1243 -16 q-31 18 -63.5 23t-66.5 7t-68.5 5.5t-67.5 15.5q-35 25 -30 33t24.5 13t40 13t14.5 33l-47 12q4 20 1 46t19 42l13 402l-13 41q0 12 -1 28.5t1 30.5t11.5 24.5t29.5 10.5q10 10 3 23.5t-17 23.5q-35 0 -50 19.5t-23.5 47t-17.5 56.5t-32 47q6 16 21 16q16 0 26 4 q6 31 -16.5 47.5t-42.5 26.5q8 25 -2 35t-25.5 16.5t-31 14.5t-17.5 30q-66 35 -139.5 46.5t-151.5 1.5l-20 -41q-41 -10 -63.5 -30t-18.5 -65l12 -20t23 0q25 4 28.5 24.5t3.5 42.5q6 10 18.5 16.5t22.5 -3.5q4 23 5 43q0 20 30 24q10 -10 12.5 -25.5t1.5 -32.5t-2.5 -35.5 t1.5 -33.5q0 -23 16 -26.5t33 6.5q10 -4 11 -8t-1 -10.5t-4 -12.5t0 -10q10 0 20.5 -5t20.5 -10.5t22.5 -6.5t24.5 8q23 -16 39 -37t28.5 -44.5t23.5 -48t24 -47.5q-2 -12 -11.5 -19t-17.5 -12t-11 -13.5t7 -22.5q27 6 36 -7.5t12 -32.5t5 -40.5t14 -34.5q-6 -59 -2 -121.5 t4 -124.5q0 -61 -8 -119.5t-35 -109.5q-23 10 -34 3t-18 -21.5t-15 -27.5t-27 -15l27 -33q0 -10 -8.5 -12t-18.5 -2q-18 -47 -52 -58.5t-73 -6.5t-80 15.5t-73 8.5q-10 10 -29 10h-33q-14 0 -25.5 7t-9.5 30q-20 6 -34.5 -8.5t-18.5 -24.5q-16 -6 -36.5 -8t-30.5 14 q-4 16 -9.5 38.5t15.5 22.5q10 -8 21.5 -2.5t21.5 11.5t20 6t19 -15l305 7q-18 23 -41 25.5t-47.5 -1.5t-51 -7t-51.5 9q-20 -4 -37.5 -3l-35 2t-34 0t-34.5 -11q-8 4 -18.5 3t-20.5 -1t-18 4t-11 21v833l-14 21l-26 -27q-16 -20 -25.5 -51t-22 -57.5t-31 -42t-51.5 -5.5 v-61q37 -10 41.5 -30.5t-3 -45t-15.5 -53.5t4 -53q-18 -41 -17 -80t8 -77t14 -77t1 -80q10 -20 12.5 -45.5t-18.5 -42.5q-18 8 -27.5 0t-17.5 -19t-18.5 -17.5t-30.5 3.5q-6 -23 14.5 -26.5t42 -5.5t35.5 -13.5t-4 -50.5q-29 -20 -49.5 -18t-39 14t-37.5 26.5t-44 18.5 q-10 -20 -27.5 -15l-31.5 9q-47 -8 -57.5 -9t-15.5 1t-17.5 3t-63.5 -1q-10 -2 -20 -2t-18.5 -2t-13.5 -8.5t-3 -20.5l32 -39q-12 4 3.5 -2t37 -17.5t41 -21.5t13.5 -12h63q23 0 38 -1t30.5 -2t42.5 -1q18 12 37.5 10t38 -8t37 -9t36.5 7q47 -31 90 -20.5t95 26.5 q33 -2 35.5 -15.5t-4.5 -29.5t-14 -35.5t3 -34.5l59 6l-6 89q31 39 73 35.5t83 -9.5q-10 -10 -19.5 -31.5t-33.5 -21.5q-23 -18 -25 -36.5t7.5 -36t25.5 -32t33 -24.5q4 -33 0 -70t-5 -71.5t9 -65.5t43 -51q31 -41 72.5 -59.5t89 -24.5t97.5 -4t99 0q41 -2 52.5 21.5 t11.5 58.5q0 33 -5.5 69.5t3.5 61.5q-29 23 -61 16.5t-62.5 -13.5t-58 -3t-48.5 47q-4 8 -10 15t-11 15.5t-6 17.5t7 19q51 20 98 46t105 42q-18 14 -13.5 28.5t19 30t30 31t17.5 33.5zM225 -145q6 10 10.5 32.5t-16.5 22.5q-27 0 -26 -21q0 -10 11 -22t21 -12zM131 72 q0 -12 -6 -13h-8v21q10 0 11 -2z" />
<glyph unicode="R" horiz-adv-x="1028" d="M1190 14q16 39 15 73t-46 44l-151 10l-13 -41q-18 29 -36.5 26t-49.5 3q-33 33 -53 76t-36.5 88t-33 91t-41.5 87l-40 -29q-10 10 -20.5 24.5t-6.5 31.5q4 27 26.5 41t47.5 14q2 20 13 22.5t23.5 -1t24.5 -6.5t21 5l-27 27l14 14q8 0 11.5 -8t6.5 -15t8 -8t15 11 q14 4 16.5 12t-3 17.5t-13.5 17.5t-14 12q-6 12 -1 23.5t14 21t19.5 16.5t14.5 15l-12 14q2 14 3 34t7 35t19.5 25.5t37.5 8.5q4 41 0 85t-20 85q-10 2 -17.5 -5t-13.5 -13.5t-11 -7.5t-14 11q-8 29 -23 51.5t-31.5 44t-31 44t-16.5 51.5q0 31 -22.5 41t-38.5 20l-619 21 l-14 -6q0 -12 -2 -30.5t-1 -34t9 -25t29 -7.5q10 -55 9 -121.5t5 -123.5q4 -25 -14.5 -37t-34.5 -17q-8 -12 -4 -18t12 -11t18.5 -10.5t14.5 -15.5l-6 -293q-16 23 -44 12.5t-38 -32.5l20 -6q20 0 42 -21.5t13 -46.5h-34q2 -18 -6.5 -31.5t-18.5 -27t-18.5 -26.5t-3.5 -32 q4 -8 10 -6t12 5t12.5 4t12.5 -9q-8 -16 -3 -24.5t14 -15.5t18.5 -15t11.5 -21l-7 -6q-16 20 -26 17.5t-21.5 -15t-22.5 -23.5t-26 -5q-4 -10 6.5 -14.5t14.5 -14.5q-8 -10 -18.5 -12t-20.5 -3t-21.5 -2t-21.5 -10q-16 12 -31.5 11.5t-31 -5t-29.5 -4.5q-16 0 -31 19 q-12 -16 -30.5 -20.5t-37.5 -4.5q-18 0 -34.5 1t-26.5 -3l20 -14q12 12 23.5 10t22 -7t20.5 -4t22 21q12 -12 27.5 -15t32 -2t32 3t31.5 0q14 -25 35 -25q18 0 39 5.5t39 5.5t31 -25q-10 -8 -8 -20.5t5 -24.5t0 -19.5t-24 -5.5q-10 10 -24.5 11.5t-29 0.5t-28.5 -1 q-16 0 -29 10q-33 0 -42 -3t-13 -7t-14 -6t-43 0q-16 14 -40 11t-32 -48q0 -20 5 -29.5t12.5 -12.5t16.5 -1t19 2q23 -6 24 -10.5t3 -6.5t14.5 -4t59.5 -4l297 -4q20 0 26 -9t7.5 -21.5t5.5 -21.5t22 -9q20 -10 32.5 5t8.5 36q51 10 93 6t98 2q31 8 59.5 6t56 -5t56 -2 t59.5 13q10 -10 3 -23.5t-3 -23.5q23 -12 50.5 -13t56 1t57.5 4t55 -6q14 -2 14 6q0 6 -3 17t-3 22q0 10 17 12l178 35zM10 442v9h-6zM-10 205q-10 0 -13.5 9t-13.5 5q-10 -6 -10 -18t10 -17q10 0 18.5 2.5t8.5 18.5zM215 -135q-6 16 -22.5 24.5t-26.5 8.5 q-6 -12 -19.5 -14.5t-27.5 -2.5q-12 0 -23.5 -2t-17.5 -14q27 -10 67 -10q43 0 70 10zM752 825q10 -37 -7.5 -67.5t-33.5 -55.5q-20 4 -33.5 -8t-13.5 -32q-12 14 -25.5 16t-28 -4t-29 -15.5t-26.5 -17.5q2 -18 -4 -25.5t-16.5 -9.5t-21.5 -1t-19 1q-12 25 -27.5 26t-32 -4 t-34 -8.5t-35.5 15.5q-12 -8 -25 -8q-12 0 -22.5 3t-20.5 7t-21 4q2 23 -3 53.5t-5 61.5t9.5 55.5t39.5 34.5q10 20 -7 31.5t-34 15.5q-6 55 -9 119.5t22 111.5q27 4 45 -3t24 -38q49 0 98.5 -4t93.5 -18t81 -42t59 -73q14 -12 15.5 -32.5t1.5 -41.5q0 -18 7 -32.5t38 -14.5 zM719 313q0 -20 -18.5 -19t-28.5 7l-8 27q16 0 32.5 -2.5t22.5 -12.5zM868 -102l-6 -7l-35 21zM637 90q-2 -8 -8 -9t-13.5 1t-14.5 5t-11 3q-6 4 -5 15.5t11 11.5t23.5 -8.5t17.5 -18.5zM602 137l-74 -14l33 -41q-10 -16 -33.5 -25.5t-40.5 13.5q-27 10 -39 24.5t5 34.5 q-20 6 -44 4t-49 -2q-23 0 -44 6t-40 27q16 -10 33 3t21 23q-4 12 -15.5 18.5t-20.5 12.5t-14.5 15.5t3.5 29.5q33 6 32 21q0 14 -5 30.5t-4 30.5t38 21q6 12 -1 17l-14 10t-11.5 13.5t6.5 26.5q2 6 8 6h12t12 2t9 13q-8 6 -17 6h-14q-6 0 -12.5 2t-12.5 12q6 16 33 14 t43 -8q-4 -16 0 -29.5t21 -17.5q20 0 42.5 1t42 -3t34 -15t16.5 -38q-8 -20 0 -34.5t20 -28t20.5 -26.5t0.5 -32q12 -10 15 -25.5t3 -31.5t-1 -34t3 -32zM297 389q0 -6 -1 -13t-7 -7l-6 20h14zM379 90q-10 -6 -12 1t-2 18q10 0 9 -4.5t5 -8.5v-6zM119 328l-6 -21 q-16 4 -18.5 20.5t-2.5 26.5q16 6 19.5 -8t7.5 -18zM344 76q2 -20 -7 -28.5t-24.5 -11.5t-31 -5t-25.5 -11q-18 2 -38.5 0t-41.5 -2q-20 0 -36.5 3.5t-26.5 19.5q0 23 7 40t34 28q12 -10 27.5 -7.5t30.5 6t26.5 0t17.5 -25.5q20 14 44 4t44 -10zM106 164q0 -16 -11 -12 t-17 -2l14 28q10 4 9 -5t5 -9zM412 266q6 10 -1.5 23.5t-11.5 17.5q-10 -10 -14 -29.5t6 -25.5zM446 190l-26 9q0 -10 -4 -26.5t16 -22.5q10 0 14 15t0 25zM379 246l-21 6l-8 -21h8q4 0 9.5 5.5t11.5 9.5zM358 190v9h-14z" />
<glyph unicode="S" horiz-adv-x="952" d="M891 365q-12 78 -46 128t-84 83.5t-109.5 57t-121 47.5t-120 52.5t-103.5 75.5q-20 35 -32.5 70.5t12.5 68.5q37 49 82 79t102 24q41 -4 72.5 -28t56.5 -55.5t45.5 -67.5t36.5 -64l94 6q10 8 22.5 9l25 2t23.5 5t19 21q6 43 -2 79.5t-25.5 69.5t-40 63.5t-40.5 61.5 q-55 57 -134 79.5t-164 19.5t-165 -29.5t-135 -69.5q-43 -33 -65.5 -75t-32 -89t-9.5 -98t4 -100q4 -47 28 -92.5t58.5 -82t77.5 -64.5t86 -42q12 -10 29 -10h37q18 0 31.5 -6.5t15.5 -26.5q31 -14 62.5 -26.5t62 -28t58.5 -38t52 -55.5l142 -6q33 -4 52 17t42 35zM1087 96 l-126 8q-10 0 -11 -12q0 -10 11 -14q14 0 33.5 -2t37.5 -2t33.5 4t21.5 18zM752 256q-4 14 -21.5 5t-17.5 -17q10 -4 24.5 -1t14.5 13zM1012 -137q-10 0 -17.5 -8.5t-7.5 -18.5q-4 -4 2 -5t10 -1q23 10 13 33zM924 -158q-20 4 -29.5 -5t8.5 -19q4 4 12.5 9t8.5 15zM1219 16 l-86 11q-27 -12 -51.5 -11.5t-50 4t-50.5 3.5t-51 -15q-25 12 -47.5 13.5t-45 -2t-45 -9.5t-47.5 -8q-23 -12 -43 -10t-39.5 6t-41 7t-41.5 -9q-61 10 -121 4t-121 8q-18 -27 -55 -32t-81 0.5t-87 15.5t-72 14q-4 12 1 19.5t13.5 11.5t16.5 9t8 11h-148q-23 14 -44 26.5 t-44 12.5q-12 -6 -32.5 -5t-32.5 -8t-7 -38t44 -90q82 -4 125 -6t66.5 -3t35.5 -1h35h63h119l-33 -33q12 8 20.5 5t14.5 -11t11.5 -17.5t11.5 -13.5q49 -6 105.5 -12t112.5 -5t109.5 11t98.5 37q10 31 33.5 40t52.5 9q31 0 62.5 -3t56.5 5q27 10 59.5 13t67 2t68.5 -6t65 -9 q8 6 16 10t14 8.5t8.5 13.5t2.5 27zM242 193q-10 4 -23.5 3t-13.5 -16q4 4 18.5 3.5t18.5 9.5zM115 313q-10 -4 -18.5 -9t-12.5 -9h6q14 -4 22.5 2t2.5 16zM109 205q-12 29 -21.5 27.5t-20 -13.5t-19.5 -26.5t-21 -12.5l6 -6q6 6 18 6h25q12 0 21.5 4.5t11.5 20.5zM682 -55 q-2 -6 -10 -12.5t-18.5 -8.5t-20.5 1t-15 14q10 10 29 10t35 -4zM371 -61q-16 -4 -39 -12.5t-33 12.5q16 14 34 9t38 -9z" />
<glyph unicode="T" horiz-adv-x="1095" d="M961 1016q-10 47 -5 93t5 93q-217 10 -442.5 6t-448.5 0q-8 -20 -13.5 -50t-5.5 -60q0 -29 7.5 -56.5t25.5 -46.5h297l14 -489l35 -14q10 -16 -7 -26.5t-28 -14.5l35 -9q4 -10 0 -15t-11 -10t-14.5 -9.5t-9.5 -12.5q4 -23 17.5 -42t23.5 -42q-4 -16 -17 -23t-24 -18 q-6 -31 -8 -67.5t14 -63.5l35 15q12 4 23.5 0t20.5 -11.5t18.5 -16.5t19.5 -13q8 18 24.5 19t32.5 1q18 0 34 5t20 28q-2 18 1 40.5t2 43t-9.5 37t-34.5 24.5q-12 27 -7 46.5t17 37t22.5 34.5t8.5 42q2 12 -3 16.5t-14.5 7.5t-16.5 7t-7 16q23 16 37 46t4 65q-10 14 -11 30 q0 16 2.5 33t3.5 33t-8 35q12 29 11.5 57.5t-2.5 57t-1 59.5t19 61l111 6q20 -2 47.5 -5t54.5 -3q29 0 57 5.5t48 17.5zM1257 31q8 12 10.5 15t1.5 5t-7.5 7t-12.5 18q-16 10 -39.5 15t-49 8t-48 4t-35.5 1q-12 0 -22.5 -4t-21.5 -7t-21 -3q-8 0 -17 8q-29 0 -56.5 8.5 t-54 14.5t-51 3t-45.5 -28q-27 -10 -51 -1t-41 24q-18 -27 -40.5 -26t-46 7t-46.5 6t-41 -28q-47 6 -76.5 8t-56.5 1t-55.5 -4t-73.5 -7q-31 0 -40 1t-6 2t11 2t13 1q4 0 -1.5 -2t-31.5 -8q-43 8 -84 10t-82 2q-39 0 -80 -2t-84 0q-16 -12 -27.5 -15.5t-19.5 -6.5t-17.5 -12 t-21.5 -38q-2 -20 0 -26.5t7 -5t11.5 5.5t12.5 2q12 -10 33.5 -11.5t39 -6.5t26.5 -16t-1 -42q27 -4 32 -24.5t9 -32.5l51 73q6 14 17.5 19.5t22.5 7.5t22 2q12 0 20 6q4 -16 4 -20t-14 -21q0 -14 5 -26.5t-5 -24.5q10 -14 25.5 -31.5t33.5 -21.5q25 14 45.5 19t36.5 5h33 q14 0 29 6q25 10 28.5 12.5t4.5 3.5t5.5 5t26.5 20q6 2 17.5 4.5t21.5 2.5t19.5 -4.5t11.5 -14.5l-31 -4q-4 -27 11.5 -39t23.5 -27q-8 -12 -5 -21t8 -17.5t8 -18.5t-5 -22h6q16 35 18.5 73.5t16.5 81.5q8 -2 15.5 3t13.5 11.5t13 9.5t15 -5q10 -12 7 -20.5t-11 -13.5 t-18 -11.5t-12 -14.5q14 2 25 -6t21.5 -16t20.5 -10.5t25 10.5q18 -10 36.5 -14.5t26.5 -20.5q14 -8 31.5 -18.5t28.5 8.5q-14 8 -12.5 22.5t5.5 28.5q27 10 33 26.5t8 33t10.5 31.5t41.5 24q10 0 9 -8.5t3 -8.5q16 -10 17 -1t12 18q16 10 31.5 8t19.5 -25q10 -10 17 -7 t11 7l-22 41q23 12 53.5 9t54.5 1q12 -2 13.5 -8t-1.5 -13t-7.5 -13.5t-4.5 -10.5t7.5 -6t11.5 -6q16 4 17 21.5t5 29.5q31 10 59.5 1t51.5 -23q31 10 47.5 17t26.5 16.5t16 21t14 31.5zM506 -356q0 10 -3 24.5t-20 9.5v-57h11q4 4 6 9.5t6 13.5zM442 -449q0 4 2 14.5 t-8 10.5v-25q-4 -4 0 -4q6 0 6 4zM-41 -188q-27 0 -51.5 14t-40.5 31l-19 -52q10 -10 19.5 -25.5t21.5 -15.5q8 6 19.5 10.5t22 7.5t18.5 10.5t10 19.5zM627 -170q-10 -4 -15.5 4t-1.5 12q8 -4 10.5 -5t6.5 -5v-6zM86 -4q0 -8 -9 -12t-14 -4l-4 -2q-4 -3 -8 8q0 8 12.5 7 t22.5 3z" />
<glyph unicode="U" horiz-adv-x="1101" d="M961 705q-12 25 -13 47q0 23 3 44t4 43.5t-7 47.5q14 47 12 104.5t-12 104.5q-47 4 -98 7t-98 -7v-910q33 -4 37 -19t-2.5 -35.5t-14.5 -43t-2 -41.5l-63 -12l26 -43q-10 -2 -16 -9.5t-12.5 -15.5t-13.5 -14t-15 -6q-23 35 -30 73.5t-28 77.5q-14 4 -20 -5t-16 -13 q-18 -16 -11 -32.5t17 -31.5q-4 0 -6 -6t-7 -6q-12 25 -32.5 31t-42.5 6q-23 0 -46.5 -2t-41.5 2q-16 4 -31.5 1t-30 -7t-26 -5t-21.5 11q-6 18 -12 44t-4 50.5t12 44t37 25.5q4 219 -3 439t3 439l-12 19h-197l-12 -19v-606q-4 -12 -1 -24.5t6 -23.5t3 -23q0 -10 -8 -23 q12 -16 10 -32.5t-7 -32t-9.5 -33t6.5 -35.5q4 -14 7 -28.5t7 -25t14.5 -18.5t28.5 -10q4 -29 2 -67t-2 -66q-29 6 -47 6q-16 0 -31.5 -1t-33 0t-46.5 11q-12 -12 -33.5 -17t-46 -6t-47 2t-34.5 7q-14 4 -32 2t-28 -10.5t-10 -22.5q0 -12 20 -29q61 0 85 -5t35 -11t22.5 -11 t48.5 -3q16 -10 37 -10q23 0 44 1t42.5 0t40.5 -10q29 -57 84 -96t112 -61q72 -14 162 -16.5t166 22.5l-18 30q14 16 27.5 20.5t29.5 18.5q23 14 37 -1t24 -31q47 10 86 57t54 94q14 25 -1.5 37t-29.5 27q8 18 5 44.5t-4 53.5t7 47.5t41 30.5l14 385q-10 14 -9 27.5t5 27.5 t8.5 29t2.5 31zM475 111q0 8 -10 13t-23.5 6t-26 -1t-16.5 -6l19 -12q6 8 14 8t15.5 -3t14.5 -6t13 1zM-422 123q0 10 -4 20.5t-14 6.5q0 -10 -9.5 -17.5t-16.5 -13.5t-6 -10.5t19 -10.5q14 -4 22.5 5.5t8.5 19.5zM324 1014q0 -14 -15 -15h-6v21q13 0 21 -6z" />
<glyph unicode="V" horiz-adv-x="1062" d="M1180 -20q-4 14 -27 18t-54.5 3t-66.5 -1t-61 6q-4 -12 -11.5 -13t-15.5 3t-18.5 8t-18.5 2q-23 -10 -45 -6t-44.5 10t-47.5 11.5t-51 -3.5q-4 14 -1 27.5t9 28t10 28t2 27.5q12 14 11.5 26.5t-8 23.5t-16.5 20.5t-13 19.5q35 137 73.5 273.5t67.5 277.5q10 25 34.5 27 t43.5 12l72 266q10 25 12 53.5t-19 42.5q-49 -4 -103 -0.5t-97 -11.5q-20 -88 -45 -175t-39 -175l45 -12l-135 -531q-8 -10 -9.5 -24.5t-3.5 -28.5t-7 -25.5t-19 -13.5l-6 39q-16 0 -25.5 -2t-13.5 -16q2 -16 8 -33t11 -33t8 -33.5t-3 -38.5q-12 -12 -18 -7t-11.5 14.5 t-12.5 16.5t-21 3q-16 -4 -18.5 -17.5t-2.5 -27.5q-10 -4 -16 -14.5t-23 -6.5q-12 8 -15 20.5t-3 27.5q0 16 1 32.5t-1 30.5q-4 29 19.5 32t37.5 7q10 4 14.5 16.5t-1.5 16.5q-23 147 -63 291.5t-79 289.5q0 10 5 13.5t12.5 4.5t15.5 1t12 2q-2 41 -13 79t-23.5 72.5 t-22.5 70.5t-12 75q-10 6 -11 16v21q0 10 -1 20t-13 14q-53 -4 -106.5 0.5t-102.5 -6.5q-4 -84 15.5 -161.5t44.5 -155.5q0 -16 7 -25.5t19 -14.5t25.5 -10t25.5 -16l117 -432l-33 -39l33 -20q4 -10 11 -20.5t12.5 -20.5t5.5 -21q0 -8 -11 -16q-23 -2 -26.5 -12.5 t-0.5 -23.5t9 -27.5t6 -26.5q-2 -14 5 -31.5t13.5 -34t3.5 -30t-28 -21.5q-37 12 -76 13t-80 1q-39 0 -76.5 2.5t-72.5 16.5q-14 6 -25.5 2t-20.5 -9t-18.5 -7t-19.5 8q-27 -10 -57.5 -11.5t-61.5 0t-58.5 -1t-49.5 -14.5q8 -18 21 -24.5t28.5 -7.5t32 -2t28.5 -11 q10 12 23 12q12 0 25.5 -3t27.5 -5t29 8q10 0 14 -7t4 -17q20 12 41 6t40 -20.5t36.5 -30t32.5 -21.5q10 18 6 29.5t-14.5 20t-23.5 15.5t-20 19l13 13q10 -4 25.5 -3.5t25.5 -9.5q16 -25 30.5 -49t14.5 -53q14 -6 18 4t7.5 24.5t9.5 29t24 18.5q35 16 58.5 32.5t58.5 26.5 q29 -20 40 -47t32 -51q6 2 6 14v25q0 12 6 20t25 6q25 -25 23.5 -61.5t2.5 -61.5q16 16 33.5 8t38.5 -8q37 -10 49 2.5t16.5 33t8.5 41t22 28.5q10 -16 14.5 -44t0.5 -48l24 8q-12 8 -12 20t4 24.5t11 26t11 25.5q18 6 44 12.5t51.5 7.5t50 -6.5t41.5 -25.5q31 18 67.5 16 t75.5 -8t77 -5t73 28zM-311 -12q10 4 10 14q0 12 -10 16q-23 -6 -42.5 -0.5t-38 10.5t-35.5 3t-32 -25l6 -12q18 6 37 3t36.5 -9t35 -8t33.5 8zM-479 6q-10 20 -25.5 13t-19.5 -7q10 -4 19 -13t20 1zM-614 -39q0 10 -11.5 8t-21.5 -2q16 -20 20 -17z" />
<glyph unicode="W" horiz-adv-x="1341" d="M1315 1157q-37 18 -91.5 17.5t-95.5 -5.5q-6 -14 -4 -21t9.5 -12.5t16.5 -8.5t15 -7q-41 -229 -84 -460.5t-96 -460.5l-24 -13q14 0 30.5 -2t30.5 -2q16 0 28.5 4t22.5 19q41 168 68.5 337t79.5 337l45 -7l18 76q0 8 -6 10.5t-13.5 3.5t-13.5 5t-6 18q0 8 6 11t15 3 q8 0 17 2.5t13 8.5zM1628 102q8 31 -18.5 39.5t-67.5 8.5q-59 0 -103 -1.5t-106 -1.5q-61 0 -157.5 2.5t-257.5 6.5l30 37q-31 74 -50 153.5t-35.5 162.5t-32 167t-35.5 166q2 27 -7.5 54.5t-18.5 54t-13 53t8 55.5q16 0 19 7t1 18.5t-4 23.5t2 25q-2 27 -16 35t-33 8 q-18 0 -38.5 -2.5t-37.5 2.5q-20 -18 -29.5 -45t-14.5 -55.5t-10 -59.5t-19 -55q-33 12 -44.5 -1.5t-14.5 -38t-3 -53.5q0 -27 -6 -45q10 -4 25 -4q14 0 18 -14q-18 -102 -44 -203.5t-48 -206.5q-6 -23 -8 -47t-8.5 -49t-17.5 -47.5t-36 -40.5q-12 -4 -19 1t-14.5 13 t-14.5 15.5t-19 7.5q-20 10 0 31q14 0 18 8t4 18q0 12 -2 24.5t-2 22.5q-23 113 -50.5 224.5t-41.5 234.5l43 25q-10 45 -37 92q6 29 3 57.5t-9 58t-14.5 59.5t-10.5 60q-47 14 -99 12.5t-99 -6.5q10 -66 14 -132t23 -128q2 -16 5 -34.5t11 -33t21.5 -23.5t35.5 -7l45 -217 q29 -84 38.5 -171t23.5 -175q0 -10 -6 -14.5t-12.5 -7.5t-9.5 -8t3 -13q8 -2 13.5 0t7.5 7l4 10t6 7q14 -10 17 -21t3 -26v-28q0 -12 5 -25q-23 -18 -27 -45t-23 -41q-16 0 -33.5 1t-35.5 1q-35 0 -67 5t-66 -5l-277 4q0 -14 2 -15t10 -1q6 0 17.5 -4t30.5 -23l-13 -6 q4 -4 3 -9t3 -9q8 -10 6.5 -18.5t-10 -16.5t-16.5 -13.5t-10 -7.5q66 -14 130 -7t118 7q-6 12 -14.5 11.5t-17.5 -5t-17.5 -5.5t-14.5 12q-12 8 -11 18t6 19.5t11 19.5t6 22q23 10 45 -12l-12 -12q4 -10 10 -20.5t21 -10.5q-4 20 7 35.5t24 28.5q25 0 40 -9q14 -16 10.5 -22 t-14 -8t-21.5 -4t-11 -9q18 -14 30.5 -12t22.5 11.5t19.5 21.5t21.5 20q18 -8 34.5 -10t28.5 8q12 -2 26.5 -4t25 -7t13.5 -14t-5 -26q10 -4 15 2t15 17q41 -10 87.5 -1t80.5 31q23 4 43.5 -6t30.5 -24q10 10 22.5 21t26.5 -3q12 -6 29.5 -9t33 -8.5t28 -14.5t14.5 -27 q-8 -4 -17 -15h-14q-10 4 -17.5 6t-11.5 -4q-158 6 -300 2t-300 -4q14 -14 31.5 -20t36.5 -10q172 -29 350 -27t350 25l29 -5q18 0 35 11q14 0 25.5 3t21.5 15q4 0 16 -4q35 -4 51.5 5t22.5 26.5t7 38t7 38t23.5 29.5t54.5 10q37 -6 71 -17t68.5 -20.5t69.5 -12.5t76 7 q20 14 43 15q23 0 44 -1t39.5 5t33.5 31q20 10 41.5 10.5t27.5 23.5zM844 162q-31 -4 -67 -6t-75 -2t-76.5 1t-72.5 1q6 18 0 26t-16.5 14.5t-17.5 15.5t-3 30q33 145 67.5 288.5t67.5 292.5q4 4 10.5 16.5t20.5 2.5q43 -141 76 -285.5t61 -290.5q-10 -12 -4 -22.5 t15.5 -21.5t14.5 -24.5t-7 -29.5zM1006 0q4 -18 -9.5 -21.5t-23.5 -3.5l-19 7q4 10 20 16t32 2zM559 74q-4 -10 -6 -17.5t-12 -7.5l-13 6l7 56q14 0 19 -13.5t5 -23.5z" />
<glyph unicode="X" horiz-adv-x="972" d="M883 1104l-6 51q-47 4 -99.5 7t-93.5 -7l-162 -305l-6 -45l37 -6q0 -29 -16.5 -57.5t-40.5 -47.5q-18 4 -16.5 19.5t-2.5 29.5t-15 10.5t-22 -3.5q-25 16 -24 49l43 14q-33 88 -68 178t-88 170h-205q-14 -33 -7 -64.5t22.5 -62t34 -61.5t30.5 -62h45q0 -14 -10 -16 t-14 -2l24 -88q8 -2 19.5 -1t21.5 1t17.5 -5t9.5 -20q0 -10 -13.5 -9t-23.5 -3q14 -33 31.5 -63.5t54.5 -34.5l-18 -58q27 -16 24.5 -37.5t-7.5 -41t-1 -36t41 -20.5l-70 -82q-12 12 -19 9t-11.5 -12t-7.5 -21.5t-5 -18.5q45 -12 41 -22.5t-23.5 -22.5t-40 -28.5t-7.5 -38.5 l104 -13q12 2 24.5 16.5t24.5 26t23.5 12.5t21.5 -24q14 12 12 18.5t-10 12.5t-15 13t-5 20q4 14 14 18t21 4q12 0 23 1t22 7q4 -14 -3.5 -24.5t-3.5 -20.5q2 -6 6.5 -16t10.5 -18.5t16 -11.5t25 3l67 -49q33 -14 65 -4t54 29q4 16 4 34t-7 33t-21.5 23t-38.5 4 q-4 14 -3 33.5t29 15.5l-39 68q-23 4 -31 23.5t-18 33.5q23 23 20 29t-16.5 7t-31.5 1q-16 0 -21 12q0 14 8 19.5t18.5 7.5t23 4t18.5 12q4 18 14 35.5t20.5 34t17.5 35t5 38.5q-10 0 -22.5 -8t-22.5 2q4 41 36 56.5t64 25.5zM360 215q-10 10 -26 10q-14 0 -25 -10 q14 -4 27.5 -11t23.5 11zM1102 27q8 12 13 28.5t3 31.5t-10 24.5t-25 9.5l-262 22l-18 -12l123 -76q10 14 22.5 6t16.5 -12q-29 -4 -56.5 -8t-56.5 -4q-23 23 -53.5 18.5t-59.5 -18.5l-75 -2q-37 -2 -75 -9.5t-77 -14.5t-79 -11t-83 0q-27 18 -64.5 15t-74.5 -4t-63.5 12.5 t-28.5 64.5q-16 20 -41 22.5t-52.5 -6t-58 -18.5t-59.5 -12q-35 -72 -32 -104.5t63 -59.5q37 6 71.5 0t67.5 -16.5t64.5 -21.5t64.5 -13q41 10 81 3t87 -7l12 12q51 8 98 2t107 -2q23 -12 47.5 -11t49 4t49 5t46.5 -10q51 2 78 1t40 -3.5t20.5 -3.5t18.5 2.5t33.5 12.5 t69.5 27q16 6 19.5 15.5t2.5 21t1 23.5t16 26zM362 127q-57 0 -120.5 1t-116.5 -13q53 -18 115.5 -14.5t115.5 8.5zM639 414l-12 6h12v-6z" />
<glyph unicode="Y" horiz-adv-x="989" d="M911 1044q-29 20 -76 16.5t-90 0.5q-39 -51 -67.5 -110.5t-40.5 -119.5q25 -31 21.5 -55t-16.5 -49t-27.5 -49.5t-12.5 -52.5q20 -8 21.5 -19.5t-2 -24t-3.5 -24.5q0 -10 19 -18q10 18 17.5 39.5t14.5 42t18 39t30 34.5q27 -8 39 -1t20 22.5t15.5 34t23.5 30.5 q2 14 12.5 30.5t18.5 32t10 31t-12 27.5l35 23q12 31 27 58t5 62zM573 418q12 35 11.5 81t-11.5 81q-12 -31 -14 -81t14 -81zM1090 27l-510 -11q-8 4 -9.5 14.5t-2.5 20.5t-6 15.5t-23 1.5q-23 -8 -21 -22.5t-2 -29.5q-12 -4 -26.5 -3t-18.5 16v516l-127 299l29 57 q-4 12 -14.5 18.5t-20.5 10.5q6 16 2 33.5t-13.5 34t-19.5 33t-14 30.5l-201 -6q-10 -35 4.5 -63.5t40.5 -45.5q2 -31 12.5 -57.5t24.5 -53t27.5 -53t21.5 -53.5q18 0 23 10q6 -6 7 -16t1 -21q0 -10 1 -20t9 -16l35 22q35 -53 62.5 -110.5t39.5 -112.5l-34 -6 q-4 -12 1 -17.5t14 -6.5t19 -1t17 -4q0 -8 6 -15t12 -14.5t10.5 -15.5t-0.5 -18q-8 -23 -16 -42.5t16 -31.5q-4 -16 -12 -14t-20 2q-6 -10 -4 -15.5t8 -7.5t14 -3t14 -3q-2 -16 1.5 -34.5t3.5 -37.5q0 -18 -6.5 -34.5t-26.5 -24.5q-4 -10 -1 -13.5t8 -4.5t11 -3t10 -8 q8 -27 -4 -43t-12 -33l-123 2q-25 0 -30 12.5t-4 30t1 33.5t-12 23h-381q-27 -25 -29 -36t5.5 -13t9.5 -2l-6 -95q6 -12 11 -20t10 -14.5t13.5 -12.5t24.5 -14q33 8 49.5 10t30.5 2q12 0 28.5 -1t51.5 1q14 -18 42 -22t57.5 -2t58 4t45.5 -4q33 -10 58.5 -7t51 9t51 9 t58.5 -5q20 0 23 8t2 18.5t1 20.5t21 14q8 -4 7 -7l-1 -3q-4 -10 -3 -20.5t13 -20.5q27 -4 43.5 -25.5t42.5 -27.5q12 16 40 15t46 -11q10 20 21 20q12 0 23.5 -7t22.5 -14t23 -3q12 0 14.5 5t1.5 12t-1 16q0 8 10 12q-14 16 -29.5 12t-27.5 0q-4 8 1 10t9 6q10 -10 20 -10 q12 0 22.5 5t22 11.5t21.5 6.5q20 2 41.5 -1t42 -5t40 -1t38.5 11q51 23 51 41q0 19 -14 35zM1081 -88h-190q-8 -4 -6 -20.5t2 -26.5l16 6q16 -4 37 -2t41 5t39.5 5t38.5 -2q12 0 15 10.5zM1001 -254q0 8 -1 13t-11 10q-23 -10 -32 1t-13 27t-20.5 12t-20.5 -12 q10 -8 10 -14q0 -8 -5 -14.5t-11 -13.5t-6 -15q27 0 57 -2t53 8zM887 -193q-2 10 -9.5 12.5t-15.5 1.5t-16 -4t-12 -3l12 -17q12 -4 21.5 3t19.5 7zM567 96q0 18 -1 43t-9 39q8 -27 -9.5 -45t-43.5 -18q-4 -18 1 -22.5t15 -1.5t23.5 6t23.5 -1zM760 -244q-4 10 -26.5 25.5 t-31.5 32.5q-8 -25 -16 -25t-18.5 9t-22.5 17.5t-29 -1.5q-10 -2 -13 -9.5t-2 -15.5t1 -16q0 -10 -4 -17l64 -10q27 0 51 13t47 -3z" />
<glyph unicode="Z" horiz-adv-x="964" d="M1290 -131q-10 0 -16 -7t-6 -18q-4 -4 0 -4h10q22 9 12 29zM1210 -150q-14 4 -22 -4t4 -18q4 4 11 9t7 13zM1014 12l-133 -12q-18 -2 -23.5 7t-5.5 22q0 12 -2 24.5t-14 16.5q-66 -4 -135.5 1t-131.5 -12q-16 -2 -33.5 2.5t-34 7.5t-31.5 1t-28 -17q-35 20 -74.5 21.5 t-74.5 17.5q35 74 77 146.5t85 142.5q14 14 29.5 28.5t4.5 41.5q8 8 15.5 25.5t17.5 30.5t23.5 19t36.5 -6q31 16 42 50t33 65q-23 12 -44 24.5t-44 -2.5q-2 -10 2 -18t10.5 -16.5t10.5 -16.5t2 -18q-4 -8 -14.5 -22.5t-26.5 -6.5q-27 18 -31 38.5t-2 42.5t5 45.5t-7 47.5 q6 16 14.5 15.5t16.5 -6t18.5 -8.5t20.5 9l10 -57q12 0 22.5 -5t19.5 -9t19.5 -5t20.5 9l143 242l13 161l-13 17h-213q-16 4 -29.5 -1t-25.5 -10.5t-25 -5.5q-12 0 -24 17l-369 -6q0 -39 -1 -80t7 -76l439 -10l12 -140l-6 -6q-23 14 -29 36t-6 34q-43 -70 -88 -142.5 t-80 -146.5q14 -16 15 -43t-9 -43l-35 35q-12 -31 -32.5 -55.5t-24.5 -53.5q6 -6 12 -6q8 0 14.5 3t11.5 5t9 -2q-47 -84 -87 -166.5t-93 -156.5q-8 -4 -19 -4q-10 0 -19 -1t-17.5 -6.5t-12.5 -17.5h-229q-2 -25 -2 -47q0 -25 18 -29q14 -2 19 -2h4l3 1t19 1 q14 -12 29.5 -14t31 -1t32 3t34.5 -4q0 -14 -12 -23l-22 17q-27 -16 -54.5 -18.5t-50.5 -16.5q-12 -12 1 -15t24 -14q82 8 145 9q66 0 148 4q8 -2 16 2t15 8t13.5 3t12.5 -13q14 0 33.5 -2t35.5 -2t31 4t21 16l6 -6q29 -10 60.5 -12t64.5 -2t63.5 -2.5t59.5 -12.5 q8 27 27.5 36t43 12t47.5 3q27 0 50 7q27 25 47 24q20 0 38.5 -4t39 -5t49.5 17q16 -4 23 0t6 12.5t-8 17.5t-17 13zM-156 -68h-190q-16 -10 -5 -20t17 -21q16 -4 37 -2t41 5.5t39.5 5.5t38.5 -2q12 0 15 10t7 24zM588 1004q0 -4 -4 -10.5t-9 -2.5h-6v19q4 0 11.5 -1t7.5 -5 z" />
<glyph unicode="[" horiz-adv-x="604" d="M739 10l-37 47l-286 -10q-12 6 -23.5 7t-22 0t-19.5 0t-15 12q2 14 -2 21t-10.5 11t-15.5 7.5t-15 9.5q2 27 -2 60.5t-5 65t7 58.5t37 43q10 18 -2.5 35.5t-34.5 13.5q-8 12 -4 18.5t11 12.5t15.5 13t8.5 20l6 561q2 23 17 29t36 6q20 0 40.5 -1t35.5 9q0 29 5 68.5 t-18 68.5h-303l-18 -20v-691l43 -100l-25 -61q18 -20 23.5 -48t5.5 -59t-3 -62.5t-1 -58.5q-23 -10 -34 -30.5t-21 -38.5q-37 -4 -79 -6.5t-75 12.5q-29 -2 -41 0t-20.5 5t-20.5 4t-41 -3q-2 -16 -2 -47t2 -51h119q31 0 47 -1t29 -1q14 0 31.5 3t48.5 13q14 -23 15 -29 t11 -28l31 -19l12 -235q55 0 111.5 -5.5t111.5 -0.5q4 12 13.5 16t19.5 8t18.5 10t10.5 21q4 33 -11.5 42t-39.5 9q-25 0 -51.5 -3t-45.5 3q-25 0 -30.5 12.5t-3.5 29.5t5 37.5t-1 37.5q2 8 8 11t13 4t13.5 3t8.5 12q-6 8 -6 15q0 6 3 12t6 12.5t3 18.5q37 8 80 2t87 -15.5 t88 -15.5t81 4q18 0 33.5 30.5t33.5 55.5z" />
<glyph unicode="\" horiz-adv-x="753" d="M1016 27l-293 2l-25 24q-18 18 -27 47t-18.5 54.5t-25 44t-49.5 18.5q-23 10 -27 31.5t-4 40.5q-45 51 -65.5 114.5t-43.5 122.5q0 18 14.5 16.5t28.5 2.5l-309 739q-6 39 -29.5 49t-53.5 9t-61.5 -5t-56.5 2q-14 -4 -16 -15t-2 -21q72 -180 144.5 -358.5t158.5 -352.5 q45 -10 69.5 -42t41 -73t30 -83t35.5 -75q10 -29 11 -48t20 -35l-43 -31q14 -41 32.5 -85t28.5 -85l-557 4q-4 -29 -6 -55l-2 -25q20 -27 42 -31l22 -4q18 14 34.5 16.5t32.5 0.5t32.5 -4.5t37.5 4.5l289 4q18 -10 33.5 -6t30.5 8t30 4q14 0 30 -17l72 -159q37 -23 89 -20 t100 7q14 29 9 48.5t-15.5 36t-18.5 33t4 40.5q10 4 25 4q16 0 30 -10q12 14 37 11t50.5 -5t45 3t19.5 34q10 0 18.5 -4t18.5 -8q18 6 19 15t-5 20.5l-12 23t0 23.5z" />
<glyph unicode="]" horiz-adv-x="745" d="M821 104l-155 2q-14 -2 -18.5 -8t-4.5 -14t4 -17.5t6 -15.5q-35 -2 -54 -4t-36 -2q-16 0 -34.5 3t-51.5 9l-6 293q0 29 -7 56.5t-36 42.5q4 14 18.5 11t18.5 7q4 184 7 367.5t-7 363.5q-78 4 -162 7t-162 -7l6 -133q16 -4 35 -4h37q18 0 34.5 -3t29.5 -18v-977l-19 -18 l-346 8q-16 -10 -17 -31.5t21 -21.5l98 -45q23 0 59 -8t64 6q18 4 25.5 7t11.5 3q6 0 14.5 -3t28.5 -11q18 14 21.5 20t3.5 8l4 1q4 2 24 6l25 -72q-18 -14 -12 -32.5t24 -29.5l-43 -67q-33 -4 -69.5 0t-59.5 -19q0 -33 -5 -72.5t18 -66.5h305l12 19q0 82 -3 166t15 161 q31 -2 43.5 2t20.5 10.5t20.5 11.5t42.5 7q12 0 19.5 -6t11.5 -15.5t7 -18.5t5 -13q10 4 15.5 13t15.5 9q8 -20 24.5 -26t35 -7t35 2t28.5 1q23 18 23.5 64t-9.5 99z" />
<glyph unicode="^" horiz-adv-x="1054" d="M911 582q0 35 -12 67.5t-29.5 62t-38 57.5t-38.5 54q-8 -61 -16.5 -123.5t5.5 -124.5zM729 682q-4 39 -2 81t2 81q0 41 -7 77.5t-28 65.5q4 -88 4 -180t13 -178zM616 1122q0 33 -16 44.5t-41 11.5q-23 0 -48.5 -4.5t-45.5 0.5q-16 -39 -50 -70t-57 -70q-16 8 -20 19.5 t-8 21.5q-76 -102 -134.5 -212.5t-123.5 -215.5l6 -72q41 0 85 -1t85 8q27 35 54.5 74.5t45.5 84.5q-12 33 -8 64t18.5 58.5t34 52t37.5 47.5q6 -6 6 -17v-18q0 -8 1 -16.5t9 -12.5q14 16 19.5 35.5t21.5 28.5l107 -187l18 -6q4 84 6 173t-2 179zM1145 72v28h-12 q-16 -23 -38 -19.5t-44 3.5q-12 -10 -22.5 -6t-20 9t-17.5 5t-16 -20h170zM834 90l-17 16h-223q-10 -4 -11 -17t-1 -17q31 0 64.5 -3t66.5 -3t63.5 4t57.5 20zM1198 18q-51 23 -64.5 25t-20.5 -6t-22.5 -17.5t-68.5 -7.5l-487 19q-23 4 -52.5 6t-52.5 -12q-41 0 -69.5 23.5 t-43.5 57.5l-510 -6q-25 -10 -31.5 -29.5t-4.5 -41t10 -41t16 -29.5q18 6 28.5 -1t21 -18.5t22.5 -22.5t35 -13l106 16q25 -6 51.5 -5t53.5 1q29 0 54.5 -3t45.5 -15q102 4 191.5 3t195.5 3q18 -12 35 -13q16 0 31.5 4.5t31 5.5t31.5 -10q45 8 88 9.5t84 -2.5t81 -10.5 t81 -8.5q51 -2 63 -2h15q2 0 7 -1t40 -3q-2 23 5 45.5t13 43t6 36.5q0 14 -16 20zM272 641q-4 -10 -12 -8t-12 2q-4 4 -4 10q0 8 10 8t14 -1t4 -11z" />
<glyph unicode="_" horiz-adv-x="1236" d="M1174 -309q-4 43 1 94t-16 86h-420l-47 -39q16 -39 24.5 -80t28.5 -76h414zM1282 156l-659 -13q-6 -20 -36 -29.5t-70 -11.5t-79 3.5t-63 13.5h-148q-6 -23 -19 -28t-29.5 -4t-35 3t-32.5 -4q-20 4 -40 9t-20 -9l60 -14q-16 -4 -29.5 -3t-24.5 -3q-10 -14 -6 -24.5 t0 -21.5h-18q0 29 -32 34t-60 5q-12 25 -28.5 29t-35 1t-39 -7t-39.5 4q-10 0 -16 -12.5t-10 -29.5t-5 -36.5t1 -36.5q12 -12 15 -24.5t9 -20.5t19.5 -13t44.5 -5q16 -4 22 -13.5t7 -19.5t4.5 -20.5t13.5 -18.5l114 12q25 -6 31 -26.5t4 -45t-4 -51t8 -44.5l170 -11 q8 2 11.5 11.5t4.5 18.5t3 16.5t12 7.5q6 -41 50 -51.5t100.5 -5.5t113 13.5t84.5 4.5q10 39 16.5 79.5t16.5 81.5q-6 18 -41 22.5t-75 5.5t-75.5 4t-46.5 20q-4 4 -4 16t4 16q115 4 206 8.5t175 4.5q86 0 172 -3t191 -14q33 6 43 5t14 -3t12 -2q10 0 46 11q31 4 37 30.5 t1.5 60t-12.5 69.5t-4 59zM356 -348l-84 6l-32 -6h116zM1004 41q6 -10 -4.5 -16.5t-14.5 -16.5q-10 -4 -16 5.5t-11 13.5q4 16 20 17t26 -3zM842 41l-13 6h13v-6zM758 41q-4 -4 -17.5 -1t-9.5 7zM690 55l-31 -6l13 6h18zM432 -8q-10 -10 -19.5 -1t-19.5 13q0 -2 5 0t12.5 4 t13.5 1t8 -11v-6zM250 49h-12h12zM422 -154q4 -4 1 -9t-9 -5h-6v21q4 0 11 1.5t3 -8.5zM295 -8q0 -10 -8 -12.5t-19 -2.5q-10 0 -19 -3t-11 -15q-20 29 -58 29q-35 0 -59 4l-21 -6q0 4 -5 9t-1 9q49 10 103.5 13.5t97.5 -25.5z" />
<glyph unicode="`" horiz-adv-x="843" d="M590 1114q-68 86 -148 148.5t-159 130.5q-37 16 -66 9t-52.5 -27.5t-44 -45t-40.5 -41.5q-4 -23 -6 -48.5t14 -41.5q74 -47 147.5 -94t153.5 -86l14 6q10 -45 45 -51t74 0q41 16 60.5 53t7.5 88zM958 -125q-14 0 -22 -9t4 -20q4 4 13 10.5t5 18.5zM1104 135l-1315 -16 q-2 -14 9.5 -24.5t27.5 -16.5t34.5 -4t30.5 12q51 -6 96.5 -9t88.5 -4t88 -1q47 0 100 -2q33 -2 62.5 5t58.5 11h47t90 -1t106.5 -4t98.5 -9l-16 -11l10 -6q10 -12 33.5 -13t31.5 9q-4 8 -13 12.5t-13 8.5q16 16 40.5 10t41.5 6q18 -10 37.5 -7t37 5t33 -2t25.5 -29 q61 -4 102 16.5t27 63.5zM236 315q-10 10 -26.5 14.5t-33.5 4.5q-16 0 -31.5 -2t-23.5 -4q23 -23 59 -20t56 7zM1044 -16q2 35 -3 37t-23 4q-33 14 -73 10t-80 -13.5t-77.5 -14.5t-66.5 5q-23 -14 -42.5 -13t-38.5 6t-37.5 6t-39.5 -15q-12 8 -26 8q-12 0 -23.5 -2t-23 -1 t-21.5 11h-20q-10 0 -7 -16q8 0 17.5 -5t18.5 -8t20 -3q10 0 20 10q12 -8 26.5 -6t27 4t21.5 -1t13 -20l-346 -4l-6 37q-10 12 -21 12q-8 0 -17 -4t-18.5 -7t-19.5 5h-137q-4 0 -4 -6t4 -10q18 -10 39 0q12 -12 27.5 -11t31 6t31.5 6t31 -11q6 -10 0 -17h-291q6 -41 3 -45 l-3 -4q74 6 117 7t77 1q37 0 78 2t111 10q59 -16 112.5 -6.5t106.5 13.5q25 4 49.5 -4.5t44.5 4.5q33 -8 72 -3t76 -8q29 12 55.5 7t53 -14t54 -14t58.5 9q20 4 30.5 16.5t0.5 22.5l-119 16q10 10 21.5 8.5t23.5 -5t24.5 -2.5t22.5 16q12 -4 16 -5t9 -1h14h26zM309 -10 q0 8 -3 7t-7 -1q-10 -4 -7 -10t13 -6q4 4 4 8v2zM870 -27q-4 -4 -12 -6t-14 -1t-9.5 5t3.5 13zM672 -27q-29 -16 -56 0q27 27 56 0zM66 2l-17 -10v10h17z" />
<glyph unicode="a" horiz-adv-x="888" d="M1057 205v12q-37 6 -60.5 9t-44.5 3q-20 0 -41.5 -2t-52.5 -6l19 -20q37 -4 56 -5t34.5 0t34 4t55.5 5zM870 143q-25 -4 -48 3.5t-29 -3.5q8 -12 16 -12t16.5 3t16.5 4t16 -9q4 6 8 8t4 6zM1057 -215l-13 78q-47 2 -73.5 3t-42 2t-25.5 1t-24.5 1t-39 5t-67.5 10 q14 4 15 11.5t-3 15.5t-9 16.5t-3 14.5q2 0 30.5 1t62.5 2t63 1h33l6 -39q10 0 18 -2t12 8q12 33 35 54.5t38 36.5t11 25.5t-43 22.5l-92 2l-39 60q-14 0 -23.5 -7.5t-16.5 -17.5t-14 -19.5t-15 -15.5q-33 -4 -47.5 -3t-42.5 14q0 18 -3.5 40.5t-3.5 43.5q0 23 5.5 41 t19.5 30l-18 19l6 276q27 2 35 19.5t7 39t-4.5 45t1.5 39.5q-10 33 -26.5 68t-41.5 64.5t-56.5 49t-70.5 25.5q-57 6 -114.5 9.5t-113 -3t-107.5 -24t-97 -53.5q-39 -49 -67.5 -102.5t-10.5 -117.5q49 -10 101.5 -19t99.5 5q10 29 19 53.5t38 44.5q25 29 64 35t73 -10 q37 -10 53.5 -33.5t29 -50.5t26.5 -52.5t45 -37.5q0 -14 3 -36.5t-22 -27.5q-41 -6 -86 -5t-90 1q-43 0 -85 -5t-74 -23q-37 -10 -63.5 -33t-49.5 -50.5t-43.5 -54t-44.5 -43.5q12 -18 14 -39.5t-1 -44t-6 -44t-1 -39.5q-16 10 -39.5 9t-23.5 15l-25 -2t-39 -10 q-29 29 -55.5 22.5t-55 -24t-61.5 -35.5t-72 -16q-31 -6 -30 -29q0 -25 18.5 -47.5t51 -34.5t69.5 4q10 -4 22.5 -10t21.5 -15.5t12 -20.5t-3 -26h12q0 18 8.5 27.5t20.5 15t25.5 9.5t23.5 14l86 -6q20 12 28.5 1t12.5 -28.5t11.5 -32t23.5 -10.5q51 12 76.5 22.5t40 17.5 t26 10t37.5 1q18 12 42 -2t48.5 -33.5t48 -36t46.5 -8.5l163 -8q20 4 34 7.5t38.5 2t67.5 -9.5t123 -26q29 -6 67.5 3t67.5 9zM-193 -133q-14 0 -24 -11.5t6 -21.5q4 4 13 10.5t5 22.5zM637 195q-14 -39 -28.5 -80t-49.5 -56h-289q-6 4 -7 13.5t-2 17.5t-6 14.5t-17 6.5 q-16 20 -17 43q0 23 7.5 44t16.5 42.5t11 44.5q33 37 78 54t94 23.5t99.5 1t97.5 -13.5l12 -33q4 -16 0 -33.5t-8 -32.5t-4 -30q0 -14 12 -26zM657 -121l-149 6q-4 18 16.5 33.5t34.5 30.5q20 -4 48 0t42 -19z" />
<glyph unicode="b" horiz-adv-x="995" d="M1108 197q-16 10 -31 10q-14 0 -14 -10q14 -4 20 -4q9 0 25 4zM977 250v6l-1 5t-11 1zM938 268v8l-1 2q-1 3 -11 -2zM1137 18q-27 -2 -52.5 7.5t-52 17.5t-52.5 10t-52 -14q-39 -2 -49.5 -6t-18.5 -6t-28.5 0t-81.5 14q-8 18 -1 30.5t21 21.5t28.5 17.5t22.5 20.5 q0 6 4 16.5t15 10.5q4 -4 12 -9.5t8 -9.5q14 0 28.5 -11t29.5 3q0 14 -13.5 9t-19.5 5q-14 4 -12.5 16.5t6.5 22.5l163 13q-18 27 -42.5 30.5t-51 -1.5t-54.5 -11t-54 2q-10 0 -23.5 8t-9.5 25q6 14 16.5 27.5t24.5 21.5t31 8q16 0 32 -12q-2 20 -18 24.5t-33.5 7.5t-31 11 t-7.5 35q27 18 26 33.5t-11.5 31t-18.5 32.5t4 40q2 18 -6 44t-13 49.5t2 38.5t42 13q8 27 -3.5 35t-28.5 10t-33.5 5.5t-18.5 21.5q4 14 18 14q16 0 27 4q-4 31 -21.5 58.5t-41 50.5t-52 40t-55.5 28q-84 20 -177 18t-163 -51q-14 86 -10 174t4 172l-19 20q-23 -2 -47 -1 t-49 1t-47.5 -4t-40.5 -16v-475l47 -41q-6 -43 -2 -91t4 -96q0 -45 -7 -88t-34 -77q-10 -29 -7 -58.5t32 -46.5q0 -6 -6 -9t-12.5 -4t-9.5 -5t3 -15q25 8 33 -2t9 -27.5t-2 -37t-1 -31.5q-14 -37 -26.5 -44t-26.5 -2t-32.5 14.5t-45.5 6.5q-16 -10 -28.5 -12t-22.5 -1 t-22.5 5t-28.5 11q-37 10 -45.5 32.5t-8.5 46.5q0 27 -3 51.5t-29 39.5q-4 -2 -6.5 -9.5t-5.5 -15.5t-7 -14.5t-14 -6.5l20 -20q0 -14 3.5 -31.5t3.5 -34.5q0 -16 -3.5 -30.5t-15.5 -20.5l-8 -104q10 -18 9 -34.5t-1 -29.5q0 -14 6 -24t29 -17h215q31 -10 67.5 -12t73.5 -2 q39 0 75 -1t65 -11q10 29 32.5 33t48 0.5t52 -4.5t43.5 22q76 -29 114.5 -43t71.5 -18.5t77 1t132 13.5l154 16q37 0 69.5 20.5t50 46t12.5 47t-42 23.5zM696 381q-14 -12 -38.5 -13t-46 -3.5t-36 -13.5t-10.5 -42q-23 0 -38 -8t-29.5 -19.5t-28.5 -20.5t-35 -11 q-23 0 -47.5 -7t-49 -10.5t-47 3t-38.5 32.5q29 10 22.5 24.5t-18.5 28t-14 26.5t37 20q14 16 13 44.5t-1 53.5q-35 0 -43 18.5t-5 44t10 53t5 48.5q14 12 24.5 35.5t22.5 43t28.5 27.5t43.5 -8q16 -4 36.5 4t41 15.5t41 6.5t36.5 -20q18 -12 34 -28.5t31 -32t32.5 -24.5 t40.5 -7q0 -35 6 -65.5t12 -61.5t9 -63.5t-1 -69.5zM657 197q4 -16 -3 -25.5t-19 -15.5t-23.5 -14.5t-13.5 -22.5l-5 2q-5 2 -1 18q2 8 -3 13.5t-13.5 8.5t-15.5 6t-7 11q25 4 50 11.5t54 7.5zM592 92q-16 -18 -40 -27.5t-38 15.5q-8 12 -6 18t9 9.5t15.5 5.5t14.5 6 q14 0 29.5 -5.5t15.5 -21.5zM416 80l-6 12q4 0 5 -3l1 -3v-6z" />
<glyph unicode="c" horiz-adv-x="837" d="M1069 41q25 49 10.5 65.5t-43 20.5t-60.5 7t-44 26q-45 -6 -97.5 -12.5t-80.5 6.5q10 29 11 68.5t-17 64.5q-47 10 -98.5 13t-90.5 -19q4 -53 -21.5 -94.5t-60.5 -69.5q-18 -14 -37.5 -16.5t-39 4t-38 16.5t-34.5 20q-23 16 -28 43t-10 51.5t-15.5 43t-41.5 20.5 q-18 53 -15 110.5t3 114.5l31 183q4 14 15.5 30.5t35.5 12.5q18 -18 33.5 -14.5t33 15t37 19.5t46.5 0q14 -20 39.5 -33.5t35.5 -42.5q14 -39 18.5 -76.5t37.5 -62.5q25 10 47 10q23 0 44 -1t42.5 1t42.5 17q2 51 -5 102t-27.5 97t-56.5 83t-87 62q-76 18 -160 18t-160 -18 q-57 -23 -97 -66t-58 -104l43 -13q-18 -66 -40 -126t-16 -136q-10 -23 -9 -43t4 -40.5l6 -41t-1 -39.5q-33 -10 -37 -30.5t1.5 -47t9.5 -53t-13 -45.5q2 -2 9.5 -6t14.5 -9t12 -12.5t3 -15.5q-12 -2 -16 -4t-8 -2q-2 0 -6.5 2t-18.5 6q-10 6 -14 17.5t-9.5 20.5t-14.5 16.5 t-25 7.5q-18 -10 -6 -18.5t12 -18.5q-4 -14 -19 -14q-14 0 -18 -11q-23 -10 -28 -11t-6 1t-5 3t-29 -3q-76 -14 -89 -39.5t32 -91.5q33 -6 85 -10t105 -4q55 0 103.5 3t77.5 13q29 -14 54.5 -11t50 9t49 10t53.5 -8q80 16 157.5 1t149.5 -38l45 6q39 -10 50 -8t17 6 t17.5 6.5t54.5 -4.5l145 -6q25 8 33 20.5t6 27t-7 32t-5 37.5z" />
<glyph unicode="d" horiz-adv-x="903" d="M1432 0v12q-10 18 -31 19l-6 -31h37zM1321 18q0 14 -18 7v-25h6q4 0 8 7t4 11zM1315 -53q-14 14 -17.5 32.5t-25.5 22.5q-14 -4 -12 -21.5t12 -21.5t19.5 -15t23.5 3zM428 776q10 14 10 33q0 20 -10 35q-12 -2 -16 -11.5t-4 -21.5q0 -10 3 -22.5t5 -18.5zM1225 10v19 q-10 4 -19.5 1t0.5 -14zM1231 -33q0 10 -7 9t-12 4l-12 -19q4 -4 17 -4q14 0 14 10zM1104 -76q25 37 -31 76q12 20 14.5 29.5t0 14.5t-7.5 11t-9 21q-33 2 -51.5 1t-35.5 0t-41.5 5t-72.5 18q-14 -4 -29.5 -2t-25.5 6q-4 23 -3 50.5t0 55.5t-9 50.5t-31 36.5q-2 20 -5 44 t-2 48.5t8 47t24 40.5q-16 4 -22.5 15.5t-7.5 24.5t0 29.5t-1 31.5q18 6 23.5 20t5.5 29q0 16 1 30.5t13 24.5q-4 123 0 246t0 246q-39 23 -89 18.5t-97 -0.5q-14 -10 -12.5 -16.5t9 -12.5t15.5 -13t6 -20q-6 -12 -5 -28.5t1 -32.5q0 -14 -4 -27.5t-23 -17.5q4 -33 0 -64.5 t6 -66.5q-4 -20 -1 -43t7.5 -45.5t3.5 -45t-16 -40.5q-16 4 -34.5 1t-28.5 19q-8 18 -1 38t25 24q-10 14 -22 26.5t-2 34.5q-10 20 -37 12q-23 -4 -24 -26.5t-1 -40.5q27 -23 23 -54.5t-4 -64.5q10 -14 25.5 -27.5t29.5 -9.5l12 25q10 10 18.5 1t14.5 -13q-4 -20 3 -36 t16.5 -29t18.5 -29.5t11 -37.5q-23 -18 -20.5 -39.5t20.5 -39.5q-6 -25 -4 -54.5t3 -57.5t-7 -49.5t-35 -25.5q2 -14 -2 -24.5t-10 -19.5t-9 -19t1 -25q-10 -33 -37 -57.5t-55 -28.5q-20 6 -43 7t-47 1q-23 0 -44.5 2t-39.5 9l-58 149l-37 6q-12 20 -15 47t-2 56.5t3 59.5 t2 54q45 35 66.5 82t30 99.5t7 107.5t-3.5 109l-43 -7q-25 -10 -48 -27.5t-33 -45.5l-19 6q-57 -66 -85 -145.5t-28 -165.5h25q14 -47 12 -107.5t-6 -116.5q-33 -6 -37 -23.5t2 -41t14.5 -49t2.5 -47.5q-14 -20 -23 -21q-8 0 -26 -6q0 -4 -2.5 -11t8.5 -7l24 18 q29 -29 56.5 -61.5t31.5 -79.5q37 4 62.5 -20.5t48.5 -43.5q-25 -2 -26 -9t7.5 -16.5t17.5 -19.5t1 -22q14 4 31.5 1t34 -6.5t29.5 -1.5t24 19q14 -33 49 -34t63 9q35 -16 74 -15t78 4t77 2t70 -21l13 18q43 2 61.5 13.5t27.5 26.5t17 32.5t27.5 33t59.5 23.5t114 8zM6 78 q-10 10 -19.5 17t-23.5 3q-29 0 -47 -15t-4 -48q12 -4 17 -1t9.5 10t7.5 15.5t11 12.5l37 -19q4 4 8 9.5t4 15.5zM43 -63q-4 6 0 14t9 15t5 14q0 4 -14 6q-4 -14 -7 -29.5t7 -19.5zM-57 -70q0 4 -1 9.5t-12 9.5v-19h13zM-12 -121v6q-4 10 -13.5 16.5t-23.5 2.5 q4 -14 15.5 -21.5t21.5 -3.5zM-143 84q-18 16 -44 18t-51 2q-18 -4 -27 -15t-28 9q-14 2 -27.5 0t-27.5 -4t-28.5 -1t-29.5 11q-10 -4 -9 -21t16 -17q20 10 41.5 12t40.5 6q6 0 12 -5t12 -10.5t13.5 -6.5t17.5 10q14 -14 27.5 -10t27.5 10t26.5 8t24.5 -14q4 4 13.5 11 t-0.5 7zM-100 -102q-4 4 -4 16q0 10 -15 10q-4 -6 -3 -24.5t16 -14.5zM-449 233q10 10 5 19.5t-5 19.5q-2 -6 -8 -10t-10 -8t-5 -8t5 -13q0 -4 8 -4q6 0 10 4zM-12 -188q4 14 -10.5 9t-14.5 -16q4 0 6 -6t13 -6q10 10 9 12zM-100 -176q-2 6 -12.5 7t-21.5 -2t-21.5 -8 t-12.5 -9q8 2 19.5 -2.5t21.5 -7.5t17.5 0.5t9.5 21.5zM-225 -121q-4 14 -7.5 25.5t-17.5 11.5l-6 -31zM-342 -20q0 10 -1 18t-11 12q-10 -10 -9 -21.5t15 -15.5zM-274 -20q-10 0 -14.5 -7.5t-8.5 -14.5t-9 -14t-18 -7q-4 -4 -10 -16.5t4 -16.5q29 16 49.5 27.5t6.5 48.5z M-418 -2q-4 14 -17.5 12t-13.5 -12q0 -4 4.5 -10t8.5 -2q4 0 13 1t5 11zM-393 -63q-12 12 -19 6q-14 0 -21 -11.5t-3 -21.5q14 -14 26.5 1.5t16.5 25.5zM-311 -195l-43 56q-6 -4 -8.5 -11.5t-3.5 -15.5t-5 -14t-16 -8q20 0 39 -10.5t37 3.5zM1069 -39h-12l6 31q4 -4 7 -12.5 t-1 -18.5zM492 -57q4 0 0.5 -3t-7.5 -3q-4 4 -13 12t1 12q4 0 11.5 -4t7.5 -14zM373 10q-2 6 -9.5 8t-15.5 2t-15 2.5t-9 12.5q4 8 14 13t19.5 4t14.5 -6t1 -17v-19zM492 -158q-4 -4 -12.5 -1t-18.5 7l24 37q10 -4 13.5 -18.5t-6.5 -24.5zM391 -158q-10 4 -20.5 18.5 t8.5 24.5q14 -4 13 -18.5t-1 -24.5zM373 -45q-6 -12 -7 -25.5t-2.5 -24.5t-6.5 -20.5t-21 -11.5q4 -10 16.5 -13t1.5 -18q-14 4 -25.5 -1t-20.5 -11t-16 -7t-11 13q0 16 10 23.5t22.5 14.5t21.5 17.5t7 32.5q-10 18 -15 33.5t9 34.5l6 -49q10 -4 15.5 -1t15.5 13z" />
<glyph unicode="e" horiz-adv-x="808" d="M1098 180q-27 0 -48.5 11.5t-52.5 11.5q-18 -12 -36.5 -11t-35 6t-34 6t-31.5 -11q-39 6 -41 8t2 2t3 -3t-36 -7q-18 8 -44.5 7t-38.5 17q20 12 16 32.5t0 39.5q-35 8 -78 21.5t-84 -5.5q-12 -16 -15 -47t11 -47q-55 -14 -114.5 -10t-118.5 4q-27 0 -37.5 14t-14.5 33.5 t-7 38t-13 26.5v-6q-18 -10 -14 -24.5t8 -28.5q0 -4 -7.5 -8t-11.5 -4q2 27 -5 54.5t-13 55t-6 54.5t18 51h486l10 18q10 68 -4.5 128.5t-24.5 123.5l41 12q-16 49 -47 100.5t-84 78.5q-4 -6 -4 -15v-16t-3 -14.5t-11 -8.5q-10 14 -29 20.5t-19 33.5q-10 27 -30.5 35 t-46.5 8q-25 0 -50.5 -4.5t-46.5 -2.5q-10 -10 -11 -26.5t-23 -16.5l-13 43q-68 -14 -126 -63t-89 -117q-14 -16 -2 -31.5t31 -15.5q-18 -86 -28.5 -179t-6.5 -192l-25 -24q-16 -16 -15 -33.5t6 -35t8.5 -34t-5.5 -28.5q-123 0 -251 -2t-240 8q6 -25 16 -35t23 -10 q12 0 26.5 7t30.5 13q10 -10 12 -18t7 -18l30 18q12 -4 13 -21q0 -16 4 -26q-10 -23 -17.5 -12.5t-17.5 6.5q10 -2 13 -8.5t2 -14.5t-3 -15t0 -11q12 -16 19.5 -7t21.5 13q10 -8 20.5 -20.5t-8.5 -26.5q-4 -4 2.5 -11.5t10.5 -7.5q10 0 14 7t4 12q8 -6 19.5 -13.5 t20.5 -14.5t15 -18.5t4 -25.5q-10 -14 -16 -12t-12 10t-13.5 15t-17.5 5q-16 -25 -42 -29.5t-54 -4.5h-58t-51 -15l13 -16h538l19 16l6 -6l94 -4q68 -14 126 -7t126 7q16 -10 32.5 -9t33 4t31.5 6t30 -1h24h60t76 -1t78.5 -2t65.5 -3t36 -2q12 12 28 12h31q16 0 26.5 5 t10.5 26q-4 18 -9 35.5t-28 17.5q-16 4 -17 -8t-11 -21q-18 14 -19 35q4 14 21.5 12t31.5 13q20 -4 24.5 6t5.5 26.5t4 32t22 19.5l-56 22q4 12 12.5 15.5t17.5 6.5t17.5 6t12.5 15zM584 557q-90 -10 -185.5 -8t-185.5 2q-4 45 1 98t40 82q23 -2 29 9.5t6 25.5t2 27.5 t18 15.5q4 -4 4 -12v-15q0 -8 2 -14t13 -8q23 18 49 28.5t57 -4.5q14 -10 28.5 -21t31 -20.5t34 -12.5t37.5 1q14 -18 18.5 -40.5t4.5 -45.5t-2 -45.5t-2 -42.5zM829 137q-10 -4 -19 5.5t-5 19.5q10 4 15 -4t9 -8v-13zM942 -6l-4 12h4v-12zM739 150l2 -4q2 -5 -8 -13h-6 q-10 4 -4 8.5t16 8.5zM764 84q-10 -4 -16.5 5t4.5 13q4 0 6 -4t6 -8v-6zM829 66q0 -4 -4 -14.5t-14 -14.5q-10 12 -24.5 7t-28.5 3q0 20 7 23.5t18.5 0.5t22.5 -4t17 11zM883 12q-8 0 -12.5 -5t-7.5 -12t-6 -14.5t-9 -9.5l-25 35q2 6 8.5 5t13.5 -3t13 -1t8 11q4 0 8.5 2 t8.5 -8zM698 49q0 -12 -6 -12q-10 0 -13 12t1 17q10 4 14 -4.5t4 -12.5zM662 -29h-13v19q10 0 11.5 -7.5t1.5 -11.5zM614 -29q-2 4 -9 6.5t-13 3.5t-9 4t1 9l30 18q10 -4 5 -17.5t-5 -23.5zM543 -72q-14 -4 -21.5 8.5t2.5 22.5q10 4 14.5 -2t4.5 -16v-13zM416 -29l-17 -12 v12h17zM328 -29q-4 -10 -9.5 -20t-15.5 -10q-12 0 -12 12q8 18 37 18zM254 -41q-12 -4 -26.5 -2t-29 6t-27.5 7t-24 1q10 6 11.5 17.5t1.5 23.5t2 22.5t14 14.5q4 -16 18.5 -24.5t28 -16.5t23.5 -18.5t8 -30.5zM88 121q-14 -14 -29 -15q-12 0 -26 -4v19q14 0 26.5 -3 t16.5 15v23q14 0 17 -12.5t-5 -22.5zM129 25q0 -10 -4 -18.5t-8 -16.5q-10 4 -13.5 12t-3.5 16q0 10 2 20.5t2 16.5q14 4 19.5 -6t5.5 -24zM63 12l-6 13h6v-13zM-80 162q0 -10 -7 -12.5t-11 -6.5h-6q-10 10 2 19.5t22 -0.5zM16 12q-10 -10 -21 -8t-22 2l31 37q10 0 15 -13.5 t-3 -17.5zM-55 43h-13v12q4 -4 10.5 -3t2.5 -9zM-2 -41q-10 -4 -14 2t-4 10q4 4 12 4q6 0 6 -4v-12zM-45 -6l-23 -35q-6 12 -14 10t-15 -6t-14.5 -5t-11.5 13q18 0 23.5 19.5t-4.5 34.5q18 0 30.5 -13.5t28.5 -17.5zM-164 102l-12 -53q-2 14 -15.5 21.5t-27.5 12.5t-23.5 14 t-5.5 30q14 10 23.5 4t17.5 -16q14 10 6 20t0 21q4 -4 11.5 -6.5t7.5 -10.5q-14 -14 -5 -25.5t23 -11.5z" />
<glyph unicode="f" horiz-adv-x="722" d="M1108 18q-4 -4 -14.5 -3t-6.5 -9q0 -6 5 -7l4 -1q4 6 11 11t1 9zM836 -27q4 16 11 27.5t7 22.5q0 12 -11.5 24t-43.5 31l-293 8q-27 -6 -68 -9t-61 21v666l14 35q12 8 20.5 3t15.5 -13.5t14.5 -13.5t17.5 3q8 -18 24.5 -23t36 -4t41 4t39.5 3q-2 20 4 52t7 61.5t-11 49 t-53 13.5q-25 20 -40 15t-27.5 -19.5t-26 -27.5t-35.5 -9q-23 12 -31 33.5t-10 45t0 47t0 44.5q4 31 23.5 58.5t50.5 37.5q23 0 26.5 -15.5t7.5 -25.5l164 21l6 149q-12 20 -31.5 25.5t-41.5 5.5q-20 0 -42 -2t-40 4q-10 -35 -40 -44t-57 -24q-16 -2 -19 7.5t-6 19.5 t-9.5 18.5t-26.5 1.5q-4 -4 -15.5 -11t-20.5 -16t-12 -17.5t7 -16.5q-37 -16 -54.5 -46t-25.5 -65.5t-10 -74.5t-10 -72q-4 -31 -16.5 -37t-31 -5t-38 4t-37.5 -9q-16 -10 -20.5 -28.5t-3.5 -40t3 -44t0 -43.5q6 -18 18.5 -23t28.5 -5t33 2t29 0q18 0 27.5 -10.5t16.5 -22.5 t16.5 -23.5t27.5 -13.5q-2 -74 -1 -149.5t1 -151.5t-4 -150.5t-17 -144.5q-41 0 -77.5 -6t-77.5 18q-41 -23 -64 -22q-23 0 -43 6t-42.5 8t-63.5 -18q-18 -8 -30.5 -25.5t-10.5 -39t21.5 -43t64.5 -36.5q51 10 75.5 7t44 -9t44 -11t78.5 1q16 4 22 -10.5t6 -24.5q4 -4 9.5 3 t11.5 12q86 31 184 36t180 -6q98 10 167 23.5t104 23.5zM829 -123q-10 -6 -16 -11t4 -9q4 0 11 5t1 15zM762 -123q-4 4 -3 8t-3 4l-8 -12h14zM748 -2h-7q-4 6 -1 15.5t8 -1.5v-14zM715 -8q0 -10 -11.5 -7t-15.5 7l6 26zM629 25q-4 -12 -10.5 -13.5t-15.5 1.5t-18.5 6.5 t-17.5 -3.5q10 16 28 20.5t34 -11.5zM485 16l2 -7t-8 -13h-14l6 29q6 4 12 0.5t2 -9.5zM401 2l-47 14v21q16 -6 29.5 -12.5t17.5 -16.5v-6zM272 23h-53q0 8 7 13t16.5 6t18.5 -3t11 -16zM190 16q-4 -10 -9 -19t-9 -9q-6 0 -13 4t-12.5 10t-5.5 12t11 9q10 4 19 0.5t19 -7.5z M49 -12h-20v14q10 0 12 -4t8 -10zM-20 -18q-4 -4 -15.5 3t-11.5 17l6 14q10 0 20.5 -12t0.5 -22zM-76 -10q0 -10 -4 -13.5t-8 -7.5v21h12z" />
<glyph unicode="g" horiz-adv-x="948" d="M811 930v141l-141 6q-39 -12 -64.5 -42.5t-38.5 -65.5l-147 -4q10 -10 11 -23.5t-17 -23.5q-8 -16 1 -32t23 -24q-10 -12 -27.5 -24.5t-0.5 -38.5q35 16 69.5 1.5t59.5 -40.5q16 -4 32.5 5t30.5 -11q4 -29 10 -63t6 -68q0 -33 -7 -64t-31 -53q-70 -66 -160 -57l-17 -58 l107 -6q74 18 128 78.5t71 132.5q14 20 12 45t-6 48.5t-2 44t24 32.5q-4 14 -11 20.5t-15.5 9.5t-17.5 8t-17 17q2 8 6 9t9 -1t10.5 -4t7.5 2q8 14 2 19.5t-15.5 8.5t-16.5 8t-3 22q4 16 4 39t29 22q10 -4 14 -14t4 -19q20 8 46 4.5t38 12.5zM330 766q-4 23 -3 47.5t1 46.5 q0 25 -5.5 45.5t-21.5 36.5q-12 -14 -15 -38.5t-14 -41.5h41q-10 -27 -21 -51.5t-1 -50.5q8 -16 17.5 -7t21.5 13zM279 584q10 14 9 28.5t-7.5 27.5t-12.5 26.5t-6 25.5t4 24.5t7 26t1 26.5t-12 26q-6 14 -4 28.5t5 27.5t3 26q0 12 -10 24q-23 -8 -39 -24.5t-26.5 -36 t-17.5 -41t-13 -39.5l39 -12q-8 -37 -10.5 -76t5 -75t25 -67.5t49.5 -52.5q-16 14 -13 27.5t11 26t14.5 26t-1.5 27.5zM1145 -39q8 0 15 5t8 12.5t-4 15.5t-21 14l-269 -8l-28 12q4 51 -9.5 96.5t-48.5 79.5q-27 -4 -47 2.5t-43 -2.5q8 8 7.5 21.5t-13.5 23.5q-23 4 -46 1 t-28 -29l-28 28q-12 4 -27.5 -1t-11.5 -21q-12 -10 -24.5 -1t-16.5 23q-29 8 -49.5 -5t-46.5 -13q-2 -12 -10.5 -16t-17.5 -6.5t-17.5 -5.5t-10.5 -11l39 -45q-4 -10 -11 -9t-11 -3l22 -17q-4 -4 -11 -3t-11 -3q31 -10 65.5 -8t69.5 3t65.5 -7t49.5 -37q-16 0 -37 -8t-43 2 q-41 -16 -62 -41q-23 14 -45 19.5t-45.5 6.5t-47 5t-44.5 16q4 8 8 22.5t-8 26.5q12 12 10 26.5t-5 29t-1 26.5t25 21q-31 2 -37 -14.5t-4 -41t6 -51t-4 -45.5q-4 -10 -11.5 -13t-11.5 1q-10 90 -8 172t2 168q4 10 9 9t10.5 -4t10.5 -4t9 9q31 23 31 45q0 23 4 51 q-16 2 -21.5 13.5t-8.5 26t-5 27.5t-10 19l-6 -164l-35 7q-16 -18 -33.5 -38t-28.5 -36q-10 -18 -8 -39t6 -40t4 -38q0 -16 -14 -31l35 -18l-16 -4l26 -35q-12 -23 -33.5 -19.5t-44.5 3.5q-16 -4 -21 -14.5t-6 -21.5t-1 -24q0 -12 -6 -20q-8 -8 -20.5 -16.5t-25 -11.5 t-22.5 0t-16 16l-13 -11q-31 -2 -47 -4t-28.5 -3t-27.5 0t-46 3q2 10 -5.5 15.5t-16.5 8.5t-14 5t1 6q-31 12 -51.5 11t-29.5 -12t-6 -30.5t21 -40.5h88q29 0 43.5 1t22.5 2t23.5 2t48.5 1h92q16 -16 25.5 -42.5t9.5 -53.5q16 -41 57 -76.5t84 -35.5q10 43 4 87t8 83h17 q6 -18 5 -42t-2 -46.5t-1 -45.5q0 -25 8 -43l6 13l29 -23q2 20 7 49t6 57.5t-8 53.5t-34 37q-4 10 -1 15t13 13q20 -6 45 -7t50.5 -2t50 -5t47.5 -14q23 23 61.5 19.5t67.5 -7.5q-16 -29 -41 -42t-53.5 -19t-59.5 -6h-61q-12 -6 -13 -23.5t-3.5 -36t-8.5 -34t-26 -19.5 q4 -10 2 -20.5t10 -14.5q90 -16 182 -9t168 48q53 29 83 77t42 99q33 -2 33 2q0 2 -6 5t-9 3l31 -8q8 -2 18.5 1t20.5 6t19.5 1t15.5 -14q25 0 41 -1t33 -1q16 0 37.5 1t54.5 5zM-16 18v11q-4 4 -8 5l-3 1q-7 -17 11 -17zM-90 29l-23 6l19 -17zM608 924l-18 12q4 0 11 2 t7 -8v-6z" />
<glyph unicode="h" horiz-adv-x="790" d="M727 244q0 12 -9 19t-18.5 15.5t-12.5 16.5t9 22q18 -4 23.5 1.5t5.5 13.5q0 10 -1 21.5t3 17.5q18 27 9 42t-24.5 27.5t-26.5 25.5t5 38q23 12 21 26.5t-9.5 31t-12.5 32.5t13 33l7 -31q-29 80 -19 176q2 6 9.5 10t13.5 8.5t9 9.5t-1 13q-14 10 -20.5 -2t-16.5 -16 q-8 0 -7 7t-3 11q-4 23 9 36t32 13q10 41 -4.5 77t-36.5 69q-29 41 -65 57t-78 20.5t-86 1t-87 -1.5q-23 -8 -43 -23t-43 -5q-4 12 -4 26v31q0 16 -3 30.5t-11 26.5q14 47 12 100.5t-6 100.5l-121 6q-20 -41 -25 -89t-5 -99t3 -104.5t-3 -102.5q-2 -16 -11.5 -29.5 t-18.5 -27t-13.5 -28.5t8.5 -36q25 0 27.5 -8t-1.5 -19.5t-6 -23.5t15 -20q2 -47 1 -88t-3.5 -81t-2.5 -79t5 -80q0 -23 -10.5 -22t-18.5 -3v-6q-14 -20 -4 -37.5t21.5 -32t12.5 -26.5t-30 -25q4 -10 16.5 -11t12.5 -19q-23 -6 -31 -21.5t-10 -34t0 -38t0 -33.5t2 -17.5 t11 -2.5t15 4t13 3q12 -16 29.5 -22t35.5 -6q20 0 38.5 4t35.5 6q-2 18 1 40.5t3 45.5t-4 41t-23 31q-4 14 7.5 20t-1.5 16q-10 14 -8 35t25 31q10 29 -2.5 48.5t-20.5 37.5q12 14 11.5 30.5t-5 32t-8.5 32t2 32.5q23 12 21 19.5t-11.5 14.5t-14.5 16t11 22q-16 25 -12 43 t17.5 33.5t31 27.5t29.5 29q0 14 -7 17t-16 3q-6 0 -13 2t-7 15q12 8 27.5 13l31 10t30.5 13.5t28 24.5q18 14 35.5 15t35 -6t32.5 -19t30 -27q8 -4 20.5 -6t22.5 -6t18 -10t10 -21q0 -18 -14 -21t-29 -7q-6 -16 -0.5 -22.5t14.5 -9.5t18 -7t11 -17q-4 -25 -2 -51.5t3.5 -52 t-3 -49t-22.5 -41.5q-8 -14 -4 -19.5t12 -8.5t14.5 -8t1.5 -18q-23 -29 -37 -65.5t-6 -85.5q10 -14 29 -20.5t14 -28.5q-25 -14 -34 -35t-11 -43.5t2.5 -47t6.5 -44.5q41 0 88 -2t88 8zM684 -78q-8 4 -15 -2t-7 -16q-4 -8 2 -6t10 2q8 0 11 9t-1 13zM600 -90 q-14 4 -23.5 -7.5t5.5 -15.5q4 4 11 9.5t7 13.5zM961 -35q18 37 22 57.5t-3 30.5t-21.5 17.5t-32.5 17.5q-16 0 -29.5 -1l-27 -2t-29 -2t-39.5 -3q-25 -10 -50.5 -7t-50 6t-49.5 3q-23 0 -45 -14q-23 8 -44 9t-40.5 -3t-41 -8.5t-44.5 -4.5q-18 -12 -37.5 -11t-38 6t-38 6 t-37.5 -11q-25 12 -52 12q-25 0 -51 -4t-52 -6t-50 8q-25 2 -37 2q-10 0 -18.5 -2t-20.5 -3t-41 1q-14 0 -23.5 5.5t-17.5 8.5t-16 3t-21 -8q-18 -2 -26.5 -16.5t-7 -31t11.5 -28.5t26 -12q61 -4 105.5 -6.5t109.5 -6.5q6 0 19.5 -1t28 0t26.5 4t17 14l297 30 q35 -29 79.5 -38t79.5 -27q84 4 129 3t73 -2t49.5 1t58.5 14z" />
<glyph unicode="i" horiz-adv-x="434" d="M340 1190q-6 18 -4 42.5t4 47.5t-5 39t-32 18q-12 -14 -20 -14t-16.5 5t-16.5 9t-21 0q-6 2 -12 -3t-11 -9t-10.5 -5t-9.5 11q-14 0 -35.5 5t-31.5 -17q4 -25 3 -53.5t-2 -55t3 -51t20 -43.5q18 4 42 1t44 -3q23 0 40.5 7t21.5 32l37 -31q6 6 5 14.5t-3 17.5t-2 17 q0 9 12 19zM322 711q4 51 0.5 100t-13.5 96q12 14 11 26.5t-5 25t-9 23.5t-3 24q-10 6 -15 5t-8.5 -5.5t-6.5 -10.5t-7 -8q-10 20 -26.5 29.5t-36 10.5t-36.5 -4t-30 -11v-289l43 -37v-590q12 -18 22.5 -20t22 3t22.5 10t25 1q14 18 27.5 34.5t9.5 45.5q-25 16 -29 37.5 t1.5 45t10.5 48.5t-1 47l-12 215q-2 20 -3.5 44t2 44.5t14 37t30.5 22.5zM586 53l-191 -6q-29 -2 -37 -10t-24 4q-37 4 -45 -1t-15.5 -11t-26 -10.5t-73.5 1.5q-25 14 -22.5 12.5t9.5 -5.5t10 -6.5t-19 12.5q-102 37 -182.5 42t-102.5 -30q-2 -25 7 -49.5t24.5 -43t34 -25.5 t34.5 1q41 10 92.5 11.5t92.5 -17.5q33 4 77.5 3t97 -3t105.5 -4t100 0q18 4 32 8t20 16.5t7 38t-5 72.5zM297 772l-12 12q4 4 6 -1t6 -5v-6z" />
<glyph unicode="j" horiz-adv-x="483" d="M340 1153l-6 197q-10 0 -22.5 2t-24.5 2t-23.5 -4t-15.5 -19q-6 14 -22.5 20.5t-35.5 6.5q-18 0 -35.5 -6t-29.5 -15v-184l12 -18q25 2 52.5 1t54.5 -1t51.5 3t44.5 15zM887 4l-43 31h-13q-8 0 -14 -2t-8 -6t4 -11q-29 -14 -60.5 -6t-50.5 37l13 6l4 1t8 5 q-47 10 -104 11q-57 0 -86 -11l18 -12q-4 -18 -10 -21t-17.5 -1t-29 7t-41.5 5q-10 -2 -18.5 -9.5t-16.5 -13.5t-17.5 -7t-21.5 11q-6 12 -19.5 17.5t-27.5 8.5t-28.5 7t-22.5 10l6 228l31 -13l6 99q0 12 -10.5 20t-19.5 16.5t-11 16.5t16 21q-14 25 -18 56.5t-4 65.5 q0 35 2 70t2 68l43 30v258q0 14 -10.5 25.5t-20.5 11.5q-20 -6 -43 -6q-20 0 -40.5 2t-40 1t-36.5 -9v-283l49 -37l-12 -241q-12 -47 -9 -94.5t10 -96.5t12.5 -99t-1.5 -103q-10 -23 -32.5 -27t-40.5 -4l6 -19h-129q2 12 13 14.5t24 2.5q14 0 28.5 -1t20.5 3q-10 0 -16.5 8 t-20.5 4q-33 -2 -67.5 4t-66.5 8t-55.5 -7t-35.5 -42l-29 -84q14 -14 37.5 -13t49.5 5t52.5 6t48.5 -10l66 -10q14 -4 28.5 -1t26.5 5t22.5 -1t14.5 -22q-16 -12 -34.5 -13t-39 0t-41.5 1q-18 0 -34 -6l-7 -55q8 -18 22.5 -22.5t31.5 -4.5q16 0 33.5 1t31.5 -5 q-2 -33 9.5 -37t27.5 2t36.5 14.5t37.5 1.5q12 4 26.5 12.5t26.5 19.5t18.5 26.5t2.5 34.5q20 -2 27 9t7 30q0 16 -1 35.5t3 31.5q37 8 77 4t77 15q16 -4 46 -9.5t62.5 -6.5t61.5 1t45 13q20 0 35.5 -2.5t31 -6.5t36 -7t51.5 -3zM174 -94q4 -14 1 -36t-7 -32q-18 4 -15 25.5 t3 36.5q6 6 18 6z" />
<glyph unicode="k" d="M1004 258l-275 -20q-18 12 -28.5 31.5t-17.5 41l-14 43t-18 39.5l4 13q-18 12 -28.5 29.5t-17.5 37t-15 36.5t-23 30q0 -4 -2 -9.5t9 -9.5q2 -6 4 -18.5t1 -24.5t-5.5 -20t-12.5 -8l-94 196q-4 14 -8 40t12 38q18 10 41 18.5t45 -6.5l162 211v78q-4 10 -12.5 7t-12.5 -7 q-63 6 -101 -22.5t-67.5 -71.5t-55 -91t-64.5 -79l-41 37q-10 -18 -31 -37t-25 -41q0 -10 6.5 -11t14.5 -2t13 -5.5t3 -18.5q-23 0 -43 -3t-35 15v305l-36 31q-4 37 -3.5 76t0.5 78t-2 75.5t-14 71.5q-12 6 -23.5 4t-20.5 -7t-18.5 -10t-21.5 -5q-6 0 -11 5t-9 10t-11 5 q-4 0 -10 -8q-18 -104 -18 -225t18 -226l29 25q-6 -10 -2 -18.5t8 -15.5t6 -16t-6 -18q-18 2 -24.5 -4t-9.5 -16t-5 -21.5t-8 -17.5q4 -18 8 -39.5t27 -25.5q10 -18 -1.5 -22.5t-15.5 -14.5q0 -20 -4 -41t-4 -41q0 -18 7 -34.5t30 -27.5q-16 -4 -31.5 -18t2.5 -43 q-23 -27 -18.5 -71t18.5 -72l17 36q6 -33 5 -66.5t-2 -67.5t1 -66.5t14 -59.5q-6 -18 -15 -17t-18.5 6t-19.5 6t-19 -17q49 0 104.5 -5t106.5 5q6 18 4 37.5t-2 38.5q0 20 5.5 35.5t27.5 25.5q51 -4 105.5 1t99.5 -13q2 -16 13.5 -32.5t20.5 -33t10 -32t-13 -27.5 q53 -4 121.5 -7t117.5 7l-12 12q6 20 1 36.5t-13 32t-10.5 30t10.5 26.5q86 0 117.5 -1t39.5 -1h13q4 0 33 2q12 -4 23 1t19.5 13.5t8.5 16.5q0 10 -8 14zM1372 -104q-14 4 -22.5 -2.5t-8.5 -16.5t7.5 -8t11.5 2q10 0 13 10.5t-1 14.5zM1282 -117q-14 4 -23.5 -8t5.5 -16 q4 4 13 9t5 15zM1149 -33q4 35 -5 50.5t-29.5 20.5t-50.5 3t-67 -2q-16 -14 -26 -10t-22.5 10t-28.5 6t-46 -20q-27 14 -37 12t-17 -6t-16 -7.5t-34 9.5q-53 4 -107.5 -6.5t-113.5 -6.5q-29 2 -51.5 10.5t-44.5 -10.5q-66 8 -111 9q-43 0 -85 -3t-90 -4.5t-120 5.5l-24 24 q-14 -18 -39 -18t-51.5 4t-51 6t-39.5 -10q-4 -35 18.5 -47.5t61.5 -12.5t91.5 7.5t111.5 11.5q14 -12 27.5 -10t28 6t28.5 6t31 -8q43 0 64.5 3t38.5 6t38.5 5t64.5 -2q18 -10 40 -12t44 12q35 4 81 -2t81 -29q37 12 66.5 7t57.5 -12t54.5 -10t55.5 15h223zM104 135v31h-6 v-31h6zM260 -340q-4 8 -16.5 13t-24.5 5t-23.5 -5t-13.5 -13q16 -10 41 -10q27 0 37 10zM614 358q0 6 -5 10.5t-9 8.5t-6 8t2 8q18 0 23 -17.5t-5 -17.5zM543 250l-248 -6q-10 10 -13 25.5t-2 31.5t3 32.5t2 28.5q31 41 57.5 87.5t7.5 105.5q14 33 29 33q14 0 26.5 -16.5 t23.5 -39t24 -30.5q-6 -14 -3 -27.5t8 -25t4 -21.5t-16 -16q23 0 34.5 -13.5t18.5 -32t11 -39t14 -36.5zM121 489l-10 -36l4 43z" />
<glyph unicode="l" horiz-adv-x="653" d="M813 -8q-35 8 -72 8t-74.5 2t-73.5 7t-69 24l33 12q25 -4 25 6q0 12 -4 27h-152l-33 14q0 14 -3 32.5t-3 37.5q0 18 5 32.5t20 22.5l-19 21v288l-35 27q0 16 12.5 26.5t22.5 26.5l-14 672q-45 4 -94 7t-90 -7v-692q10 -10 24 -14.5t14 -24.5q0 -16 -14 -12t-18 -3 q-20 -53 -16.5 -121.5t3.5 -134.5q4 -14 -2 -21t-15 -11t-18.5 -6t-11.5 -9l41 -32q0 -12 2 -28.5t3 -33t-3 -32t-16 -25.5l-289 -15q2 -35 1 -54t1 -30.5t8.5 -18.5t22.5 -19q25 -4 31 -5.5t8 -1.5l5 -1t28 -7q12 -2 23 -10t23.5 -14t25 -8.5t26.5 8.5q23 4 36 -11.5 t25.5 -37t24.5 -44t33 -30.5q20 14 30 14t19.5 -5t22 -9t34.5 4l105 -14q4 2 26 2q23 0 48.5 -2t49 -4.5t29.5 -4.5q20 -14 40 -13t40.5 6t40 8t39.5 -7q4 20 6 43t12 43q-10 8 -22 9t-27 1q-14 0 -26.5 1.5t-22.5 9.5q-31 0 -37 -5.5t-8 -8.5t-9 -1t-40 15 q-31 -16 -64.5 -13.5t-68.5 7.5q-4 14 -15.5 15t-22.5 -1t-19.5 1t-8.5 24q-20 10 -25 -5.5t-20 -21.5q-16 10 -33.5 12l-35 4t-33 7.5t-23.5 23.5q10 16 20.5 26.5t30.5 0.5q14 27 32 30.5t36 -2.5t35.5 -18t36.5 -17q25 14 56.5 21.5t62.5 -2.5q20 14 41.5 11t44 -8 t43.5 -5q23 0 41 22q35 4 78.5 6.5t72.5 12.5zM872 -14q-4 4 -13 11t-19 3q-4 -6 -4 -12q0 -8 4 -8q10 -10 21 -4t11 10zM578 203q-16 16 -38 20t-42 -6q16 -20 43 -22t37 8zM856 -154q-20 4 -36.5 14.5t-35.5 6.5q-23 -18 -20.5 -23.5t15 -7.5t27.5 -4t17 -12q10 0 19.5 8 t13.5 18zM-162 -8q-10 16 -33.5 13t-33.5 -13l41 -19q4 0 15 2.5t11 16.5zM92 -33q-18 -10 -36.5 -8t-35 8t-35 9.5t-36.5 -3.5l-8 13q12 27 29.5 28.5t37 -4.5t41 -13t43.5 3q6 -6 8 -17.5t-8 -15.5z" />
<glyph unicode="m" horiz-adv-x="1150" d="M807 651l-4 129l-6 6q-10 -10 -20.5 -8t-21 7.5t-18.5 5.5q-6 0 -10 -17q6 -18 5 -33.5t-1 -31.5q0 -14 4 -28.5t23 -29.5q6 2 13 -2t13.5 -7t12.5 -2t10 11zM1282 -49q0 10 -12 10v-16h6q6 -6 6 6zM1298 -92q-12 4 -22 1t-10 -7q8 -8 20 -6t12 12zM651 500q0 8 1 21.5 t-7 17.5q-16 -10 -17 -21.5t7 -21.5q4 -4 8 -2t8 6zM1223 -92l-27 4l-12 -4h39zM1434 66l-363 -3q-25 0 -30 12.5t-4 29t0 32t-19 19.5q12 8 11 14t-7 12t-12 12.5t-4 14.5q16 10 16 24t-3 30t-2 30t21 24l-37 21q4 27 0 55.5t-4 55.5q0 29 7.5 52t33.5 38q-6 31 -9 62.5 t-10 61t-23.5 54t-47.5 41.5q-23 12 -45 24.5t-43 -8.5l6 -231h27q8 -47 8 -109q0 -59 -8 -112l-16 -5q8 -25 1.5 -49t10.5 -49q4 -29 -8.5 -54.5t-34.5 -35.5l20 -23q0 -12 1 -23t-11 -20h-201q-8 12 -13 13.5t-11 -0.5t-12.5 -1t-16.5 11q-4 8 -6 18.5t6 18.5q20 0 33 -23 l20 29q-8 10 -16 9t-15.5 -4t-15.5 -6t-16 1q-12 4 -29.5 5t-9.5 22q4 6 7 15t7 16.5t10.5 9.5t18.5 -9l6 318q8 6 9 18.5t3 26.5t9.5 25.5t27.5 15.5l11 -17l22 17q20 41 21 92q0 51 -5 96h-16q-29 -8 -38 -36.5t-1 -49.5q-6 -12 -10 -27.5t-10.5 -27.5t-15.5 -21.5 t-27 -9.5q-12 33 -34 57.5t-26 61.5q-4 8 -1 13t7 10.5t5.5 10.5t-7.5 13q-25 16 -46 8t-34 -28q-2 20 -15 27t-29.5 8.5t-35 -1t-32.5 -2.5l10 -43q-8 -16 -25.5 -30.5t-33.5 -1.5q0 -4 -2 -8.5t2 -8.5q16 6 29.5 2t26.5 -11t26.5 -12t29.5 -1q12 -8 6 -15.5t-6 -15.5 q0 -12 10.5 -16t22.5 0q4 8 2 20t14 17q39 -20 48.5 -52t8.5 -69t-4 -75t11 -69q-10 -35 -11 -67.5t0 -64.5t1 -62q0 -31 -6 -64q-80 8 -165 4t-163 13l-10 614q-20 16 -41 4t-41 -16q-8 -23 0 -48.5t32 -37.5q8 -78 6.5 -158t-6.5 -166q-25 -12 -31.5 -34.5t-6.5 -51.5 q0 -27 4 -55.5t2 -50.5l-27 -17l23 -26q4 -12 2 -26.5t-15 -23.5l-231 7q-12 6 -18.5 -1.5t-7.5 -17.5t4.5 -19t15.5 -5q45 -10 83 -8.5t48 8.5q16 -4 34.5 -16.5t41.5 -0.5q20 8 30.5 2t13.5 -19t2 -29.5t1 -29.5q16 -8 41 -8t41 8q6 10 5 23.5t-2 26t3 20.5t20 10 q12 -2 17.5 -11t8.5 -19.5t8 -17.5t20 -5q4 12 2 30.5t14 22.5q61 0 123.5 4.5t118.5 -8.5q10 -12 4 -23.5t-15 -19.5q8 2 13.5 -3t10.5 -11t9 -11t10 -8q0 14 7.5 20.5t17.5 8.5t21.5 3t19.5 5l-6 27q4 10 11 15t15 1q12 -4 17.5 -14t5.5 -23q8 -8 20.5 -2.5t16.5 9.5 q12 -14 24 -15q12 0 24.5 5.5t25 12.5t24.5 7q14 -6 32.5 -9t36 -8.5t28 -16.5t5.5 -36q23 6 47.5 1t49 -7t47 3t39.5 30q8 -10 25.5 -9t27.5 13q29 4 56.5 -9.5t52.5 -17.5q8 4 14 14.5t-4 18.5q-8 20 -21.5 10t-25.5 -10t-24.5 3t-8.5 20q37 4 79 9t77 -16 q14 12 28.5 15.5t28.5 2.5t29 -1q14 0 30 6q29 20 36.5 42t-21.5 24zM258 678q-8 10 -8 18q0 10 3 19.5t4 17.5t-5 15q-18 -10 -22.5 -29t-4.5 -41q0 -20 1 -42t-7 -38q20 10 27.5 35t11.5 45zM915 -88h-43l-6 -4zM473 -29h-16v-10zM-6 139l-6 4q-45 16 -101.5 13.5 t-97.5 -6.5l4 -7q20 -8 47 -10t54 -2t53.5 3t46.5 5zM-12 -29v13l-6 4q-7 4 -27 -4q10 -4 17.5 -12.5t15.5 -0.5zM-125 -23q-14 12 -31.5 16.5t-36.5 4.5q-18 0 -37.5 -1t-35.5 1q-8 -4 -19.5 -7t-7.5 -20q4 -8 11.5 -3t11.5 9q25 -8 53 -8q27 0 43 -24q2 10 10 12t16.5 4 t15.5 4t7 12zM1104 -33q-16 -4 -31.5 1t-28.5 16l11 14q16 8 26.5 -7.5t22.5 -23.5zM655 -6l-4 10l4 -6v-4zM494 74q-80 -8 -162 -6t-160 6q-10 10 -9 24.5t13 18.5q16 4 29.5 -2t25.5 -19l27 21h225q12 -4 13.5 -17.5t-2.5 -25.5z" />
<glyph unicode="n" horiz-adv-x="835" d="M909 356q4 8 1 16.5t-7 16.5q0 -12 -14.5 -16t-1.5 -17q10 -12 22 0zM887 240q-4 10 -23 10q-8 -8 -13 -24.5t9 -26.5q12 0 17.5 15.5t9.5 25.5zM831 240l-12 10h-10zM897 -59q10 0 13 16t0 37.5t-10 40t-17 18.5q-16 4 -30.5 15.5t-27.5 25.5q-6 -16 -18 -17t-27.5 2 t-33 5t-31.5 -8q-14 0 -23.5 9t-5.5 26q-6 20 1 28t20.5 10.5t25.5 2.5q14 0 21 4l-17 10q-31 -18 -40 -10t-11 26.5t-6 38t-27 23.5q8 6 11.5 16t6.5 20.5t8 17.5t17 7q4 16 2 32.5t-7 32t-9 31t-2 31.5q2 0 3 -1t5 1q45 -18 94 -22t95 -21v17q0 14 -15.5 20t-23.5 -2 q-29 4 -65 12t-64 4q-10 -8 -21 -8l-8 2v-2q-14 6 -17.5 29.5t-15.5 34.5q25 4 33 22.5t7 41t-5 47t-2 40.5q-6 23 -8 48.5t-5 51t-10.5 49t-25.5 42.5q-43 49 -106.5 64.5t-123.5 -9.5q2 -16 4.5 -36.5t0 -39t-11.5 -35t-27 -24.5l6 -4q10 -10 20 -2t19 12q39 -16 60.5 -53 t35.5 -76q8 -4 20.5 -9t12.5 -18q6 -29 2 -47t-13.5 -34.5t-19.5 -34t-14 -41.5q4 -6 13 -9.5t16 -6.5t11.5 -8t-1.5 -15l-39 -6q4 -20 12 -41t-19 -37q14 -27 15 -58q0 -31 -4 -64.5t-6 -67.5t8 -66q-4 -16 -19 -17q-12 0 -20 11q-16 0 -30.5 -3.5t-14.5 -19.5 q6 -16 15 -17t18.5 3t18.5 9t15 -1q4 -6 11.5 -14.5t11.5 -15.5t2 -14t-14 -11q27 -25 67 -25q43 0 72 14q16 0 36.5 -8t37.5 8q25 -2 44 -8t40.5 -12t45 -9t58.5 -1zM737 279q0 12 -11 11t-24 -1l7 -17q4 -4 16 -5.5t12 12.5zM883 121q-4 0 -11.5 -3t-7.5 -7h13q4 -4 7 1 t-1 9zM838 156q-6 14 -15.5 15t-17.5 -4t-15.5 -11t-9.5 -6q10 -16 26 -7t32 13zM367 903q-33 4 -63 -6t-54 -33q-4 4 -5 11.5t-5 11.5q-18 2 -42 5t-48 3q-23 0 -43.5 -5t-34.5 -20v-190q27 -25 35 -58.5t7 -70.5t-4.5 -76t1.5 -74l-29 -28q-18 -18 -14 -30.5t13 -25 t13 -25.5t-12 -32l29 -4q4 -4 -1.5 -11t-5.5 -12q-31 -43 -20 -77l-252 2q-6 -18 -4 -27.5t9 -14.5t18.5 -7.5t23.5 -8.5q0 -10 3 -19t-9 -9q-41 12 -61.5 -3.5t-16.5 -43.5q43 -6 99.5 -8.5t103.5 16.5q8 -23 41 -23t55 4q20 6 63.5 1t86.5 -6t73.5 10.5t26.5 52.5 q-10 14 -12 21t-2 13t1 14.5t-1 24.5l-109 45q2 8 1 24.5t-1 33.5q0 18 4 33.5t15 19.5q4 8 0 22.5t-19 10.5q-8 63 -6 141t2 150q4 16 18.5 22t30.5 6q8 18 24.5 33.5t32 31t27.5 34t12 41.5q23 6 27 18t-1 27.5t-13 33t-8 31.5zM401 66q-10 12 -23 3.5t-5 -20.5 q10 0 19 2.5t9 14.5zM-49 -61q-8 4 -15.5 -4.5t-7.5 -12.5q0 -10 4.5 -11t8.5 -1q8 4 14 11.5t-4 17.5zM-127 -74q-12 4 -20.5 -7t4.5 -15q4 0 12 7t4 15zM670 618l-1 -3t-5 -7h-11v17q4 0 10.5 -1.5t6.5 -5.5zM838 33q4 -4 1 -11.5t-8 -7.5h-12v35q4 -4 11.5 -6t7.5 -10z M793 27q-12 -29 -34 -35t-44.5 -4t-47 5t-42.5 -5q-8 0 -13.5 3t-15.5 7q10 4 27.5 5t35 4t33 11.5t23.5 24.5q10 -6 21.5 -3t21.5 6t19.5 0t15.5 -19zM137 94q12 -8 21.5 -14t9.5 -10t-12.5 -6.5t-40.5 -4.5q-10 4 -2 13.5t24 21.5z" />
<glyph unicode="o" horiz-adv-x="950" d="M997 -84q4 6 -3 17.5t-11 11.5l6 -35zM1128 -6q2 25 16.5 44t11.5 31.5t-41 19.5t-140 9q-25 18 -44.5 16.5t-40 -9t-40 -11.5t-43.5 12v15q0 20 9 39.5t40 15.5q8 12 4 20.5t-11 14.5t-14.5 14t-7.5 21q6 31 3 69.5t-3 69.5q-4 23 14.5 30t35.5 11q-2 55 -7.5 112.5 t-19.5 112t-41 100.5t-72 80q-29 51 -76 74t-102 29t-114.5 3t-110.5 -1l-105 -49q2 -29 -10 -35t-28.5 -8t-34 -6t-25.5 -27q-4 -14 -14.5 -27.5t-16.5 -27t-6 -27.5t17 -31q-4 -47 -11.5 -95t-13.5 -98t-9 -101.5t5 -102.5l29 -180q-6 -16 -16.5 -20.5t-24.5 -4.5 q-12 0 -26.5 1t-25.5 -5q-12 6 -22 10t-27 4q-18 0 -45.5 -7t-70.5 -21q2 -6 2 -17v-22q0 -10 2 -18.5t10 -8.5q10 0 13 7.5t4 16.5t6.5 15t17.5 4q16 2 25.5 -4t15.5 -16t10 -20.5t12 -14.5q10 0 13.5 11.5t7.5 15.5q16 16 42.5 8t47.5 -8q2 -31 -7 -34t-24.5 2t-32 8 t-26.5 -17q-20 0 -42 -5.5t-43.5 -6.5t-41 3.5t-33.5 22.5q-16 4 -30.5 -10.5t-24.5 -18.5q106 -8 161.5 -11t84.5 -3h49h51h92q61 0 174 -4q27 2 60.5 6t68.5 4t69 -6t60 -25l15 21q82 2 119.5 4t49 3t4 2t-19.5 1h-16t6 0h55h127l64 29l20 -15zM815 -195v15 q0 16 -17.5 35.5t-39.5 19.5l-6 -27q4 -23 25.5 -30t37.5 -13zM711 -201q-10 16 -27 17q-16 0 -16 -11q6 -10 12 -13t16 -7q4 4 9.5 6t5.5 8zM737 831q0 -4 -3 -6t-3 -8v14h6zM647 623h-29q-8 8 -5 14t9.5 8t13.5 1t11 -9v-14zM688 231q-10 -16 -13 -34.5t-7 -37 t-12.5 -34.5t-28.5 -27l-127 15q-29 12 -53.5 7t-49 -12.5t-48 -8.5t-50.5 22q-23 -12 -32 -7t-14 17t-9 27.5t-15 23.5q4 33 -5 75t-13 82t7 71.5t58 44.5q-10 29 -1.5 56.5t17.5 53t11 49t-18 43.5l55 15q45 43 84 61q57 10 94 -21.5t74 -68.5q18 -27 20 -62.5t6.5 -69.5 t17.5 -58.5t52 -26.5q10 -53 3 -103.5t-3 -91.5zM131 698l-8 9h8v-9z" />
<glyph unicode="p" horiz-adv-x="944" d="M1020 102q-18 12 -30.5 15.5t-25 2.5t-27.5 -5t-40 -9q-33 6 -42 8l-9 3q2 0 9 -2t8 -3t-9 -1t-45 6l-18 18q6 29 11 68t9 81t8 82t8 70q27 2 34 16.5t6 35t-4 41t3 34.5q-14 53 -31.5 110.5t-45 109t-69.5 89t-104 50.5q-86 18 -172 7t-153 -59q-8 0 -10 4.5t-2 10.5 t1 13t-1 11q-45 10 -95.5 11.5t-85.5 -17.5v-442l45 -45q0 -31 2 -71t2 -83q0 -41 -2 -79t-8 -66q-74 -2 -96 -2q-23 0 -21 0h17q14 0 16 1t-22 1h-103q-29 -6 -47 -25.5t-22 -44t8 -49.5t45 -39q39 -4 59.5 -10t48.5 10q20 -6 33 -9t20 -4t12 -2t13 -3l6 -351 q47 -4 95.5 -7t91.5 7l12 357q14 -2 26.5 3t25 11t26.5 9t31 -5q18 8 37.5 15.5t38 8.5t37 -5.5t34.5 -24.5q14 4 35.5 7t42.5 -7q41 8 57.5 10t20.5 1t1 -3t0 -4t18.5 -1t53.5 7q39 -10 47.5 -9t11.5 4t13 4t51 -7q51 0 77 15.5t35 37t6 46t-9 42.5zM494 -80 q-10 12 -23.5 8t-27 -10t-24.5 -4t-16 27l-12 -15q10 -33 41 -37t55 -14zM680 162q-12 -29 -34.5 -31t-50.5 5t-56.5 13.5t-49.5 -8.5q18 -10 22.5 -27.5t8.5 -37.5q-4 -10 -10 -20.5t-21 -10.5q-4 0 -10 3t-10 3q14 18 6 24.5t-21.5 9.5t-21.5 8t6 22q14 -4 26.5 9t18.5 23 q-45 4 -90 -7t-84 -29q-39 14 -50 52t-10 85t5 95t-2 85q27 0 35 14.5t9 34t2 40t11 34.5q14 27 26.5 58.5t29 60t39 50t59.5 30.5q25 0 45 -12.5t38.5 -31t33 -40t24.5 -39.5q10 -35 22.5 -65t16.5 -68q37 -23 46 -65t6 -90t-10 -96t-5 -81zM731 33q-4 2 -11 7t-12.5 12 t-5.5 16q0 8 11 16q18 -6 20 -23.5t-2 -27.5zM680 51q0 -10 -18 -18v18h18zM-16 0q0 -12 -7 -12q-16 0 -17 14t3 25q10 0 15.5 -11.5t5.5 -15.5z" />
<glyph unicode="q" horiz-adv-x="1011" d="M1202 -27q0 4 -7 13.5t-11 5.5q-10 -10 -7 -20.5t19 -10.5q0 4 3 6t3 6zM1135 0q4 10 -0.5 21.5t-18.5 11.5v-33h19zM1087 -14q-14 16 -33.5 9t-23.5 -22q4 4 12.5 2t16.5 -5t16 -0.5t12 16.5zM971 29l-19 24l-6 -24q4 -4 14.5 -7t10.5 7zM954 -27q4 10 -3 11.5t-11 1.5 l-6 -31h6q4 0 11 7t3 11zM881 -397v377l-45 30v250l32 25q-31 6 -34 22.5t3.5 34.5t12.5 38.5t-8 37.5q35 43 36 101.5t-4 115.5q-4 2 -12 0t-16 -2t-11.5 5t1.5 21q-4 10 -1 16.5t11 10.5t16 5t12 1l7 133q0 10 -5.5 12.5t-11.5 2.5h-14q-6 0 -8 6q-12 6 -11.5 12t7 11 t14.5 10.5t10 9.5q0 25 -12 33t-31 8q-16 0 -34.5 -4t-30.5 -4l-27 -82q20 -10 23.5 -24.5t-1 -31t-9.5 -34t1 -33.5q-25 6 -27.5 25.5t-1.5 44t-1 46t-27 31.5q-10 0 -12 -4t-2 -8q4 -16 3 -30.5t-16 -14.5l-63 51q-10 14 -8 33.5t-17 30.5q-68 4 -133 1t-123 -26 q-111 -78 -155.5 -184.5t-40.5 -231.5q0 -14 -3 -31.5t-3 -35.5q0 -16 7 -30.5t29 -23.5q-18 -14 -24 -34.5t-6 -42.5q0 -23 2 -46.5t-2 -41.5q2 -6 8 -11.5t11 -10.5t7 -10t-2 -11q-76 -2 -116 -2q-41 0 -60.5 1t-23.5 2t-6.5 3t-8.5 4t-30 2q-25 -8 -45.5 -11.5t-37 -7.5 t-30.5 -13t-27 -30q0 -45 -3 -89t11.5 -77.5t56.5 -52t130 -10.5q20 -2 23 -3l3 -1q0 -2 5 -2h26q27 10 32 8t7 -5t10.5 -5t38.5 8q25 2 51.5 0t52 -5t51 -4t50.5 3q37 14 73 11t72.5 -6t71.5 -1t70 27q-12 29 -3 49t27.5 37.5t38 34t25.5 38.5q10 4 16 -2t17 -10 q8 -12 6 -22.5t-9.5 -18.5t-14.5 -15t-7 -14l6 -292q-23 -8 -22 -19q0 -12 6 -24.5t13 -25.5t3 -22q8 2 10 8.5t1 13.5t-2 15t3 15q8 -18 23.5 -20.5t32 -1.5t31 -2t22.5 -28q14 -4 37 -7t33 20zM702 195q-10 -47 -42.5 -87t-71.5 -59q-14 66 -9 130.5t-10 129.5 q-12 2 -23 -3t-21.5 -14t-21.5 -18.5t-24 -13.5q-10 -10 -18 -23.5t-19.5 -25.5t-26 -22.5t-32.5 -12.5q8 14 1 24.5t-18.5 20.5t-21.5 22.5t-10 28.5q-4 8 -4 23q0 16 -3 29.5t-11.5 22.5t-26.5 7q-2 12 2 16.5t10 5.5t13.5 2t11.5 9q6 49 12 103.5t21.5 102.5t46 87 t86.5 57q25 -4 48 -7t48 -19l6 51q55 -27 74.5 -72t20.5 -97t-5 -108.5t0 -103.5q0 -10 7 -16.5t11 -10.5q-25 -10 -22.5 -33.5t-3.5 -41.5q18 0 26.5 -10.5t8.5 -24.5t-3.5 -27.5t-5.5 -21.5zM344 72h-12q-8 10 12 20l2 -5t-2 -15zM293 72q0 -14 -10.5 -17.5t-20.5 -7.5 q-6 10 7.5 22.5t23.5 2.5zM324 -74q-25 0 -47.5 1t-40.5 26q14 14 44 1.5t44 -28.5zM178 53q-14 -14 -35.5 -26.5t-40.5 -12.5q2 10 -3 18.5t-10 16.5t-5 14q0 8 12 17l13 -39q12 -6 20 -1t16.5 12t15.5 10t17 -9zM203 -47q-10 -18 -21.5 -19.5t-24 5t-25.5 14.5t-26 6 q12 14 22.5 13t21 -7t24 -12t29.5 0zM88 -61q0 -18 -12 -19q-16 0 -29.5 11.5t-3.5 27.5q10 0 25.5 -2t19.5 -18zM-14 -80h-52v19q16 -14 26.5 -12.5t25.5 5.5v-12zM-125 -43q-4 -10 -12 -11t-19 -1q-10 10 -12 22.5t12 22.5z" />
<glyph unicode="r" horiz-adv-x="628" d="M532 778q-2 20 1.5 46t3.5 50q0 25 -6.5 45.5t-24.5 30.5l-10 -178q8 0 18 -1t18 7zM698 436q-4 14 -20 17.5t-29 11.5l-12 -10q14 -10 29.5 -20.5t31.5 1.5zM858 283q-4 -8 -13 -23.5t3 -19.5q16 4 15 19.5t-5 23.5zM836 227l-17 6l-4 -10q8 -4 12.5 -2t8.5 6zM891 172 q-4 4 -7 12.5t-16 3.5q-4 -8 -2 -20t15 -12q10 0 10 16zM776 260q-2 10 -9 14.5t-15 4.5h-17q-8 0 -14 4q-4 -8 -12 -9q-6 0 -13.5 1t-13.5 2.5t-10 -5.5q10 -23 3 -31t-20.5 -13t-26 -12t-12.5 -28q14 -12 19.5 3.5t19.5 19.5q12 8 21.5 7t19 -6t17.5 -11t18 -6 q4 8 20.5 12t8.5 16q-10 0 -17.5 -6t-11.5 6q10 16 15 34.5t30 2.5zM737 139v6q-4 8 -6 14.5t-10 2.5l-6 -6q0 -8 7 -12.5t15 -4.5zM633 240q-4 12 -10.5 22t-22.5 14l-6 -16q4 -12 15.5 -22t23.5 2zM604 188q8 20 -11.5 29.5t-31.5 -6.5q-10 -4 -14 -16.5t8 -22.5 q10 -8 31.5 -6t17.5 22zM678 45h-43h-31q-14 0 -28.5 3t-36.5 9q-4 -12 -13 -12q-6 0 -14 3t-16.5 4t-12.5 -11q-27 8 -53.5 4t-52 -10t-53 -10.5t-56.5 4.5q-14 14 -11 21t13.5 10t21.5 7.5t15 12.5q-2 14 0 31.5t3 35t-4 34t-21 26.5q0 14 -2 30.5t0 31t10 26.5t26 16 l-34 33q0 84 -5.5 167t17.5 157q12 27 31.5 42t40 22t37 12.5t22.5 11.5q16 35 12 83t0 93q-4 4 -10 13t-18 5q-2 -4 -15.5 -5t-29.5 -1q-14 0 -25.5 -1t-11.5 -5q-18 4 -45 6t-53.5 1t-50 -5t-38.5 -12q4 -33 0 -71t-5 -75t7.5 -69.5t34.5 -55.5q-4 -18 -1 -41.5t3 -46.5 q0 -20 -7 -37.5t-32 -23.5q-6 -14 -4 -24.5t8.5 -18.5t14.5 -15.5t14 -13.5q-4 -8 -11 -10t-11 -6q-4 -10 0 -16.5t10 -11.5t11 -11t5 -16q4 -16 -8 -26.5t-29 -10.5q-10 -137 0 -265l17 -12q8 4 13 6t13 11q16 10 34 1.5t28 -28.5q-23 -16 -51.5 -12t-53.5 0q-10 12 -21 14 t-23.5 1t-24 0t-21.5 13q-4 14 2 16.5t13 2.5q8 0 15 1t5 13l-45 6q-16 -4 -17 -12t2 -17.5t3 -19.5t-15 -18q-18 0 -21 7t0 17t7 20.5t-2 16.5q-12 4 -19.5 -2t-10.5 -15.5t-4 -20.5t-1 -17q-37 0 -45 -6t-14 -6q-18 2 -29.5 -0.5t-22 -4.5t-21.5 -3t-30 3q-4 -12 -7 -28.5 t18 -26.5h811q45 -4 64.5 11.5t22.5 33t-7.5 30.5t-26.5 7zM516 188q-8 33 -16 39q-8 -4 -13.5 -13t2.5 -19q9 -15 27 -7zM428 315q-12 4 -29 4q-14 0 -26 -8q12 -16 31.5 -12t23.5 16zM109 244h-17q-14 16 -26.5 15t-24.5 -9t-23.5 -17.5t-23.5 -9.5q8 -29 19.5 -59.5 t35.5 -50.5l4 4q-8 25 4.5 38t26.5 23t24.5 24.5t0.5 41.5zM-84 168q-8 4 -14 12t-19 4l-6 -39q-4 -8 -13 -5t-20 -1q0 -18 -10 -26.5t-24.5 -12.5t-27.5 -9t-20 -17q8 0 16.5 9t16.5 -3q12 4 20.5 -2t15.5 -14.5t15.5 -14.5t20.5 -2l6 33q-25 18 -21.5 27.5t17.5 17.5 t30.5 17.5t16.5 25.5z" />
<glyph unicode="s" horiz-adv-x="845" d="M1315 119q-14 6 -26.5 2t-16.5 -15q0 -4 7 -13t17 -5q4 4 13.5 10.5t5.5 20.5zM1190 147q-14 4 -26.5 2t-16.5 -2q10 -14 26.5 -9t16.5 9zM1022 82q8 10 0 21.5t-47 19.5q4 0 -7.5 2t-28.5 3t-33.5 3t-24.5 2q-35 2 -57.5 3t-43 2t-42 7.5t-54.5 18.5q20 39 40.5 72.5 t16.5 80.5q4 41 -10 76t-38.5 64.5t-54.5 54.5t-56 47q-29 -4 -57.5 6t-57.5 15q-23 27 -52.5 34t-61 13t-61.5 18t-48 49q-10 27 -2 42.5t22.5 28.5t29.5 26.5t21 35.5q23 29 59 41.5t75 16.5l-33 26q16 10 33.5 11.5t37.5 1.5q43 -20 71 -58.5t44 -77.5q18 -6 35.5 -3 t33 8.5t32 6.5t32.5 -12q12 25 5 41.5t-19 32t-21.5 31.5t-3.5 43q-18 25 -43.5 57.5t-64.5 32.5q-14 0 -11 -14.5t-2 -18.5q-25 -4 -48 0t-47.5 10.5t-49 10.5t-51.5 -2q-35 20 -65.5 34.5t-69.5 -8.5q-35 -23 -67 -52.5t-55.5 -63t-33.5 -72.5t-4 -80q20 -12 32.5 -32.5 t20.5 -43t14.5 -47t16.5 -43.5l-51 6q-4 -29 18.5 -51t44.5 -37q16 -4 34.5 -15t36 -21.5t36 -13.5t35.5 11l18 -32q25 -14 39 0t18 38q68 -4 127.5 -32.5t96.5 -87.5q10 -16 8 -35t-8.5 -37t-9.5 -33.5t3 -27.5q-20 -20 -43.5 -50t-58.5 -34q-10 16 -25.5 22t-34 7t-36 0 t-31.5 3q-4 -10 -10 -21t-23 -11q-4 4 -12 10t-15.5 13t-9.5 15.5t7 18.5q-12 12 -21.5 27.5t-20 30t-23.5 23.5t-32 9l13 31q8 18 0.5 26.5t-19.5 10.5t-27.5 1t-23.5 1q-20 -4 -22.5 -19.5t4.5 -25.5q-10 -14 -18.5 -13.5t-17 8t-15.5 15.5t-15 8q-23 2 -32 -9t-17 -25.5 t-19.5 -24t-38.5 1.5v-13q14 -10 25.5 -14t32.5 -4q23 -20 35 -50t2 -65l-35 -55q-18 2 -40 -4t-43.5 -14.5t-42 -13.5t-34.5 -1q-18 4 -45 4t-31 -22q-16 -2 -22 -18.5t1 -36t28.5 -36t58.5 -16.5l1022 -12l-4 33l-144 20l-51 13q4 18 -2 28t-17.5 16.5t-24.5 10.5t-19 14 q10 16 28.5 26.5t40.5 6.5q12 20 27 20q0 -12 12 -20q14 -12 29 -12q14 0 27.5 1t24.5 -2t22 -20q4 20 17 27.5t30 7.5q16 0 34.5 -4t32.5 -4q6 14 14.5 13t17.5 -6t18.5 -8t19.5 7zM-113 285h-45q10 -14 27.5 -9t17.5 9zM-106 227q-6 12 -13 13q-8 0 -15 -5.5t-13.5 -13.5 t-10.5 -12l19 -6q10 -4 21.5 3t11.5 21zM-342 317q10 10 1 21.5t-19 11.5q-10 -12 -23 -12q-2 6 -12 2q-14 4 -25.5 6t-17.5 -16q0 -10 9 -20.5t23 -10.5v31q4 4 6.5 6t4.5 4q4 0 6 -1t6 -1q10 -6 17.5 -19.5t23.5 -1.5zM391 918l-18 -15l6 15h12z" />
<glyph unicode="t" horiz-adv-x="765" d="M1087 39l-26 18l-43 1t-107 1q-63 0 -136 -1t-134 -3v31q2 16 11.5 20.5t19.5 4.5h22q12 0 21 8q-35 14 -76 14q-39 0 -79 -2t-79 1t-71 26l-21 266q2 14 7 29.5t6 29t-4 25.5t-23 22q2 14 0 35t-3 39.5t4 32.5t25 20q-6 18 -3 39t4 41.5t-6 35.5t-34 24q-10 4 -7 19 t14 22q18 -25 44.5 -34t55.5 -9q31 0 60.5 4t52.5 4l-7 35q14 10 19.5 26.5t5.5 34.5t-2 36.5t-2 35.5q-35 10 -80 15t-80 -15q-20 10 -26.5 26.5t-7.5 35t0 36.5t-1 35l-6 119q-14 8 -24.5 3t-17.5 -14.5t-14 -18.5t-17 -9l-27 33q-29 -6 -60.5 -5.5t-52.5 -15.5 q10 -49 5 -93t-5 -99q0 -25 -11 -30t-26.5 -1t-33 10t-29.5 0q-14 4 -20.5 -6t-12.5 -21q8 -23 6 -42t-5 -37.5t-5 -36t4 -37.5q14 -4 31 -4h35q18 0 35.5 -2t31.5 -13q0 -55 5.5 -115.5t-5.5 -111.5q12 -23 11.5 -46.5t-5 -47t-4.5 -49.5q0 -25 13 -49q-16 -31 -12.5 -62 t9 -59.5t2.5 -55t-34 -49.5q29 -16 37 -44.5t14 -59.5l-98 -4q14 35 1.5 39t-35 -1.5t-47 -10.5t-36.5 12q-16 -12 -31 -13q-16 0 -33.5 5.5t-34 9.5t-34.5 -2l-6 -21q14 2 28.5 -2t27.5 -7t28 -3q14 0 28 12q29 8 54.5 -1t50.5 -17l-328 -19v-22q12 -37 29.5 -50.5 t38 -11.5t43 14.5t43.5 24.5l340 8q12 -12 20 -16q35 -35 83 -48t99 -13t102.5 9t94.5 19v84zM1165 0q-16 14 -30 14t-29.5 -6t-30 -12t-28.5 -2q-25 12 -52 12t-53.5 -3t-52 -5t-49.5 8q-10 4 -33 7t-27 -13q10 -16 26.5 -19.5t33.5 -7.5q10 12 22 11.5t24.5 -5t27 -5.5 t26.5 12q12 -12 26.5 -13.5t30 1.5t29.5 5.5t27 -6.5q27 8 46 6t32.5 -4t21.5 2.5t12 22.5zM715 -180q-8 4 -19.5 9t-22.5 7t-20.5 -3t-11.5 -19q16 -6 37 -8t37 14zM225 -168v12l-7 8q-7 9 -32 -8q4 -4 14.5 -13t24.5 1zM532 -35q-10 -16 -36.5 -13t-42.5 19q16 10 39 11 q24 -1 40 -17zM371 86q-18 -6 -40 -14.5t-40 8.5q10 12 33.5 10t46.5 -4z" />
<glyph unicode="u" horiz-adv-x="854" d="M1237 43l-49 8q-37 -10 -81 -4t-85 10l12 6q12 12 0 25q-63 4 -112 4t-105 -10q10 -10 18.5 -12t18.5 -13q-25 0 -37 -7t-21.5 -13t-19.5 -7t-31 11v12q4 4 13.5 14.5t23.5 10.5q-31 12 -35 29.5t0.5 37t9.5 41t-5 39.5q-10 16 -9.5 36t1.5 40.5t-1 38.5t-16 33 q-14 25 -7 36t18.5 18t19.5 16.5t0 31.5q-29 18 -38 48t-9 63t6 66.5t10 62.5q-14 14 -14 28t5 29.5t14 30t13 28.5q-4 18 -18 20.5t-33 2.5q-16 0 -31.5 3t-21.5 24q6 18 -3 27.5t-25.5 11.5t-34 -3.5t-23.5 -19.5v-33q0 -16 3 -31.5t12.5 -25.5t27.5 -12v-277l-18 -24 q-10 -12 -11.5 -35t17.5 -37q-18 -35 -25.5 -74t-15.5 -78t-24.5 -74.5t-49.5 -62.5q-14 -6 -31.5 -14t-37 -13.5t-39 -2.5t-33.5 18q-25 23 -33 51.5t-10 61t0 66.5t0 67h-31q-4 20 -9 45.5t-3 50t11 47t32 39.5q6 12 3 19t-10.5 12.5t-16.5 9.5t-13 8q-14 23 -6 29t20 7 t21.5 6t1.5 26q-29 -4 -37 7t-8 29t3 39t-1 35q-4 18 9 27.5t28 9.5q10 23 8 45.5t-2 44.5q-33 4 -65 1t-64 -13q-6 0 -13.5 5t-14.5 9t-13 4t-13 -12q-4 -12 -15 -25.5t3 -27.5q4 -41 7 -80t-7 -80q10 -4 24.5 0t10.5 -18q-27 -16 -32 -40t-3 -51.5l4 -55t-10 -50.5 q23 -12 25 -28.5t-2.5 -33t-9.5 -35t5 -36.5q-18 -31 -17 -58.5t7 -55t10.5 -55.5t-6.5 -58q0 -10 5.5 -17.5t9.5 -15.5t3 -15.5t-12 -13.5q-74 -4 -142 -6t-134 -6q-29 6 -40 8t-17.5 -1t-12.5 -7t-22 -10q-14 -2 -18.5 -18.5t4 -32t31 -19.5t63.5 18q18 -10 27.5 -8 t17.5 6t20.5 7.5t34.5 -1.5q14 -29 34.5 -32.5t44 1.5t50.5 12t51 3q18 8 27.5 11t15.5 3q8 0 15.5 -2t21.5 -4q23 -23 55.5 -30t69.5 -8t75 0t70 -5l13 -37q14 0 17 7.5t3 17.5v18q0 8 10 13q18 0 24.5 -9.5t9.5 -21.5t6 -24.5t14 -18.5q8 6 9 16.5t1 20.5q0 8 2 15t12 9 q31 16 65 20.5t68.5 5.5t69.5 6t68 24q16 -10 22 -7t10 7t11 4q6 0 22 -15q25 12 44.5 15.5t36.5 5.5t36.5 3t44.5 7q18 -8 37.5 -7t40 4t41 4t41.5 -7q8 4 10 15.5t1 20.5t-2 13t3 -8zM930 -147q-4 23 -21.5 13.5t-27.5 -13.5l12 -13q10 -4 23.5 -0.5t13.5 13.5zM641 -147 q-14 0 -26.5 -1.5t-16.5 -5.5q10 -14 24.5 -8.5t18.5 15.5zM580 -147h-48q12 -10 28 -14t20 14zM434 -147q-14 -4 -28.5 -3.5t-30 2t-29.5 1.5t-29 -7l43 -18q6 14 17.5 13t22 -4t20.5 -1.5t14 17.5zM305 -154q-14 -12 -28.5 -9t-30 9.5t-31.5 9.5t-33 -10q10 0 15.5 -4 t9.5 -8q23 -4 49 -5t49 17zM127 -147q-8 16 -22.5 20t-30 1t-29.5 -11t-20 -17q23 -4 51 -5.5t51 12.5zM-80 -111q-14 0 -23.5 -10t-19.5 -14q-16 8 -32.5 7t-32 -5t-29.5 -6t-29 4q-18 4 -41.5 5t-36.5 -17q27 -6 53.5 -8.5t55.5 -2.5q27 0 55.5 -1t61.5 -7q4 14 13 25.5 t5 29.5zM987 57q-6 -14 -14 -18t-17.5 -3t-20.5 6t-26 9v6q18 10 31.5 7t46.5 -7z" />
<glyph unicode="v" horiz-adv-x="837" d="M1028 6l-110 12q12 2 18 11.5t8 20.5t3 22.5t5 17.5q-41 -4 -79.5 0t-79.5 4q-35 10 -82 12.5t-88 -2.5q-14 4 -29 5q-14 0 -21 -9q8 -12 18.5 -15t20.5 1q14 -4 28.5 -3t29 -1t25 -7t16.5 -22q14 4 30.5 2t31.5 -5t30.5 -4t32.5 7q23 -4 47 -11t28 -30l-18 -6h-213 q2 4 0 10.5t-4 12.5q10 14 8 16t-10 2q-6 0 -15.5 1t-11.5 13l-84 19q-23 12 -43 7t-41 -11q8 10 19.5 16t15.5 8l-25 31q4 45 16.5 89t27 87t28.5 86t23 90q14 31 20 66t33 53q-12 35 -1 74t26 74q8 12 20 10t27 -6q2 12 7 24.5t6 24.5t-3 23.5t-23 17.5q4 12 18.5 14 t28.5 2q14 18 12.5 49t-5.5 58q-12 -10 -26.5 -8l-29 4t-23.5 -2.5t-9 -28.5q-29 -6 -40.5 -26.5t-15.5 -45t-8 -50.5t-18 -44l-31 12q-8 -6 -7 -14t4 -16.5t5 -17.5t-2 -17q-10 -27 -9 -52.5t-8 -48.5q-14 -98 -38.5 -190t-55.5 -184q-14 -10 -26.5 -2t-20.5 18l-65 254 q-14 35 -21.5 81t8.5 77q-29 23 -42 50t-19 58t-11 61.5t-16 59.5q-6 27 -21.5 39t-33.5 17t-38.5 7.5t-41.5 8.5q-18 -4 -22.5 -22.5t4.5 -37.5q20 4 28.5 -3t13.5 -19.5t9 -25.5t14 -21q4 -18 -6 -27.5t-22 -13.5q8 -10 10 -23.5t4 -28t8 -23.5t25 -9q59 -141 104 -293 t80 -303q-70 12 -135 -17l-41 41q4 -23 -7.5 -39t-25.5 -26q-33 -4 -49 0t-23 4q-4 0 -2 -9.5t4 -35.5q-35 10 -74.5 16t-80.5 0q10 -20 48 -39.5t79 -17.5l22 -17q27 8 54 9q27 0 52 -5.5t52 -9.5t53 0q10 2 19 2h20q4 -18 -2 -28q16 0 34.5 -4t37 -6.5t35 2t28.5 22.5 q18 0 37 4t35 8q10 2 27 6q10 -2 47 -4t87 -3t105 -1h103q49 0 81.5 1t38.5 3q27 -2 30 4t-1 29zM657 -94l-22 12l-6 -16h14t14 4zM563 -82q-8 4 -16 2t-19 -2q10 -10 20.5 -11t14.5 11zM2 106q0 8 -7 13.5t-15 5.5q-10 0 -17.5 -5t-7.5 -14q0 -8 7 -15t15 -7q10 0 17.5 7 t7.5 15zM-74 59q0 10 -1 14.5t-11 4.5q-4 -4 -1 -11.5t13 -7.5zM291 6l-82 2q4 4 8 15q-18 14 -49 10q27 10 51 4l66 -23q4 -4 6 -8zM135 10h-49l2 2q16 -2 37 4z" />
<glyph unicode="w" horiz-adv-x="1046" d="M997 702q0 4 -6 7.5t-10 -0.5v-25q4 0 10 2t6 16zM1235 41q-33 -4 -70 0t-75.5 7t-74.5 1t-67 -20q20 -16 41 -17.5t42.5 1.5t42 6.5t40.5 -3.5q12 12 29.5 13.5t34.5 1.5h32q15 0 25 10zM913 27q-6 0 -17 2t-22 2q-8 0 -13 -4t-3 -19q0 -29 31 -18q4 4 16 13.5t8 23.5z M981 903q-23 12 -39 6t-26.5 -21.5t-15.5 -34.5t-5 -36q-14 -59 -26.5 -117.5t-34.5 -113.5q-25 6 -34 -1t-12.5 -21.5t-5.5 -31t-10 -24.5q10 -10 26.5 -12t16.5 -25q-14 -33 -18 -66.5t-5 -68.5t0 -70t-1 -69q-18 2 -22.5 12t-3.5 23.5t2 26.5t-5 24q-10 10 -18.5 5 t-18.5 -5q-18 18 -25.5 43.5t-11.5 52.5q-14 16 -12 28.5t11 22.5t19.5 19.5t12.5 21.5q-4 29 -24.5 40t-43.5 -3q-10 33 -14 66.5t-9 66.5t-13.5 64.5t-24.5 64.5q-12 14 -14.5 42t-8.5 51.5t-20.5 37.5t-46.5 2q-23 -66 -40.5 -126t-27.5 -130q-10 -25 -12 -53.5t-6 -56 t-16.5 -50t-39.5 -34.5q-12 -20 -22 -22.5t-19.5 1.5t-19.5 7t-23 -5q-10 4 -16 13.5t-2 23.5q-4 14 6 22.5t25 8.5q10 41 -11.5 57t-44.5 33q-10 14 -4 23.5t13.5 18.5t12.5 19.5t-3 24.5q-23 -2 -31 7t-12 23.5t-7 29t-18 20.5q0 45 -12 84t-12 80q-23 -18 -48.5 -16.5 t-48.5 -2.5l7 -74q18 -25 20 -50t-2 -51t-9 -51.5t-3 -47.5h35q10 -4 16 -12.5t-4 -18.5q-20 0 -24.5 -8t-3.5 -20.5t4 -27t-1 -28.5q10 -51 62 -61q12 -4 13 -12.5t-3 -17.5t-11 -16.5t-12 -9.5q10 -14 29 -22t14 -31q-10 -18 -21 -12t-22 6q2 -6 10.5 -8t16.5 -3 t15.5 -4.5t7.5 -15.5q0 -14 -15 -14q-12 0 -22 -10q0 -55 21.5 -109.5t21.5 -110.5q-78 -10 -152 -15t-147 -15q-25 2 -34 1t-15.5 -2t-14.5 -2t-28 1l-3 -43q27 8 44.5 10t31 1t29.5 -3t45 0l12 -19q14 10 42 21.5t57 15.5q6 -2 11 -8t10 -10t11 -4t15 10q18 -14 36.5 -10 t36 9t35 3t33.5 -27q18 8 41 9h47q25 0 46.5 5t35.5 23q14 4 29 4q16 0 26 -10q8 4 22.5 3t28 -3t24.5 1t15 18q-23 18 -61.5 16t-71.5 2q-12 12 -12 23q0 12 5 24t10 24.5t3 24.5q-2 18 8.5 41t16.5 45.5t1 42t-38 31.5q6 20 8 43t7.5 44.5t17.5 37.5t41 27l-31 36 q12 16 14.5 36t2.5 38q0 20 3 39t17 33q23 -4 32 -20.5t14 -38t7 -43t13 -37.5q-6 -33 6 -66t23 -63.5t9 -57t-38 -45.5q2 -33 12 -61.5t21.5 -58t16.5 -59.5t-1 -65q33 -23 75.5 -28.5t88.5 -1.5q31 14 41 39.5t15 56.5t9 61.5t21 55.5q4 33 5 58.5t-36 39.5l55 231l62 43 q6 10 3 13.5t-9.5 5.5t-14.5 4t-10 12q0 33 5 68t19 67q4 41 16.5 79t8.5 79zM1348 -72q0 14 4 18.5t2 9.5t-12.5 19.5t-36.5 51.5q-18 4 -39 -1.5t-35 -23.5q-20 -6 -38.5 -3t-34 4t-31 -4t-29.5 -28l-1317 -8q-6 0 -14.5 -7t-9.5 -16.5t9.5 -15.5t45.5 -2q59 -16 118.5 -5 t124.5 11q29 4 51.5 -3t51.5 3q16 -4 35.5 -3t41 2t41.5 1q23 0 41 -6q31 12 61 5t58.5 -17t58 -15.5t64.5 11.5q18 -4 33.5 -16.5t34.5 -2.5q18 4 45.5 10.5t54.5 3.5t47.5 -17.5t22.5 -51.5q51 -33 106 -45t119 2q51 2 75.5 6t45 8t46 7.5t79.5 3.5q14 -10 29.5 -1 t27.5 27.5t19.5 43t3.5 44.5zM-170 -113q-14 0 -22.5 -7t-8.5 -17q0 -4 7.5 -5t11.5 -1q22 10 12 30zM-262 -131q-14 4 -23.5 -5t4.5 -20q4 4 13.5 9.5t5.5 15.5zM815 125q0 -12 -12 -25q-14 14 -18.5 34t6.5 38q18 0 16 -18.5t8 -28.5zM365 397q4 -12 -3.5 -22t-15.5 -19.5 t-8 -19.5q0 -8 20 -23q-4 -18 -21.5 -17t-25.5 5q2 14 -3 25.5t-11 22.5t-10 21.5t0 20.5q23 0 41.5 1t36.5 5z" />
<glyph unicode="x" horiz-adv-x="944" d="M1253 82q-25 6 -55.5 12t-63 9t-66.5 0t-62 -17q8 -10 22 -11t29.5 0t30 0t20.5 -12q-29 -29 -55.5 -60.5t-65.5 -31.5q-23 6 -30 19.5t-9 29t-3 32t-13 30.5q-29 8 -54.5 3t-48.5 -9q-33 29 -56 63.5t-42.5 71.5t-39 75t-44.5 74l-61 7q-33 51 -59.5 100t-49.5 100 l187 365l6 43h-72l-145 -275q-10 -14 -27.5 -15t-28.5 3l-108 219q-4 25 -20.5 40.5t-37 22.5t-43 6t-41.5 -7v-13q18 -68 65.5 -135t84.5 -135t43 -137.5t-57 -138.5q-6 -10 -14.5 -22.5t-18.5 -24t-21.5 -15.5t-25.5 6q-55 -55 -82 -119.5t-64 -123.5q-10 -23 -3 -32 t19.5 -15.5t25 -11.5t14.5 -19q-82 0 -130.5 -5t-88 -8.5t-85 1t-120.5 22.5q-29 -14 -29 -29q0 -14 18.5 -28.5t50 -27.5t64.5 -26q29 0 49.5 1t41 0t42 -6t54.5 -13q37 12 52 5t25.5 -18.5t25.5 -22.5t52 -9q8 -18 24.5 -21.5t33 -4.5t32 -5t21.5 -24q41 4 54 12 t22.5 17.5t23.5 16.5t57 9q16 12 31 12q14 0 29.5 -3t30 -4t30.5 13q104 -29 215 -41t230 -2q43 8 76.5 5t65.5 -12t63.5 -17t68.5 -8q6 41 -17.5 48t-68.5 3q-10 14 -26.5 15t-34.5 1q-16 0 -30.5 4t-18.5 27q4 37 27.5 62.5t51.5 47.5q18 4 42 8.5t44.5 10.5t32.5 16.5 t8 26.5zM-18 92q-14 -4 -27 -4q-14 0 -10 -14q0 -10 7 -8t11 2q10 0 14.5 7t4.5 17zM-311 74q0 10 -3 11t-8 1q-4 -10 -4 -18q0 -6 11 -7q4 7 4 13zM543 92q-27 -4 -57.5 -8t-61.5 -3t-60.5 13t-52.5 41q-10 10 -10 25q0 16 4 30q23 0 31 11.5t12 26t9 29.5t22 24 q-10 12 -9 23t2 22.5t1 21.5q0 12 -13 25q6 6 12.5 18t12.5 23.5t14.5 17.5t22.5 2l37 -61q-10 -4 -21.5 -10.5t-15.5 -20.5z" />
<glyph unicode="y" horiz-adv-x="765" d="M690 950q0 8 -4 17.5t-14 5.5q-8 -12 -18.5 -13.5t-19.5 3t-19.5 8.5t-18.5 2q-4 -20 -18.5 -22.5t-30 -0.5t-31.5 2q-14 0 -20 -14q0 -18 12 -14t22 -4q10 0 8.5 -9.5t-1.5 -13.5q-10 -18 -20.5 -11t-20.5 11q-4 -10 -8.5 -15t-4.5 -16q12 -12 7 -19t-14 -13.5 t-15 -14.5t6 -22l29 6q14 -10 2.5 -18.5t-15.5 -18.5q-10 -4 -18 -3t-4 9l-19 -29q-14 -23 -2.5 -38t37.5 -15q-16 -16 -23.5 -34.5t-11.5 -39l-8 -41t-10 -38.5q-10 -16 -7 -34t6 -34t0 -30.5t-28 -20.5q-4 -4 -1 -11.5l7 -17.5q12 14 31 21.5t38 11.5t37.5 9t35.5 18 q10 14 3 25t-22 15q0 20 19.5 24.5t27.5 16.5l72 261q-10 6 -11 13t3 13t12 11.5t15 9.5q16 16 4.5 32.5t-29.5 20.5q-8 20 -3 26.5t16.5 9.5t23.5 6t16 17zM360 442q-18 4 -22 16.5t-5 28t-4 30.5t-16 26q-18 -18 -8 -39t14 -43q-4 0 -9 -8.5t-9 2.5q-4 12 -14.5 29.5 t-14.5 35t2.5 29.5t32.5 16q0 12 -4 15.5t-10 4.5t-12.5 3t-10.5 8q2 20 -8 36.5t-22.5 33t-19.5 35t-1 42.5q-23 25 -27 65t-12 76t-29.5 57.5t-78.5 8.5q-2 -23 5 -49.5t13 -54t4 -54t-22 -49.5q8 -6 19 -12t20.5 -12t16.5 -16.5t7 -24.5q-4 -10 -11 -14.5t-18 -8.5 q-6 -27 0.5 -53.5t16.5 -52t20.5 -52t10.5 -55.5q10 -23 24.5 -45t9.5 -49q12 -4 23.5 -1t22 8t21.5 8.5t21 -3.5q14 8 34 11.5t35 9.5t21 19t-6 42zM803 -72q-10 10 -23.5 7t-17.5 -11h20q11 0 21 4zM1063 43q-41 -6 -74 -5t-86 -3q12 -8 12 -21q0 -12 5 -26 q-23 -16 -42.5 -40t-46.5 -20l7 -22q-10 -10 -16.5 -17.5t-18.5 -11.5q-12 8 -20.5 5t-15.5 -9t-15.5 -11t-20.5 -3q-6 6 -17.5 15t-20.5 18.5t-11 18.5t8 17q-10 -2 -18 3.5t-15.5 12.5t-15.5 16t-16 15q-6 14 -2 19.5t12 8.5t17.5 6t13.5 16q27 6 57.5 -0.5t61 -11.5 t56 -2t44.5 30q-23 2 -47 2q-25 0 -46.5 3t-38 15.5t-22.5 38.5q-41 -18 -89 -14t-93 -4l12 -23q-29 -18 -66.5 -17t-70.5 11q-4 4 -1 12.5t7 16.5l-53 18q10 31 20.5 62t26.5 61q8 -6 10 -17t1 -22.5t0 -21.5t7 -15q4 18 12.5 37t14.5 38.5t9 39t-1 39.5q23 0 28 22.5 t9 36.5h-12q-23 0 -23 -16t-8 -25q-29 18 -61.5 20.5t-67.5 -2.5t-67.5 -14.5t-61.5 -15.5q-10 -29 -3 -56.5t16.5 -55t13.5 -54t-11 -53.5q-20 -6 -36.5 -3t-33 9t-31.5 12.5t-34 6.5q-12 -25 -29.5 -27t-34 2t-32.5 6t-27 -12q16 -8 37 -5t33 -1q20 -10 21 -23.5t-4 -28 t-8 -31t9 -34.5q18 8 35 24.5t35 30t38.5 20.5t45.5 -5q4 -12 -2 -21.5t-10 -19.5q-10 -31 -28.5 -45.5t-42.5 -19.5t-50.5 -6t-50.5 -5q-2 -16 -2 -21q0 -6 -1 -10t-4.5 -9t-9.5 -17q12 -12 14.5 -16.5t2.5 -6.5q0 -4 3 -9t21 -16q18 8 33.5 6.5t32 -8t33 -10.5t36.5 0 q31 -14 56.5 -46t25.5 -66h66q18 2 23.5 -5.5t4 -18.5t-3.5 -23.5t0 -18.5h11q10 14 16 34.5t2 37.5q23 31 50.5 60.5t62.5 33.5q31 35 67 35q39 0 79 -7.5t79 -7.5t70 35q31 14 38 19.5t10 4.5t14 -5t52 -9q31 14 43.5 17.5t15.5 -0.5t1 -12.5t0 -13.5t13 -6t42 7 q41 2 52.5 22.5t8 51.5t-13.5 65.5t-10 63.5zM27 -31q-14 4 -24.5 2t-22.5 -2q-20 12 -45 15.5t-52 3.5t-52.5 -1t-47.5 5q-35 10 -80 11t-72 -15q10 -14 26.5 -17.5t33 -4.5t34 -4t29.5 -17q49 -8 89 1t94 5q8 12 22 12q12 0 24.5 -2t24.5 -2q13 0 19 10zM-8 -115l-19 6 q-31 -8 -54 -12t-44.5 -7t-44.5 -6t-51 -9q35 -16 73.5 -38t79.5 -38v63zM618 762q-8 -12 -22 -6q-10 8 -4 16t16 19q8 0 7 -10.5t3 -18.5zM502 477q0 -8 -10.5 -11t-14.5 5l6 18q4 0 9.5 -1t9.5 -11zM590 25q0 -14 -11.5 -23.5t-23.5 -19.5q-4 4 -12 6t-13 12q4 18 25 27.5 t35 -2.5zM602 -160q-10 -16 -24.5 -10t-22.5 10q-10 10 -25.5 20.5t0.5 26.5q6 -6 18.5 -7t25 -4t20.5 -10.5t8 -25.5zM266 -6q-4 -10 -9 -15.5t-9 -13.5q-14 8 -12 29.5t12 34.5q14 0 14 -13q0 -12 4 -22z" />
<glyph unicode="z" horiz-adv-x="794" d="M657 825q0 31 2.5 68t-8.5 59q-18 -2 -34.5 2t-31 9.5t-30.5 8.5t-35 -3q0 -12 -5 -26.5t-17 -14.5q-8 4 -21.5 3t-27.5 -1q-12 0 -21.5 3t-9.5 19l-170 11l-119 6q-31 -10 -25 -45q12 -16 10.5 -30.5t-6 -29t-5.5 -29t14 -26.5h268l16 -10l-34 -70q8 -18 0.5 -27.5 t-18.5 -16.5t-19 -15t-2 -25q8 -6 17 -2t17.5 9t14.5 4t8 -17q-10 0 -18.5 -5t-17.5 -9t-17 -5.5t-17 7.5q-4 -8 -12 -15.5t-15 -14.5t-11.5 -16.5t-0.5 -21.5q39 8 77 24.5t77 26.5q16 18 36.5 24.5t40 11.5t37 14.5t27.5 35.5l-32 4q-10 0 -7 7.5t7 11.5q25 -2 42 8 t29.5 27.5t23.5 37t23 33.5zM1116 49q-33 2 -44 4t-19.5 3t-20.5 1q-10 0 -43 -2l23 -45zM995 -12q-10 0 -15 2t-13 2v-10q8 0 20 -2t8 8zM1047 -84q0 29 -18.5 37t-42 11t-46 10.5t-31.5 35.5q-12 0 -14 -5t-1 -13t3 -15.5t-4 -11.5l-35 17q-23 -10 -37 -14.5t-28 -4.5 q-12 0 -31 2t-49 2q-4 12 2 21.5t15 17.5t19.5 16.5t14.5 18.5q8 0 12 -1t6 -2t5.5 -2t13.5 -3q14 -10 32.5 -11.5t37 3t36 11.5t31.5 13l12 -39q4 -10 13.5 -4t9.5 10l-6 4q-16 10 -5 20.5t11 14.5q-39 4 -55 4t-27.5 -1t-28.5 -1q-14 0 -51 6l16 29l-79 6 q-16 -29 -24.5 -38t-18.5 -9q-8 0 -22.5 5t-41.5 7q25 31 18.5 70t-2.5 78q-10 12 -28.5 17t-40.5 5q-20 0 -43 -2t-41 -2q-4 -10 -8 -24.5t-21 -9.5q-27 -8 -40 5t-17 29q-16 8 -30.5 -3t-31.5 -15q-33 12 -33.5 30.5t9.5 38t23.5 41t11.5 39.5l-45 -6q-16 8 -17.5 20.5 t10.5 24.5q16 10 31.5 2t32.5 -12q16 -4 23.5 10.5t15.5 22.5q10 18 9 35.5t-7 33t-14.5 31t-10.5 31.5q-35 10 -65.5 -1t-65.5 -15q-55 -59 -92 -132t-84 -143q-8 -20 -12 -47t-4 -55q0 -27 4 -52.5t12 -44.5q-23 -4 -80 -7t-143 -9q-23 0 -25 -17.5t7.5 -38t25.5 -36.5 t29 -16q39 10 48 14t14 1t17.5 -11.5t55.5 -20.5q39 -2 68.5 -8t57 -12t58.5 -10.5t72 -4.5q43 0 63.5 3.5t36 7.5t33.5 9t59 9q10 6 25.5 5t30.5 -1q14 0 25.5 4t15.5 21l-283 6q-4 4 -4 12q0 6 4 10q33 6 50.5 5t31.5 -2t32.5 1.5t55.5 12.5q23 -14 46.5 -12t48 7t49 7 t49.5 -12q8 -27 0.5 -31t-20.5 -2t-26.5 3t-15.5 -11q8 -4 16.5 -2t16.5 3t15 0t14 -12q27 4 42 -2t27 -10t25.5 -2t36.5 25q55 -8 79.5 -11.5t44 -4.5t46.5 -2t84 -5zM481 825q-16 -25 -34.5 -54.5t-6.5 -63.5q0 -12 -9 -16.5t-19 -0.5q-8 0 -14.5 1t-2.5 5q25 14 24 43 t-3 55.5t7 43t52 6.5zM498 713q-4 -10 -8.5 -8t-8.5 2q-10 4 -7 10t13 6q4 0 9.5 -1t1.5 -9zM305 911q-16 -23 -47 -23.5t-55 -4.5q-4 4 -10.5 10t-2.5 18q8 4 17.5 3t20 -2t19.5 1t17 15q14 4 22.5 -1.5t18.5 -15.5zM367 508q4 -10 -4.5 -12t-18.5 6q-4 12 9.5 15t13.5 -9z M309 492q-8 -10 -20.5 -18.5t-30.5 -0.5q-6 10 -3 14.5t10 5.5t15.5 2t12.5 7q6 0 16 -10zM293 371q-6 -6 -10 -6h-7v18q4 0 8.5 -1t8.5 -11zM514 63h-96l18 29l39 -22l12 16zM385 63h-51q8 0 10 7.5t4 15.5t5 15.5t14 7.5z" />
<glyph unicode="{" horiz-adv-x="610" d="M340 973v18h-6v-18h6zM178 1022l-6 6t-6 -2v-35zM172 877v61h-6v-61h6zM649 72q-76 2 -112.5 1t-56 -4t-32 -8.5t-38.5 -11.5h-35q-16 0 -29 8q-6 63 -4 129t3 131.5t-7 127t-35 116.5q27 35 35 79t7 91t-3 95t4 94q-20 4 -24.5 16t-2 27.5t3.5 33t-8 29.5 q14 14 27.5 29.5t9.5 44.5q-18 -18 -28 -12l-9 6q0 23 -3 50t16 44q18 -12 16 -37t8 -35l84 72l-6 133q-10 8 -18.5 7t-17.5 -4t-18 -5t-18 2q4 -12 1 -22.5t-10 -18.5t-15 -15.5t-12 -11.5l-13 56q-31 14 -51 -1.5t-37 -29.5q-4 -10 -12 -19.5t-12 -19.5t-3 -20.5t15 -18.5 q-10 -45 -13 -93t7 -97q-4 -23 -2 -47.5t-17 -42.5q6 -37 6 -74t-3 -72t-5 -68.5t2 -62.5q-4 -12 -16 -27.5t-25 -19.5q-14 10 -14 22t-4 25q-31 -8 -38 -26.5t-5 -42t5 -49t-11 -48.5q10 -4 22.5 -16t26.5 -8l12 47q10 4 17.5 -7.5t17.5 -15.5q-4 -29 0 -55.5t9 -53 t9.5 -53t-0.5 -55.5q12 -23 11.5 -43t-4.5 -41.5t-7.5 -44t3.5 -47.5q-2 -16 -10.5 -19.5t-16.5 -2.5t-16.5 0t-10.5 -9l-182 10q-23 4 -37 -15t-29 -28q0 -12 -1 -29.5t2.5 -30.5t13.5 -22.5t35 -7.5q12 8 22 7.5t22.5 -2t29 2t40.5 21.5q6 0 15.5 -3t17.5 -5t17.5 1 t15.5 13l33 -6q18 2 25 -13.5t9 -37t1 -43t1 -29.5q20 -35 51 -49t67 -19.5t74 -2t73 5.5q8 41 4 87t12 74h-84q-12 10 -24.5 21.5t2.5 26.5q31 -12 65.5 -15.5t70.5 -0.5t71.5 9.5t70.5 10.5q0 10 -14 18l6 6q37 -4 42 1t-2 16.5t-18.5 24t-7.5 22.5zM70 6q-23 0 -54.5 -8 t-58.5 2q10 4 25.5 10t31 9.5t30 1t26.5 -14.5z" />
<glyph unicode="|" horiz-adv-x="428" d="M561 72l-270 -2l-15 14v1155l-10 10q-37 -4 -74.5 1t-64.5 -11v-1145l-10 -24l-242 -4q-6 -4 -11 -28t-5 -48q0 -27 4 -48.5t14 -21.5l201 -10q10 0 25.5 3t23.5 -13v-189l10 -10q33 4 73 -1t66 11v215l15 15q51 2 76 2t43 -2t39.5 -3t70.5 -4q27 -10 42.5 8.5t19.5 45 t-1.5 52.5t-19.5 32zM502 -23l-195 -8q-20 -4 -27.5 13.5t-3.5 27.5q8 20 19.5 21.5t24 -5t25.5 -15.5t26 -7q16 12 35.5 13t39.5 -7q23 4 33 3t14.5 -6t4.5 -13q0 -9 4 -17z" />
<glyph unicode="}" horiz-adv-x="583" d="M717 68q-47 6 -86 6q-37 0 -73 -1t-75 -4t-90 -3q-23 -10 -29 9t-2 38q-6 33 6.5 59.5t23.5 53t12.5 52t-29.5 56.5q0 31 -1 64.5t5 63.5t24.5 52.5t57.5 28.5q8 27 3 43t-17.5 26.5t-29 18.5t-30.5 22q-4 18 -10 36t-11.5 36t-6.5 38.5t3 43.5q-4 14 2.5 27.5t12.5 28 t5 27.5t-20 28q-4 41 -3 83.5t1 85.5t-5 84t-23 76q-29 29 -58.5 50.5t-70.5 17.5q-18 -2 -27.5 7t-15.5 20.5t-13.5 20.5t-23.5 7q-16 -12 -22.5 -31.5t-6.5 -42.5t4 -47t6 -45l62 -12q35 -23 44 -55.5t9 -67.5t-4 -71.5t6 -67.5l31 6q6 -33 7 -67.5t1 -69.5t2 -69t14 -64 q4 -18 18.5 -30.5t30 -24t26.5 -22.5t11 -28q-16 -2 -32.5 -13t-31.5 -19.5t-29.5 -7.5t-28.5 22q-14 -4 -11.5 -18.5t-1.5 -24.5q-4 -18 -9 -41t-4 -45.5t9 -42t29 -31.5l-37 -31v-227l-18 -16l-332 -3l20 -98l56 43l18 -24q-10 -8 -7 -23.5t-1 -23.5l18 6q18 -2 25.5 0 t13.5 5t13.5 4t25.5 -3q12 4 16.5 12t10.5 19q37 10 57.5 14t58.5 -14q4 -10 1 -17.5t-7 -7.5q-33 0 -39 -13.5t-5 -30.5t3 -35.5t-14 -31.5q-2 -6 2 -11l8 -10t6 -10.5t-4 -11.5q-10 4 -20 4h-19q-8 0 -13 5.5t-3 21.5q-20 2 -24.5 -4t-3.5 -17.5t2 -22.5t-11 -17 q55 -10 117.5 -2t128.5 8q2 31 13 49t23.5 35.5t19.5 38t3 53.5q4 4 10.5 10t20.5 2q8 -14 11 -17t5 -1t6.5 3t16.5 -3q29 10 40 19t40 14l67 -13q-4 -14 -16 -19t-25.5 -6t-28 -3t-22.5 -9q-4 -4 -9 -12t9 -12q55 0 113.5 -4t114.5 16q6 2 8 16.5t3 36t0 47t-1 50.5z M117 -70q-12 12 -25 13q-10 -10 -4 -20.5t16 -10.5q13 0 13 18zM184 1235l-18 -12v12h18zM209 23q-4 -18 -25.5 -15.5t-36.5 2.5l-18 13q10 14 37 14q29 0 43 -14zM57 8q4 -4 -1 -6t-5 -6h-6q-4 4 2 10t10 2zM18 -14h-36q-12 16 2 28q23 10 26.5 -1t7.5 -27z" />
<glyph unicode="~" horiz-adv-x="1069" d="M901 612q16 18 17 50q0 33 -17 51q-27 31 -45 36t-34.5 -4.5t-31 -29t-32 -36.5t-37 -27.5t-45.5 -4.5q-43 10 -85 28.5t-83 36t-86 28t-94 3.5l-4 -4q-37 -2 -66 -20.5t-52.5 -45t-41 -58t-29.5 -60.5q-8 -16 -4 -27.5t14.5 -18.5t21.5 -14.5t19 -15.5q37 -16 56.5 -1.5 t36 37t35 43t51.5 17.5q43 -10 83.5 -26.5t80.5 -32.5t82 -27.5t89 -9.5q29 8 60 16.5t58.5 22.5t49 36.5t33.5 57.5zM610 70v8q-37 4 -79 5t-76 -9q35 -12 76.5 -11t78.5 7zM1130 35l-200 -12q-23 0 -28 1t-6 3t-6 1t-26 -8q-23 8 -40 10.5t-33 2.5t-34 1t-40 7l-303 -12 q-16 4 -37 5t-37 -9q-29 0 -48.5 16t-29.5 41q-109 -2 -150.5 -1t-50 2t1 2t0.5 1q-8 0 -48 -2t-146 -6q-14 -16 -20.5 -41t-3.5 -47.5t14.5 -41t34.5 -22.5q12 4 20 4t17.5 -2t18.5 -5t25 -5l74 12q16 -4 35 -4h39q20 0 37.5 -2t32.5 -10q72 4 134 2t136 2q12 -8 23.5 -7 t22.5 4t21 3q12 0 23 -8q33 6 56.5 10t45 7t44 2t51.5 -3q35 2 51 2t28.5 -2t28.5 -6t51 -10q37 8 72 4t76 -4q23 -6 39 1t34 1v123zM1102 -14h-8v12q4 -4 8 -12zM1085 -59q-10 -10 -20 -12.5t-22.5 -0.5t-24.5 6.5t-23 6.5q4 12 13.5 15t21.5 2t24.5 -4t22.5 -1zM934 -63 h-4h-4h8z" />
<glyph unicode="&#xa1;" horiz-adv-x="780" d="M528 1057l-14 6l-20 -76q-8 18 -20.5 25.5t-27 10.5t-30 4t-27.5 9q0 31 -14.5 37t-31.5 -1t-32.5 -24.5t-17.5 -31.5q-10 0 -10 6q0 8 -4 14v-243q8 -4 20 -3t26.5 3t28.5 2q16 0 29 -9q2 27 16.5 33t33 9t35.5 9.5t26 32.5q8 -8 8 -20v-25q0 -10 1 -20t11 -12 q23 53 18.5 124.5t-4.5 139.5zM1221 156q-68 6 -139.5 8t-123.5 -14q57 -23 125 -21t131 12zM1141 -25q2 18 8 31.5t5 23t-14.5 18.5t-49.5 20l-316 -2q-29 14 -38 12t-14 -7t-13 -5t-35 20q-2 29 -16.5 45t-36 23.5t-46 8.5t-47.5 1q-18 20 -27 58t-13.5 72t-6.5 54.5 t-8 7.5q-23 74 -35 151t-8 161q-23 -4 -31 8t-13 26.5t-13 23.5t-33 -1q-25 -35 -32 -79t-6 -91t3 -95t-6 -89q-10 -23 -11 -51.5t-1 -57.5t-3 -54.5t-20 -43.5l-432 2q-14 -2 -26.5 -42t-20.5 -89t-9 -91t7 -48q16 -16 41.5 -7t21.5 35q37 -6 45 -6q6 0 7.5 -1t7.5 -4 t41 -13q23 10 46 9t46.5 -5t47.5 -9.5t46 -0.5q14 -10 31.5 -7.5t34 8t32.5 5.5t33 -15q-16 -57 -13 -128.5t13 -133.5q18 -10 24.5 -4t9.5 16.5t8 20.5t22 8q16 -10 15 -20.5t5 -20.5q20 -12 29.5 -8t14.5 15.5t12.5 22.5t25.5 11q27 10 45.5 -5t18.5 -36q10 -10 23 -7 t18 13q0 63 -4.5 128t18.5 122q55 2 88 2h63q31 0 66 -1t92 -1q18 -12 48 -8t64 11t66.5 11.5t53.5 -8.5q25 -2 28.5 10.5t2.5 28t0.5 30.5t19.5 21z" />
<glyph unicode="&#xa2;" horiz-adv-x="925" d="M1034 313l-18 39l-37 -39h55zM1010 389v12q4 20 -14.5 27.5t-28.5 -6.5q-16 0 -37 7t-42.5 13.5t-41.5 6.5q-18 0 -33 -15q47 -20 98.5 -27.5t98.5 -17.5zM1358 174q-10 25 -20.5 31t-26 5t-35 -3t-45.5 6q-53 0 -97 1t-85 -15q-16 14 -30.5 15t-28 -6t-26 -17.5 t-24.5 -16.5q18 0 41 -1t41 13q53 0 105.5 -10t109.5 -14q20 18 38.5 7t37.5 -26q12 -2 17 2.5t8 10.5t6.5 12t13.5 6zM561 731v25l-12 6zM940 338q10 10 5 23.5t-5 27.5l-25 -37q4 -4 9.5 -11t15.5 -3zM1049 92q0 4 -2.5 14.5t-12.5 10.5q-10 -4 -9 -15.5t17 -15.5z M858 256q-4 16 -15.5 18t-21.5 2v-26q10 0 21.5 -4t15.5 10zM922 219l-22.5 9t-16.5 -9q0 -10 -1 -27.5t13 -17.5zM973 111q-6 14 -19.5 11t-13.5 -18q0 -4 4 -7t8 1q4 0 14.5 1.5t6.5 11.5zM1317 -98q12 16 7 42.5t-15 35.5q-37 0 -66 12t-33 8q-16 4 -33.5 8t-30.5 11.5 t-19.5 22.5t-2.5 44q-12 2 -18 -3t-10 -12.5t-9.5 -14.5t-13.5 -9q-47 -10 -92 1t-78 32q-10 0 -11 -3t0 -7t3 -9.5t0 -7.5q-10 -10 -18.5 -6t-17.5 8t-17 5t-17 -13q-37 6 -55 5t-31.5 -2t-32 -3t-57.5 0q-16 -2 -23.5 4t-10.5 15.5t-3 19.5v18h-6q-20 -4 -15 -16t1 -20 q-10 -20 -29 -21h-35q-23 -4 -32 14.5t-4 36.5q6 16 19 22.5t29.5 8.5t32.5 2q18 0 33 6q37 37 66.5 74t52.5 84q-10 49 18 88l21 -18v12q0 6 12 6q-10 -12 -7 -23.5t11 -22.5t16.5 -22.5t10.5 -19.5q6 14 3 27.5t-9 25.5t-10.5 25.5t-2.5 27.5q-10 4 -15 -4t-15 -8 q-4 14 -18.5 16.5t-14.5 22.5q10 4 20.5 11t24.5 7q-10 49 -33 89q-41 0 -71.5 -6.5t-59.5 -6.5q8 -14 2 -25.5t-15 -21.5t-13.5 -21.5t12.5 -25.5q-10 -10 -20.5 -26.5t-28.5 -12.5q-8 -10 -6 -14t7 -7t11 -8.5t6 -13.5q0 -10 -10 -10t-14 -4l12 -37q-20 -25 -48 -26 t-48 -1q-4 86 -6.5 167t12.5 157q14 0 21 8t9.5 20.5t0 24.5t-4.5 23l-32 6l-7 178q16 23 44 18.5t53 -0.5q18 -12 26.5 -27.5t14.5 -33.5t11 -36.5t17 -35.5q14 -10 32 -4t38 17q10 25 -3 48t-17 48q-2 14 4 18t15 6t17.5 6.5t8.5 18.5q-23 63 -85.5 106t-123.5 54l-6 164 q-10 18 -25.5 24t-34 5t-38 -4t-36.5 -1q-23 -16 -26.5 -39.5t-3.5 -50.5t1 -52.5t-10 -45.5q-72 -10 -130 -61.5t-76 -116.5l43 -19q-43 -82 -49.5 -178t-14.5 -195l21 -45q-4 -12 -10.5 -14t-12.5 -2t-11 -2t-5 -14q-4 -10 2 -16.5t16 -2.5l6 19l15 -7q-27 -27 -18 -39 t28.5 -23t37 -23.5t7.5 -39.5l-49 -8q29 -66 86 -100.5t114 -63.5q10 -10 11 -28q0 -18 -11 -29h-497q6 -18 6 -35q0 -14 3 -25.5t10 -16.5t30 -3q37 4 57.5 12.5t37 10.5t35.5 -5.5t54 -31.5q49 4 79 6t54 2q25 0 53.5 -1t77.5 -1q6 -4 7 -14q0 -12 -7 -17q-68 6 -108.5 4 t-75.5 -5t-73.5 -2t-102.5 16q-33 -8 -70 0q-27 -6 -52 -5t-51 3t-50.5 0t-48.5 -17q16 -10 37.5 -12t25.5 -21q-23 -18 -56.5 -11t-62.5 11l43 25l-104 -14q20 -37 63 -46.5t92.5 -8.5t98.5 3t86 -10q20 0 23.5 10.5t2 22.5t0 23.5t17.5 13.5q14 -4 10 -8l-4 -4 q-4 -10 -3 -21.5t15 -15.5q35 -4 67 -12.5t73 -8.5q25 14 35 13t18 -1t17 7.5t32 38.5q16 6 29.5 0.5t25 -12.5t23.5 -12t28 5q43 -18 93.5 -13t97.5 1q20 18 46 20t50 -8q14 16 29 17q14 0 28.5 -7.5t30 -13.5t31.5 -2q0 14 6 27.5t27 9.5v-31h55q18 6 27 6h12t11 4t26 21 q25 -14 46 -11t42.5 9t43 8t46.5 -12q39 2 70.5 3t58.5 1q29 0 57.5 -1t63.5 -3zM946 -262q27 20 24 27.5t-16.5 9.5t-31 6t-19.5 20q-10 -2 -10 -8q0 -8 2 -16t1 -17.5t-13 -15.5q8 -12 16 -11t16.5 5t16.5 6t14 -6zM897 -262v18q-2 12 -7 13.5t-11.5 -2t-13.5 -6.5t-13 1 q4 10 -2 21.5t-17.5 19t-23.5 7.5q-10 0 -14 -15q12 -10 12 -16q0 -8 -6 -15.5t-12.5 -13.5t-6.5 -12q23 -4 56.5 -7t58.5 7zM776 -186q-2 8 -10 10t-18.5 1t-20.5 -5t-14 -6l12 -19q20 -4 28.5 5.5t22.5 13.5zM631 -250q0 6 -8.5 14.5t-18.5 15.5t-19.5 15t-11.5 19 q-12 -29 -22 -28t-20.5 11t-22.5 20.5t-29 2.5q-14 -2 -18 -10.5t-4 -16.5q0 -10 1 -20.5t-5 -16.5l75 -12q12 -2 25.5 3t26 10t24.5 5q15 0 27 -12zM1085 -47q-4 -4 -14 -4q-8 0 -4 10zM1049 4q0 -16 -11.5 -14t-21.5 2q-10 -6 -14.5 1t-4.5 11q0 6 7.5 10t15.5 4 q10 0 18.5 -4t10.5 -10zM1016 -41q0 -12 -6 -12h-13q0 4 4.5 10t14.5 2zM371 446q-12 -16 -10.5 -38.5t7 -45t5.5 -45.5t-15 -41q-39 -6 -70.5 8.5t-35.5 47.5q4 16 2 29.5t-6 24.5t-11.5 21.5t-11.5 20.5q-4 90 -4 164t4 164q6 14 10.5 29.5t8.5 29.5t13 26.5t26 22.5 q18 -4 45.5 1t42.5 -13v-406zM934 -53q-14 -4 -37 -4t-33 4q14 10 35 20t35 -8v-12zM891 -59q-6 -10 -11.5 -8.5t-9.5 1.5l-12 7q4 10 20.5 12t12.5 -12zM840 -53q-10 4 -19.5 0t-17.5 -8.5t-15.5 -6.5t-11.5 9q2 12 10.5 14t17.5 0t19.5 -5t16.5 -3zM592 -53 q-10 -25 -32.5 -21t-43.5 8q-10 0 -10 11q0 8 10 8q20 0 43 4t33 -10zM-229 -104h-15q-4 0 3.5 8t11.5 -2v-6z" />
<glyph unicode="&#xa3;" horiz-adv-x="1075" d="M1264 78q-29 53 -53.5 80.5t-49 39t-54.5 10.5t-70 -3t-93 -1t-127 15q-23 -33 -58.5 -29.5t-64.5 9.5q-29 10 -57.5 8t-57 -8t-58 -8.5t-62.5 8.5q-14 8 -13.5 17t7 18.5t15.5 18.5t11 17l-43 6v72q16 31 12 57.5t-11 54t-9 54.5t16 57l258 15q0 20 3.5 48t-17.5 38 h-258l-29 28q-16 66 -20 137.5t6 141.5q25 6 36 22.5t19.5 38t18.5 42t33 34.5q14 25 35.5 32t46 9t48 1t42.5 7l100 -135q16 -10 21.5 3.5t15.5 17.5q4 -4 6 -10.5t8 -10.5q39 -6 71 23.5t58 62.5q10 29 6 55.5t-17 51t-33.5 46t-41.5 40.5q-10 16 -33 16q-20 0 -24 -16 l-29 43q-14 0 -28.5 8t-29 14t-27.5 5t-23 -19q-16 12 -38 16t-46 4q-25 0 -51.5 -1t-51.5 1q-43 -8 -87 -27.5t-81 -49t-64.5 -68.5t-39.5 -84q-4 -18 -9 -44t-6.5 -51.5t5 -48t24.5 -34.5q23 -72 31 -147.5t-2 -147.5l-207 -14v-58q18 -23 45 -28t57 -5q33 0 67 3.5 t67 1.5l22 -21l6 -201q-25 -14 -37 -39.5t-24.5 -51t-28.5 -47t-45 -28.5q-35 18 -68 19q-31 0 -61.5 -7t-62 -13.5t-66.5 1.5q-31 16 -40 8t-13 -24t-13.5 -33.5t-40.5 -19.5q-10 -14 -11 -26.5t2 -26t7.5 -31t4.5 -39.5q4 -18 7 -28.5t10 -17.5t21.5 -15.5t40.5 -20.5 l15 14q111 4 191.5 5.5t145 2.5t123 0t125.5 -1q68 0 153 -1.5t204 -1.5q6 4 35.5 9.5t68.5 9.5t85 8t85 6t68 -1t37 -9z" />
<glyph unicode="&#xa4;" horiz-adv-x="1624" d="M1790 -227q2 29 -5 34t-20.5 1.5t-27.5 -3.5t-25 19q-12 -4 -15 -13.5t0 -20.5t7 -21.5t8 -12.5q6 2 9 9.5t6.5 15.5t9.5 13t18 5q0 -8 14.5 -20t20.5 -6zM1841 -416q-6 10 -14 11.5t-16.5 -1t-18.5 -6.5t-18 -4q-10 0 -12.5 6.5t-2.5 14.5t-4 12t-16 2l-17 -35 q0 -16 7.5 -23t17.5 -10.5t21.5 -4.5t21.5 -5q18 8 37.5 16.5t13.5 26.5zM1876 55q6 27 6 49q0 23 -33 37q-39 -12 -53 3.5t-22.5 38t-21.5 41t-48 12.5q-16 -6 -17 -17.5t4 -24t10 -24.5t3 -20q-18 -12 -21.5 -20.5t2 -14.5t12.5 -14.5t7 -20.5q-4 -35 -21.5 -44t-42 -10 l-49 -2t-41.5 -20q-16 12 -22 30.5t-11.5 38t-11.5 38t-22 30.5q-29 20 -61.5 27.5t-64.5 14.5t-61.5 19.5t-52.5 41.5q-12 29 -6 50t20.5 40.5t31 38t22.5 41.5q10 6 22 6h27q14 0 23.5 4t13.5 16q6 25 14 63t9 73.5t-11 62.5t-47 31q-16 35 -27.5 72.5t-21.5 75.5 t-24.5 75t-37.5 68q-14 33 -12 46t14.5 16t29.5 0t32.5 -1t25 12t5.5 39l43 -10q12 33 40.5 53.5t55 42t41 50t0.5 77.5q-14 12 -26.5 29.5t-26.5 5.5q0 -14 1 -21.5t9 -13.5q-29 -6 -40 16.5t-21.5 47t-29 39t-63.5 -8.5v-51q-8 0 -18.5 -3t-16.5 3l-145 -129l-154 60 q-74 12 -151.5 17t-153.5 -1t-148.5 -24.5t-135.5 -51.5l-121 111q-16 6 -37 6h-39q-20 0 -38.5 4t-31.5 16q6 12 17.5 15.5t19.5 3.5q10 0 17.5 4t7.5 20q-53 12 -94 -5t-62 -64q-31 -51 -20.5 -92t41 -75t69.5 -64.5t66 -59.5l102 -16q-4 -41 -23.5 -82t-41 -82t-35 -85 t-2.5 -93q-12 -29 -10 -58t10 -56.5t18 -55t14 -52.5q4 -29 27 -57.5t40 -58t17 -58.5t-41 -57q-45 -6 -57 -8t-19 -5t-21.5 -7.5t-63.5 -14.5q-51 18 -102.5 17t-99.5 -17t-92 -43t-83 -59q-23 -10 -42.5 -4t-36.5 12t-34 6q-16 0 -33 -23l52 -16q12 -18 6 -25.5 t-20.5 -11.5t-31 -8t-22.5 -16l-78 4q-4 -10 -18.5 -23.5t-22.5 -30t-5 -36t32 -41.5l366 16l25 27q20 12 50 2t36 -37l51 35q12 0 15.5 -10.5t9.5 -16.5q55 0 70.5 -5t23.5 -8t23.5 -4t70.5 9q45 2 87 1t81 -1q41 0 80 5t78 22q57 -16 112.5 -14.5t110.5 9t111.5 15.5 t118.5 6q18 -12 42.5 -13t51.5 5q8 -12 18 -10t19.5 8t18.5 7t20 -13q33 0 62.5 -7.5t58 -14.5t58 -8t60.5 11q14 0 16.5 -9t2.5 -16q-4 -23 -10.5 -24.5t-14.5 4.5t-17.5 12t-19.5 0q-18 -12 -44 -15t-48.5 -6t-37.5 -12.5t-15 -35.5q98 -18 201.5 2t201.5 41 q-6 12 -19.5 13t-27.5 1q-12 0 -21.5 5t-9.5 24q20 18 48 27.5t55 15.5q18 4 26.5 -5.5t12.5 -21.5t12 -22.5t27 -10.5q16 14 28.5 9t22.5 -14t22.5 -12t28.5 17l-27 33q16 6 24.5 11t12.5 10.5t7 13.5t8 22v25q0 18 -4.5 36.5t-14.5 30t-33 5.5q-16 29 -11 30.5t19.5 -4.5 t33 -11t28.5 11zM858 -117h-43h43zM602 -211v18q0 6 -10 7.5t-17 1.5v-27h27zM602 -416q25 29 20.5 37t-21.5 9t-36.5 5.5t-21.5 26.5q-12 -10 -13.5 -21.5t-0.5 -21.5t0 -21.5t-13 -21.5q10 -10 19.5 -8t20.5 7t22.5 9t23.5 0zM508 -184l-283 8q-12 -6 -10 -35t2 -41l25 16 q27 -6 56.5 -5t60 4.5t60.5 5.5t54 -5q20 6 24.5 23t10.5 29zM387 -432q0 12 -2 21.5t-14 21.5q-33 -20 -47.5 -5t-20.5 48q-6 18 -29.5 11t-31.5 -19q16 -12 15 -21.5t-8 -17.5t-15.5 -17.5t-8.5 -21.5q39 -6 85 -9t77 9zM217 -330q-4 16 -13 19.5t-21.5 0.5t-25 -10.5 t-18.5 -9.5l19 -24q18 -8 32.5 5t26.5 19zM156 -416q-4 10 -15.5 19.5t-26 20.5t-26.5 22.5t-18 23.5q-12 -39 -24.5 -37t-27 16.5t-33 28t-44.5 0.5q-16 -4 -19.5 -13t-2.5 -22.5t2 -26.5t-5 -22l94 -18q18 0 38 7t38 13.5t36 5t34 -17.5zM1782 80q0 -12 -10.5 -18.5 t-16.5 -6.5q-12 0 -15 8.5t-9 8.5q2 10 11 17t17 9t15.5 -2t7.5 -16zM1208 756q16 -33 2 -61.5t-29.5 -55.5t-19.5 -50.5t31 -45.5q-10 -18 -27.5 -29.5t-34 -23t-28.5 -23.5t-12 -35q6 -10 21 -11t29.5 -2t18.5 -9.5t-10 -30.5q-47 -70 -116.5 -115t-147.5 -63 q-66 -6 -129.5 -5t-122 16t-106.5 47t-78 87q-66 57 -94.5 136t-35.5 163q6 78 33 150.5t78 132.5q27 47 64.5 63.5t80.5 19.5t87 3q43 0 77 16l308 -26q57 -51 106 -110.5t55 -137.5zM1200 20h-188q18 10 42.5 29t51.5 28t51.5 2t42.5 -50v-9zM543 20q-39 -12 -86 -9t-86 9 q6 35 27.5 43.5t48 2t53.5 -21t43 -24.5zM166 39q6 -14 -3 -17.5t-22 -9.5q-14 0 -23 15.5t-3 27.5q12 0 25.5 -5t25.5 -11zM-23 29q-18 -6 -56 -13.5t-71 4.5q6 27 19 27q12 0 26.5 -7t30 -12t27.5 11z" />
<glyph unicode="&#xa5;" horiz-adv-x="1191" d="M1272 61h-90q-18 0 -27.5 -1t-27 -3t-83.5 -6q-27 -10 -53 -7l-52 6t-52 3q-27 0 -53 -14q-25 18 -51.5 15t-54.5 -10t-54.5 -9t-50.5 22v244l18 18h307q16 29 14.5 76t-8.5 84l-286 15q0 14 -8.5 16t-18.5 2t-19.5 2t-11.5 16q37 23 80 28t88 5t90 -2t86 8l9 136 q-14 18 -37 22t-47.5 3t-50 -3t-46.5 8q35 106 93.5 212t111.5 212q4 18 5 48t-17 40q-25 -2 -51.5 -1l-53 2t-51 -1t-43.5 -12l-223 -500l-21 -12q-66 131 -124 263t-125 261q-53 4 -106.5 2t-98.5 -20q2 -66 22.5 -124t48 -113.5t57.5 -111t52 -112.5v-39h-129 q-16 -14 -22.5 -34.5t-6.5 -43.5q0 -20 4.5 -42.5t6.5 -39.5q29 0 67.5 7.5t67.5 -7.5q29 25 70.5 33t76.5 -6q-8 -16 -4 -25.5t12.5 -15.5t17.5 -14.5t11 -22.5q-16 2 -22.5 -6t-8.5 -20.5t-2 -26.5t-4 -23q-49 -10 -98 -6t-88 19q-6 -12 -15.5 -14.5t-17.5 -0.5t-15 4 t-9 -2q-10 -53 14 -69.5t63 -17.5t82 5.5t70 -2.5q31 -27 41 -64.5t10 -80.5q0 -41 -4 -83t-2 -79q-16 -18 -36.5 -23t-42 -4t-44 7t-43.5 8q-23 -6 -44 -19.5t-34 -19.5q-20 27 -39.5 30t-36 -3.5t-31 -16.5t-26.5 -10q-18 12 -36.5 11t-37 -3t-37 2t-36.5 23 q-14 -8 -34 -5t-39.5 6t-35.5 0t-27 -22q16 -14 33 -20t27 -31q16 -4 22.5 1t10.5 15.5t8 20.5t16 14q8 -10 19.5 -12t23.5 -2l-4 -23q18 -16 41 -20t47 -4q25 0 49.5 2t48.5 -2q35 16 87 20q2 -2 2 -4t2 -6q45 -23 94 -12.5t98 6.5q16 -8 23.5 -12t11.5 -9.5t6 -11.5l6 -18 q45 0 92 -2t95 8l2 22q4 20 15 22.5t23.5 -0.5t22.5 -3q12 0 16 18q53 -10 114 -3t124 22q16 -16 36.5 -18.5t41.5 -2.5q23 0 42 -3t34 -21q6 12 28.5 17t49 8t51 4t37.5 8q8 -6 11 1t4 20t0 29.5t-3 30.5zM930 -115q-14 4 -23.5 -2t-9.5 -16t8 -8t13 2q10 0 13 10t-1 14z M834 -127q-6 2 -13.5 -1t-10.5 -8t-3 -9q0 -6 8 -9q4 4 13.5 10.5t5.5 16.5zM-287 20q0 18 -15 13.5t-15 -21.5q0 -4 7 -8t11 -4q12 12 12 20z" />
<glyph unicode="&#xa7;" horiz-adv-x="989" d="M805 522q-2 8 -9.5 14.5t-14.5 7.5t-11 -4t-2 -18q10 0 18.5 -5t18.5 5zM780 197q4 10 -2 11t-10 1q-10 0 -13 -7t7 -12q4 0 9 -1.5t9 8.5zM1288 125q-98 0 -153.5 1t-101.5 3t-102.5 3t-156.5 1l-51 19q-16 10 -16 18t7 17.5t13 19.5t2 22q6 4 15.5 13.5t18.5 15.5 t19.5 7t22.5 -11q16 39 17 92t-3 100h-33q-18 14 -25 32t-13 38q-47 51 -108.5 78t-125 49.5t-123 52t-102.5 88.5q4 14 20 15q16 0 31 4q0 10 -4 19t-8 20q-10 23 -11.5 57.5t23.5 56.5q16 14 34.5 32t40 28t44 12t47.5 -14q43 -29 67.5 -70t47.5 -84q20 0 44.5 -2t49.5 -2 t48 4t42 19q10 33 7 62.5t-13.5 56t-24.5 50t-26 48.5q-43 45 -100.5 67.5t-120 27.5t-126 -3t-118.5 -23q-61 -23 -105.5 -82t-60.5 -120q-12 -18 -9 -35t7 -33t6 -34.5t-10 -39.5q2 -14 10 -18t19.5 -6t22.5 -7.5t17 -19.5q6 -39 34 -67.5t56 -53.5q8 -27 0 -41 t-24.5 -25.5t-33.5 -23.5t-24 -31q-25 -29 -40 -67.5t-21 -79.5t-2 -81t18 -71q-2 -8 -8 -11l-12 -6t-10 -7t-2 -15q10 -14 17 -12t15.5 8.5t16.5 10.5t20 -7q8 -23 0 -24.5t-22.5 0.5t-30.5 2t-23 -16q-6 2 -28 2q-23 0 -47.5 -2t-44 -5.5t-19.5 -7.5q-29 -6 -59 -6 q-31 0 -60.5 2t-57.5 1t-52 -9l-96 -14q-20 -12 -35 -45t-15 -66q0 -31 18.5 -49.5t63.5 -3.5q16 -12 35 -10t35 5t33 3q16 0 30 -17q29 4 38.5 5.5t15.5 0t18 -1.5q10 0 41 3q16 -6 31.5 -1l31 10t30 4t28.5 -20q18 -43 34.5 -87t41.5 -85q35 -57 87 -87.5t113.5 -43 t128 -10.5t129.5 8q92 10 168 76t107 160q8 6 8 18v23q0 10 3 20t15 15q8 2 20.5 7t24 7t21.5 -2t16 -19q12 -6 52 -6q41 0 86 5t82.5 13.5t48.5 14.5q23 0 36 4t20 20.5t8 50.5t-1 93zM672 293q-10 -10 -12.5 -21.5t-5.5 -22.5t-8 -20.5t-19 -11.5q-61 4 -117.5 -3 t-99.5 22q-6 0 -11.5 -5.5t-10.5 -9.5t-12 -7t-16 3q-6 23 -18 38t-27 26v-33q-23 -2 -35 7t-20 23.5t-14 31t-15 28.5q-23 86 15.5 146.5t99.5 107.5q78 -14 143.5 -52t137.5 -63q10 -10 8 -20.5t-4 -19.5t1 -17t21 -12q-12 -14 -12 -29q0 -14 5 -28.5t13.5 -29t12.5 -28.5 zM637 -63q-4 -23 -19.5 -50.5t-44.5 -52.5q-23 -4 -44 -12t-42.5 -14.5t-44 -7.5t-47.5 10q-39 25 -71.5 55.5t-42.5 77.5l45 14q0 29 -8.5 49.5t-24.5 38.5q-18 4 -28.5 -6t-14.5 -25q-4 10 -11.5 21.5t-2.5 21.5q29 -4 52 12.5t38 20.5q0 23 2 44.5t30 25.5 q14 -6 19.5 -20.5t8.5 -33t4 -38t5 -35.5q-18 -14 -13 -36t1 -40q18 -25 42 -18.5t48 10.5z" />
<glyph unicode="&#xa8;" horiz-adv-x="886" d="M676 1087q0 39 7 75t-13 77q-23 31 -62 35t-78 0q-35 -4 -54 -30.5t-34 -57.5l-45 69q-27 18 -63 19h-72q-16 -10 -31.5 -17.5t-25.5 -23.5q-10 -31 -10 -70t10 -69q27 -35 63.5 -46.5t81.5 -7.5q31 10 55.5 36t36.5 52q14 -23 29.5 -47t46.5 -28q45 -16 88 -6.5t70 40.5 zM1061 -2q-4 16 -6 39.5t-17 19.5q-16 16 -39.5 12.5t-46.5 -8.5q-18 -8 -39.5 2.5t-13.5 32.5q-2 -29 -11 -31t-21.5 2.5t-27 8.5t-26.5 -8q-4 -8 -1 -15.5t11 -7.5q-27 -16 -61.5 -14t-65.5 2q-10 18 -29.5 20t-27.5 -20q-10 31 -25.5 34t-34 -1.5t-38 -9.5t-37.5 12 q-23 -16 -53.5 -6t-57.5 6l-10 -35q-106 0 -165.5 -1t-92.5 -1t-48.5 -1t-35.5 -1t-54 2t-102 4q6 -12 2 -26.5t4.5 -24t36 -12.5t95.5 5l36 -34q18 0 36 4t36.5 6t34.5 0t33 -12q33 12 39 17t9 6t12 0t48 -1q12 -8 29.5 -22.5t40.5 0.5q39 12 88 12q51 0 92 -12 q33 20 76 20q45 0 80 14l286 -12q27 4 37.5 6t13.5 5t4 8.5t7 15.5zM41 70h-16v-4z" />
<glyph unicode="&#xa9;" horiz-adv-x="1224" d="M788 514q0 12 -10 14t-20 2q0 -16 -1 -38.5t11 -34.5q12 12 12 28q0 19 8 29zM831 834q-12 23 -18 53.5t-29 46.5q0 -41 -22 -64q-8 12 -9 25.5t-1 28.5q0 14 1 28.5t-1 28.5q-12 16 -28.5 22.5t-35 7.5t-37.5 1q-18 0 -37 2q-10 -16 -23 -25.5t-30 -17.5q-18 -6 -25.5 0 t-11.5 16t-8 19.5t-18 7.5q-20 -12 -42 -28.5t-38.5 -37t-26.5 -42t-6 -46.5l27 21l6 -4q-12 -12 -14.5 -32t-4.5 -37t-11 -28.5t-34 -5.5q0 -4 -2 -7t2 -7q31 -10 32 -22.5t-9 -26t-20.5 -28.5t-2.5 -30q12 0 16.5 -8t5.5 -18.5t2 -20.5t7 -16q10 -20 3 -28.5t-17.5 -14.5 t-17.5 -13.5t1 -23.5q4 -16 18.5 -15t22.5 5q12 -10 15.5 -20.5t11.5 -22.5q-2 -16 11 -30.5t26.5 -28t19.5 -26t-8 -26.5q-16 0 -12 11.5t-4 19.5q-4 4 -12.5 8t-8.5 -8q0 -8 -2 -15.5t2 -11.5q14 -2 25.5 -10t23 -16.5t24.5 -12.5t32 2q10 -12 5 -20t-9 -17q10 -6 16 -3 t12 11.5t12.5 16.5t16.5 12q33 -25 64.5 -12.5t62.5 29.5q8 10 5 13t-10 4t-14.5 3t-7.5 10l33 33q0 35 4 75t-20 69q-16 8 -21.5 3t-7.5 -15.5t-5 -21.5t-13 -16l43 -14q-2 -23 -12.5 -28t-23 -4t-24.5 5.5t-20 -0.5l16 -26q-4 -4 -10 -3t-6 -3q-8 18 -20.5 24t-26.5 6 q-12 0 -25.5 -5t-24.5 -9q-23 16 -35 40t-8 44q20 0 23.5 -13.5t19.5 -17.5q4 4 6 7l1 4q0 10 -11 10q2 20 -6 24t-20 4q-10 0 -21.5 2.5t-15.5 18.5q6 33 3 68.5t-4 70.5t2 68t19 63q27 0 28 9.5t-2 21.5t-3 25q0 12 24 18q12 8 26.5 14.5t28 8.5t24.5 -4.5t18 -24.5v10 q0 8 4 17q23 -2 32 -11.5t11 -23t2 -29.5q0 -14 4 -27q20 6 24.5 -1t3.5 -18t-2.5 -22.5t11.5 -15.5l43 27q8 -4 14 -14.5t6 -18.5h43q14 12 4 21.5t-10 21.5q0 8 6 13.5t10 13.5zM788 330q-8 12 -20 2t-16 -19l6 -6q8 4 19 7.5t11 15.5zM1397 20l-33 27q-12 0 -9 -11 t-7 -16q-10 -6 -15.5 -1.5t-10.5 10.5t-10 11t-16 3l-12 -27q-16 0 -31 17q-6 14 -2 18t13.5 5t19.5 3t16 11q20 10 31.5 11t20 2t17.5 6t24 24q-14 18 -20.5 24t-16.5 6q-8 0 -27.5 -4t-62.5 -6q-37 6 -76 -1t-79 -16.5t-78 -13.5t-75 11q-4 -4 -2 -8.5t2 -8.5 q-4 -12 -20 -14t-27 -2q-20 8 -37.5 17t-21.5 30q12 12 25.5 23.5t33.5 19.5q43 33 91.5 78t72.5 98q-37 4 -39 16.5t10.5 30t28 37t10.5 37.5q0 16 8.5 22.5t18.5 10.5t22.5 7t20.5 13q2 12 -3 15.5t-13.5 4.5t-15.5 3t-11 10q8 14 8 33q0 20 1 40.5t7.5 36t26.5 21.5 q-27 8 -31 25.5t1 37t13.5 41t6.5 39.5q-10 25 -17.5 49.5t-35.5 36.5q6 35 -8.5 65t-38 55.5t-51 49t-52.5 47.5q-8 -2 -8 -12v-18q0 -8 -3 -15.5t-16 -7.5q-16 12 -11 29.5t1 34.5q-12 29 -45 42t-61 21q-10 -33 -4 -70.5t-17 -66.5q20 -29 51 -44t60 -36l22 31 q10 -16 8.5 -36.5t2.5 -41.5q25 -20 37 -47t23 -52.5t26.5 -47t46.5 -29.5q8 -12 8 -33q0 -18 -8 -31q-2 -6 -7.5 -7t-11.5 -1q-4 0 -7 -2t-1 -10q20 -2 26.5 -15.5t6.5 -29.5t-3 -34.5t1 -33.5q-4 -23 -22.5 -24.5t-35.5 -5.5q0 -10 4.5 -13.5t10.5 -4.5l12 -2t10 -7 q-4 -45 -28.5 -85t-57.5 -75q-20 -4 -40.5 0t-32.5 -16q-23 -2 -38.5 -15.5t-30.5 -26.5t-32.5 -21.5t-42.5 -0.5q-20 8 -35.5 -1t-31.5 1q-12 0 -13 -12q0 -10 -4 -18q-12 -14 -19 -11.5t-12.5 11t-11.5 18.5t-16 12q-14 -6 -12 -12t9 -14t12 -15.5t-3 -15.5l-20 4 q-10 -12 -21.5 -11t-22 6t-21.5 11t-21 6l-11 -12q-12 20 -33.5 30.5t-46.5 18.5q-8 8 -14 16.5t-16 4.5q-18 18 -39 27.5t-42.5 16.5t-41 13t-37.5 16q-47 57 -66.5 123t-40.5 133q-8 59 4.5 109.5t28.5 97.5l27 -16q14 10 16 18.5t-3 16.5t-13 17t-12 22l102 149 q23 16 50.5 27.5t39.5 40.5q4 -10 8 -24.5t13 -22.5l153 57q4 12 9 22.5t18 10.5q10 0 23.5 1t25.5 -1t21.5 -9.5t9.5 -23.5q33 -10 69.5 -18.5t73.5 -18.5v133q-6 18 -18.5 21.5t-26.5 3.5h-25q-12 0 -20 12q-8 -2 -20.5 -1t-22.5 -1t-16.5 -8t-4.5 -21q-16 -12 -40.5 -11 t-45.5 11q0 20 -8 24.5t-19.5 1.5t-25.5 -8t-26 -3q-25 2 -47.5 -6.5t-44 -19.5t-43 -23.5t-46.5 -18.5q-16 -4 -31.5 -20.5t-15.5 -28.5l21 6q10 4 13 -4t3 -16q-84 -80 -138 -169t-63 -198q-14 -25 -11 -50.5t7 -51t5 -49t-17 -46.5q35 -33 53.5 -77.5t46.5 -85.5 q-8 -12 -23.5 -9.5t-19.5 -11.5q14 -41 42 -72.5t62 -57.5t69.5 -49.5t66.5 -43.5q14 4 28.5 -2t29 -11.5t26.5 -3t22 20.5l4 -2q3 -2 7 -12q0 16 12 21t25 5q6 -20 15 -22t21.5 1t24.5 6t25 -7q4 -4 4 -13q0 -8 -4 -8q-12 -4 -23.5 -10t-19.5 10q-8 -16 -22.5 -23t-31 -8.5 t-33 1t-30.5 4.5q-23 0 -33 -1t-18 -1q-6 0 -16.5 4t-35.5 14q-23 -8 -54.5 -12t-51.5 -21l-4 37q-25 12 -44.5 -1t-35.5 -26q-8 10 -4 19.5t-12 13.5q-4 -20 -14.5 -22t-25 0t-27.5 1t-24 -16q-16 8 -23 22.5t-20 31.5q8 10 20.5 12t24 4t20.5 6t11 19q0 12 -15.5 19 t-27.5 7q4 -20 -6 -33.5t-31 -13.5q0 -14 -8 -16t-20.5 -1t-25.5 3t-23 -2q-16 -10 -30 -27.5t15 -30.5q-25 -12 -52.5 -9t-59.5 -1q-31 4 -64 -2t-70 2q-2 -6 -2 -35v-57q0 -31 2 -56.5t7 -29.5l1669 29q45 0 64.5 11t25.5 27.5t3 37.5t-5 44zM164 774q-4 0 -3 8.5t-9 8.5 v-17h12zM274 127v6q0 6 -12 6zM-117 233l-57 17l-49 -43q10 -29 17 -53.5t32 -40.5q4 4 4 6v4q-4 23 11.5 44t31.5 30q-4 8 1 16t9 20zM762 823q-16 -10 -17 11l13 26q4 -8 6 -18.5t-2 -18.5zM741 233q-8 -4 -10 7.5t-6 15.5q12 4 12 -8q0 -11 4 -15zM997 0 q-4 -14 -13 -18.5t-21 -4.5q-10 0 -22.5 2.5t-22.5 0.5l-17 10q20 8 50 7t46 3zM821 113q0 -12 -6 -17v17h6zM735 207q16 -12 8 -36t-12 -44q-10 16 -14.5 42t18.5 38zM784 86l-12 -6l-53 10q6 10 14 10t16.5 -4t17.5 -8t17 -2zM725 -53q4 -8 1 -17.5t-11 -9.5q-4 0 -9.5 -1 t-0.5 7q0 21 20 21zM645 -68q4 -10 -1 -14t-15 -8q-10 4 -3 15t19 7z" />
<glyph unicode="&#xab;" horiz-adv-x="1171" d="M909 231q12 45 6 84t-19 74t-28.5 71t-17.5 77q-10 55 1 105t28.5 100.5t29 101.5t0.5 108h-131q-31 -31 -55.5 -66.5t-47 -72.5t-46 -74t-49.5 -69q0 31 9 61.5t18 63t12.5 66.5t-9.5 71q-39 0 -83 6t-78 -20q-25 -43 -57 -85t-58.5 -86.5t-45 -92.5t-14.5 -103 q35 -37 60.5 -102.5t58.5 -121t82 -83t135 7.5q12 39 8 72.5t-14 65.5t-20.5 62.5t-10.5 63.5q39 -49 73 -111.5t73 -121.5q8 -33 30.5 -45.5t50 -13.5t57 3t52.5 4zM1309 -113v279l-15 20h-671l-21 -14l117 -72q8 0 20.5 1t24.5 -1t23.5 -10t17.5 -27q-35 -18 -72 -14 t-73.5 12.5t-73.5 10.5t-72 -23l-342 6q-41 0 -69.5 5.5t-54 8.5t-52.5 3q-29 0 -70 -9q-47 4 -68.5 -9t-26.5 -34.5t0 -46t11 -41.5q8 -23 5 -35t2.5 -19t28 -12t81.5 -13q33 6 58.5 7t48.5 1t47 -1t57 -1q18 -6 36.5 -3t36 6t34 4t32.5 -7l985 14zM258 -2l-5 -4t-9 -4 l-8 22q10 0 13 -5t9 -9zM229 -84q-16 -23 -36.5 -26t-42 1.5t-43 11.5t-39.5 7q6 20 22 25.5t38 4.5t45.5 -6.5t41.5 -1.5zM-49 -98l-6 8h6v-8z" />
<glyph unicode="&#xad;" d="M719 616q6 43 7 101.5t-21 101.5h-515q-23 -43 -20.5 -101.5t14.5 -101.5h535zM930 -115q27 -6 34 19.5t4 58.5t-14.5 62.5t-23.5 31.5l-1002 15q-10 -2 -23.5 -19.5t-19.5 -37t0 -38t37 -20.5q37 -25 56.5 -24t35 12.5t36 24t56.5 12.5q12 6 26.5 2t30 -8.5t30 -5.5 t26.5 12q20 -12 45 -10.5t49.5 7t48.5 5.5q25 0 50 -19q20 18 41.5 14t43 -17t41 -31.5t37.5 -28.5q14 -8 43 -6t64 8t73 13t72.5 8t62.5 -7t40 -33zM-520 86q-10 0 -26.5 -2t-16.5 -18q8 -8 28 -9q6 6 13.5 15.5t1.5 13.5z" />
<glyph unicode="&#xae;" horiz-adv-x="825" d="M709 926q-12 -12 -17.5 -27.5t4.5 -26.5q10 8 15.5 23t-2.5 31zM745 967q8 59 -7 112.5t-56 89.5q-16 35 -54 65t-79 40q-47 6 -99.5 11t-103.5 1t-97 -20.5t-83 -55.5q-4 -23 -16.5 -35t-24.5 -22t-22.5 -23.5t-10.5 -35.5q27 -25 22 -39.5t-18.5 -26.5t-25 -25.5 t1.5 -35.5q18 -4 23 -16.5t7 -26t5.5 -24.5t17.5 -13l4 65q37 29 47 72t23 86q14 -8 24 -4t19.5 13t18.5 17.5t22 10.5l6 -4q-10 -27 -8 -50.5t7 -46t9 -46t-2 -48.5q18 -10 22.5 -25.5t4.5 -33.5q0 -16 -2.5 -34.5t2.5 -35.5q-10 -16 -23.5 -24t-9.5 -29q20 -16 54 -14 t63 10q8 20 -4.5 31.5t-28.5 15.5q-4 29 -5 61.5t11 61.5h33q18 0 30 -10l43 -103q0 -12 -7 -14t-15 -2t-15.5 -1t-5.5 -13q2 -18 12.5 -24.5t24 -8.5t26.5 -3t23 -7q0 -16 -15 -19.5t-28 -11.5q-37 -18 -72.5 -16t-67.5 15t-62.5 33.5t-57.5 41.5q-25 12 -47 22t-43 31 q-12 -12 -26 -12t-27 -5q12 -47 44 -94t79 -76q37 -23 81 -37t91 -17t93 5t85 29q4 16 6 32.5t19 20.5q10 -10 9 -19t3 -18q20 8 40.5 19.5t37.5 32.5q0 16 8 26t18.5 19.5t18.5 18.5t8 26l-47 16q-23 -8 -48.5 -12t-41.5 -25q-8 4 -10.5 11.5t-10.5 15.5q-23 -4 -36 5 t-22 25.5t-15.5 35t-12.5 34.5q-20 27 -13 42.5t25.5 25.5t41 20t32.5 25q8 29 -1 51.5t-21 42.5q-16 8 -31.5 19.5t-32.5 -3.5q-16 18 -38.5 21.5t-47 2.5t-49.5 -1t-45 10q20 16 44 26.5t52 10.5q35 8 68 -3t62.5 -32.5t56 -51.5t51.5 -56q16 0 19 -8.5t2 -19.5t-3 -22.5 t4 -19.5q6 -6 14.5 -8t17.5 -4t15.5 -6t6.5 -13zM975 2q-35 23 -88 31t-113.5 10t-122 0t-108.5 0q-53 -4 -108.5 0t-113 10t-114.5 12.5t-115 6.5l-274 -41q-4 -27 9 -40.5t36.5 -20.5t50.5 -10t49 -7q39 14 83 25.5t97 3.5q10 23 23.5 23.5t27 -6.5t29 -12t29.5 5 q27 -12 59 -17q2 -6 13 -12q23 -18 46 -19t45.5 1t42 -2t34.5 -31q4 33 22 44t44 10t53.5 -7t50.5 -6q12 23 24 21.5t26.5 -9.5t29 -13t30.5 11q20 8 25 29q25 -4 46 -12.5t31 -26.5q8 18 23.5 21t30.5 3q16 0 29.5 3.5t17.5 21.5zM475 993q8 -10 5 -14t-9 -6t-13 -3t-9 -7 q-20 2 -44 0t-32 20q-6 18 -1 23.5t14 8.5t19.5 6t16.5 15q14 0 18 -9t6.5 -18.5t7.5 -15.5t21 0zM596 745q4 -4 1 -11t-11 -11h-6l6 22h10zM915 23q8 -23 -6 -33t-22 -19q-16 -6 -24.5 8.5t-16.5 22.5q8 16 31.5 22.5t37.5 -1.5zM635 -14q-12 -8 -19.5 -7t-13.5 6t-12 11 t-15 10q25 14 38.5 13t17.5 -6t4 -7v-20zM371 18q-16 -8 -32.5 -7t-8.5 16z" />
<glyph unicode="&#xaf;" horiz-adv-x="1275" d="M905 1094q0 39 4 88t-16 78h-569q-14 -35 -15 -86q0 -51 15 -87z" />
</font>
</defs>
</svg>
